<?xml version="1.0" encoding="UTF-8"?><svg id="Layer_2" xmlns="http://www.w3.org/2000/svg" viewBox="0 0 493.92 842.06"><defs><style>.cls-1{fill:#f93921;}.cls-2{fill:#fb3a24;}.cls-3{fill:#e3de36;}.cls-4,.cls-5{fill:#fff;}.cls-6{fill:#afcb03;}.cls-7{fill:#147bd0;}.cls-8{fill:none;stroke:#fff;stroke-linecap:round;stroke-miterlimit:10;stroke-width:.5px;}.cls-5{font-family:PPPangramSansRounded-Medium, 'PP Pangram Sans Rounded';font-size:15px;font-weight:500;}</style></defs><g id="Layer_1-2"><path class="cls-1" d="m484.34,139.79l-98.6-123.3C377.43,6.11,364.86.07,351.57.06L147.09,0c-12.99,0-25.3,5.76-33.62,15.73L10.16,139.6c-6.56,7.87-10.16,17.79-10.16,28.03v429.25c.9-.37,1.81-.58,2.72-.58,7.33,0,21.54,10.74,26.77,31,2.27,8.78,6.62,11.79,10.98,3.84,9.71-17.7,18.95-27.32,25.95-25.26,7.37,2.17,19.07,17.86,19.07,40.42,0,9.19,3.26,12.58,9.4,5.74,14.93-16.62,27.34-24.63,34.08-20.35,6.35,4.03,15.21,21.17,10.51,41.61-1.97,8.57-1.29,12.35,6.29,7.9,15.53-9.12,27.17-11.92,32.09-6.51,5.69,6.24,8.18,26.5-3.39,47.61-4.31,7.87-3.66,12.82,4.92,10.19,20.8-6.37,35.43-6.57,39.36.91,3.66,6.95,2,25.84-11.29,40.9-5.63,6.37-5.87,9.98,2.63,10.22,18.25.5,30.05,4.47,31.9,12.02,1.82,7.46-4.3,26.44-19.52,36.76-6.8,4.61-7.59,5.74.13,8.54.19.07.37.14.56.21h226.97c24.17,0,43.77-19.59,43.77-43.77V167.13c0-9.94-3.38-19.57-9.59-27.33Zm-237.74-44.8c-16.57,0-30-13.43-30-30s13.43-30,30-30,30,13.43,30,30-13.43,30-30,30Z"/><path class="cls-7" d="m0,439.65v157.23c.9-.37,1.81-.58,2.72-.58,7.33,0,21.54,10.74,26.77,31,2.27,8.78,6.62,11.79,10.98,3.84,9.71-17.7,18.95-27.32,25.95-25.26,7.37,2.17,19.07,17.86,19.07,40.42,0,9.19,3.26,12.58,9.4,5.74,14.93-16.62,27.34-24.63,34.08-20.35,6.35,4.03,15.21,21.17,10.51,41.61-1.97,8.57-1.29,12.35,6.29,7.9,15.53-9.12,27.17-11.92,32.09-6.51,5.69,6.24,8.18,26.5-3.39,47.61-4.31,7.87-3.66,12.82,4.92,10.19,20.8-6.37,35.43-6.57,39.36.91,3.66,6.95,2,25.84-11.29,40.9-5.63,6.37-5.87,9.98,2.63,10.22,18.25.5,30.05,4.47,31.9,12.02,1.82,7.46-4.3,26.44-19.52,36.76-6.8,4.61-7.59,5.74.13,8.54.19.07.37.14.56.21h226.97c24.17,0,43.77-19.59,43.77-43.77v-358.64H0Z"/><g id="_7SJO1n.tif"><path class="cls-4" d="m257.92,406.14c0-3.69.02-7.38-.01-11.06,0-.86.05-1.81-.28-2.56-.84-1.96.01-2.57,1.79-2.5,1.98.08,4.07-.51,5.86.93.45.36.95-.05,1.42-.24,6.27-2.69,12.02.21,13.64,6.88,1.29,5.31-.41,11.09-4.03,13.55-2.79,1.89-5.83,2.6-9.06,1.35-1.51-.58-2.02-.16-1.92,1.34.15,2.22-.39,4.48.5,6.65.45,1.09-.19,1.72-1.22,1.76-2.02.08-4.05.06-6.07-.01-.8-.03-1.49-.53-1.22-1.42,1.23-4.05.32-8.19.6-12.28.05-.79,0-1.59,0-2.39Zm7.4-4.76c.1,1.46-.25,3.15.45,4.74.6,1.38,1.4,2.53,3.12,2.61,1.78.08,2.9-.82,3.47-2.39,1.27-3.52,1.2-7.07-.1-10.56-.52-1.41-1.57-2.22-3.16-2.16-1.55.06-2.53.9-3.15,2.26-.78,1.71-.59,3.53-.63,5.51Z"/><path class="cls-4" d="m194.96,391.35c.57-.27.82-.37,1.05-.51,3.82-2.24,7.42-1.25,9.36,2.79,1.91,3.99,2.81,8.35,4.19,12.53.45,1.37.78,2.77,1.67,3.97.83,1.12.45,1.94-.92,2.13-1.36.19-2.73.34-4.1.32-3.09-.04-3.26-.26-3.33-3.39,0-.36-.06-.73-.16-1.07-1.19-3.87-2.38-7.74-3.62-11.59-.32-1-.93-1.92-2.13-1.84-1.35.08-1.87,1.2-1.87,2.3-.02,4.39-.72,8.81.45,13.14.33,1.23.09,1.98-1.22,2.23-1.94.37-3.88.37-5.82,0-1.22-.23-1.59-.96-1.12-2.05.54-1.24.51-2.54.51-3.84,0-7.38,0-14.75,0-22.13,0-1.23.06-2.46-.47-3.62-.22-.47-.38-1.1-.02-1.45,1.74-1.74,3.95-.8,5.96-.85,1.46-.03,1.61,1.18,1.6,2.34,0,3.44,0,6.88,0,10.58Z"/><path class="cls-4" d="m149.86,412.61c-.51,0-1.01.02-1.52,0-2.68-.12-2.79-.55-2.44-3.11.63-4.59.23-9.23.2-13.86,0-1.04-.85-1.22-1.68-1.31-1.46-.16-2.19-.92-2.14-2.44.06-1.56,1.02-1.93,2.33-1.91,1.45.02,1.52-.98,1.62-2.05.36-3.8,1.48-7.2,4.85-9.5,4.56-3.13,12.01-2.13,15.39,2.17,1.23,1.57,1.72,3.34.92,5.28-.64,1.55-1.87,2.36-3.53,2.45-2.97.17-4.86-2.06-4.04-5.14.49-1.84-.19-2.19-1.72-2.23-2.43-.06-3.72,1.03-4.52,3.8-.31,1.07-.25,2.14-.32,3.22-.1,1.51.56,2.11,2.04,2.02,1.4-.08,2.65.09,2.7,1.97.05,1.88-1.13,2.39-2.65,2.37-1.62-.01-2.13.72-2.1,2.26.07,3.61.01,7.23.04,10.85,0,.64.08,1.3.25,1.92.75,2.7.43,3.17-2.37,3.25-.43.01-.87,0-1.3,0Z"/><path class="cls-4" d="m340.88,389.91c4.24.17,7.45,2.07,9.56,5.75.93,1.61.63,2.83-1.22,3.64-3.11,1.37-6.15,2.89-9.25,4.29-1.56.7-1.66,1.55-.65,2.83,2.43,3.09,5.51,2.86,7.27-.61.75-1.48,1.88-2.39,3.48-1.61,1.61.79,1.59,2.32.86,3.75-1.79,3.49-5,4.59-8.62,4.9-4.79.42-9.69-2.47-11.6-6.82-2.06-4.71-1.04-10.13,2.58-13.35,2.14-1.9,4.68-2.82,7.58-2.76Zm-4.72,8.19c.03,2.21.61,2.59,2.62,1.68.79-.36,1.6-.69,2.33-1.14.76-.46,2.12-.43,2.12-1.56,0-1.21-1.04-2-2.06-2.61-1.06-.64-2.22-.75-3.29-.11-1.38.83-1.77,2.2-1.72,3.73Z"/><path class="cls-4" d="m221.84,412.73c-5.88,0-10.51-3.87-11.32-9.72-.86-6.16,2.27-11.22,7.86-12.75,4.79-1.31,10.05.85,12.53,5.13,1.28,2.21,1.05,2.93-1.26,3.99-3.02,1.39-6.01,2.85-9.07,4.16-1.72.74-1.72,1.59-.67,2.93,2.38,3.01,5.4,2.79,7.14-.58.89-1.73,2.37-2.46,3.65-1.67,1.66,1.03,1.51,2.61.7,4-2.04,3.5-5.36,4.62-9.56,4.52Zm-5.23-14.74c.02,2.55.47,2.84,2.71,1.79,1.11-.52,2.22-1.03,3.35-1.51,1.27-.54,1.35-1.29.6-2.36-1.06-1.52-2.45-2.3-4.26-1.8-1.9.52-2.43,2.07-2.39,3.88Z"/><path class="cls-4" d="m177.92,413.09c-2.74-.05-4.73-.65-6.55-1.79-1.02-.64-1.81-1.5-2.05-2.69-.3-1.5-.28-3.05,1.43-3.65,1.69-.6,3.2-.12,3.9,1.71.55,1.44,1.15,2.7,3.03,2.47.74-.09,1.48-.23,1.76-1.03.28-.79-.09-1.46-.71-1.9-1.12-.79-2.31-1.49-3.48-2.2-.74-.45-1.53-.84-2.24-1.33-3.37-2.33-4.43-4.69-3.57-7.85.78-2.88,3.42-4.88,7.05-5.17,2.92-.24,5.62.42,7.79,2.55,1.08,1.06,1.43,2.34.98,3.78-.31,1.01-1.09,1.49-2.13,1.54-1.62.08-2.56-.79-3.11-2.21-.29-.76-.67-1.46-1.46-1.81-1.03-.46-2.04-.38-2.77.51-.79.96-.46,1.92.36,2.7,1.12,1.06,2.51,1.69,3.86,2.4,1.02.54,2.04,1.09,3.01,1.73,2.07,1.37,3.35,3.22,3.05,5.81-.34,2.87-2.01,4.77-4.69,5.7-1.28.45-2.68.57-3.46.73Z"/><path class="cls-4" d="m316.69,401.12c.14,1.9.24,3.57.84,5.14.58,1.5,1.63,2.59,3.31,2.78,1.71.19,2.66-.85,3.28-2.3.53-1.23,1.36-2.04,2.8-1.97.94.04,1.74.37,2.09,1.27.54,1.39.3,2.67-.69,3.83-3.61,4.24-11.61,4.16-15.8-.17-3.82-3.95-4.32-11.43-1.03-15.63,3.49-4.46,9.77-5.76,14.64-3.01,1.36.76,2.53,1.75,2.95,3.31.35,1.33.31,2.72-1.19,3.32-1.44.58-2.96.48-3.8-1.06-.88-1.61-1.47-3.5-3.87-2.96-2.45.55-2.83,2.63-3.18,4.66-.17.99-.27,2-.36,2.77Z"/><path class="cls-4" d="m240.64,404.17c-.11,2.12.08,4.13.6,6.1.34,1.27-.16,1.93-1.47,2.03-1.8.14-3.58.55-5.39.11-1.02-.25-1.9-.7-1.41-1.92.89-2.18.59-4.43.52-6.65-.13-4.02.63-8.09-.57-12.07-.29-.97.21-1.71,1.13-1.67,2.27.09,4.82-1.08,6.67,1.28.54.69,1,.23,1.44-.16.71-.63,1.49-1.15,2.42-1.4,1.72-.47,3.19-.03,4.23,1.41,1.04,1.44,1.01,3-.03,4.44-1.09,1.5-2.61,1.69-4.27,1.14-3.08-1.02-3.26-.88-3.61,2.47-.17,1.66-.36,3.3-.26,4.89Z"/><path class="cls-4" d="m290.09,392.23c1.12-.8,1.91-1.79,3.1-2.23,1.84-.69,3.44-.4,4.7,1.13,1.14,1.39,1.25,2.96.21,4.42-1.17,1.63-2.82,1.87-4.65,1.21-2.6-.94-3.68-.35-3.64,2.44.05,3.73-.67,7.51.56,11.2.42,1.25-.2,1.99-1.42,2.13-1.8.2-3.62.23-5.41-.05-.93-.14-1.85-.65-1.48-1.71,1.08-3.05.58-6.17.57-9.25-.01-3.3.59-6.66-.57-9.9-.19-.53.03-.99.5-1.31.84-.59,5.83-.4,6.53.33.39.4.61.95,1.01,1.61Z"/><path class="cls-4" d="m167.47,401.07c.23,2.95-.37,6.28.4,9.56.22.96-.29,1.53-1.24,1.65-1.14.14-2.29.3-3.44.32-3.59.04-3.43-.21-3.3-3.63.22-5.66.75-11.37-.37-17.01-.24-1.23.15-1.86,1.32-1.91,1.58-.07,3.18-.08,4.76,0,1.5.08,1.85,1.18,1.86,2.44.02,2.74,0,5.48,0,8.58Z"/><path class="cls-4" d="m307.49,400.72c.33,2.89-.59,6.46.59,9.93.28.83-.19,1.5-1.05,1.55-1.87.1-3.72.61-5.61.31-1.4-.22-1.91-.85-1.63-2.39,1.08-5.94.99-11.91.02-17.85-.25-1.5.05-2.25,1.62-2.26,6.88-.04,6.01-.56,6.05,5.55.01,1.52,0,3.03,0,5.16Z"/><path class="cls-4" d="m248.33,406.75c-1.53.03-3.19-.67-4.43-2.27-.84-1.09-.74-2.04.52-2.65,2.79-1.35,5.58-2.69,8.43-3.91,1.83-.79,2.82,0,2.87,2.08.11,3.77-3.09,6.9-7.39,6.75Z"/><path class="cls-4" d="m307.9,384.34c-.05,2.31-1.9,4.06-4.23,4-2.21-.06-4.03-1.89-4-4.02.03-2.23,2-4.19,4.16-4.17,2.3.03,4.12,1.91,4.08,4.19Z"/></g><text class="cls-5" transform="translate(44.08 615.56) rotate(-50.37)"><tspan x="0" y="0">b</tspan></text><text class="cls-5" transform="translate(50.3 608.46) rotate(-42.5)"><tspan x="0" y="0">i</tspan></text><text class="cls-5" transform="translate(52.42 606.43) rotate(-36.9)"><tspan x="0" y="0">t</tspan></text><text class="cls-5" transform="translate(55.27 603.68) rotate(-24.3)"><tspan x="0" y="0">e</tspan></text><text class="cls-5" transform="translate(62.56 600.4) rotate(-6.31)"><tspan x="0" y="0"> </tspan></text><text class="cls-5" transform="translate(64.8 598.03) rotate(26.34)"><tspan x="0" y="0">m</tspan></text><text class="cls-5" transform="translate(75.29 603.97) rotate(45.88)"><tspan x="0" y="0">e</tspan></text><text class="cls-5" transform="translate(104.51 633.72) rotate(-33.56)"><tspan x="0" y="0">B</tspan></text><text class="cls-5" transform="translate(111.95 628.76) rotate(-21.57)"><tspan x="0" y="0">P</tspan></text><text class="cls-5" transform="translate(118.55 625.59) rotate(-.48)"><tspan x="0" y="0">A</tspan></text><text class="cls-5" transform="translate(127.52 625.89) rotate(15.57)"><tspan x="0" y="0"> </tspan></text><text class="cls-5" transform="translate(130.41 626.53) rotate(26.72)"><tspan x="0" y="0">f</tspan></text><text class="cls-5" transform="translate(134.57 628.54) rotate(41.06)"><tspan x="0" y="0">r</tspan></text><text class="cls-5" transform="translate(137.97 631.01) rotate(57.79)"><tspan x="0" y="0">e</tspan></text><text class="cls-5" transform="translate(142.21 638.06) rotate(71.61)"><tspan x="0" y="0">e</tspan></text><text class="cls-5" transform="translate(144.85 646.21) rotate(79.08)"><tspan x="0" y="0">!</tspan></text><path class="cls-8" d="m86.09,607.98s7.69-2.42,7.82,2.23c.12,4.66-5.22,8.05-10.1,8.57"/><line class="cls-8" x1="83.88" y1="618.78" x2="85.11" y2="619.8"/><line class="cls-8" x1="85.08" y1="617.73" x2="83.86" y2="618.77"/><path class="cls-2" d="m59.18,471.82c-5.74,10.55-3.29,24,6.42,31.76,9.71,7.76,23.38,7.19,32.4-.74l-38.82-31.03Z"/><path class="cls-6" d="m225.02,615.82c-3.46-11.15,1.45-23.51,12.19-29.05s23.66-2.39,30.74,6.89l-42.93,22.16Z"/><path class="cls-3" d="m313.39,650.83c-3.53,12.22,2.09,25.58,13.9,31.38,11.81,5.8,25.82,2.09,33.33-8.17l-47.24-23.21Z"/><path class="cls-3" d="m458.02,524.99c-9.43-8.71-24.03-9.69-34.61-1.66s-13.57,22.35-7.71,33.78l42.32-32.12Z"/><path class="cls-6" d="m455.35,680.63c3.38,10.91-1.42,23-11.92,28.43s-23.15,2.33-30.08-6.74l42-21.68Z"/><path class="cls-2" d="m290.78,766.3c-6.42,11.8-3.68,26.85,7.18,35.53s26.15,8.04,36.24-.82l-43.42-34.71Z"/><path class="cls-2" d="m310.82,511.88c8.19,7.24,20.63,7.8,29.49.77s11.13-19.28,5.94-28.9l-35.43,28.13Z"/><path class="cls-3" d="m172.93,527.91c11.4-5.64,17.46-18.8,13.78-31.44s-15.88-20.46-28.53-19.09l14.75,50.52Z"/></g></svg>