<?xml version="1.0" encoding="UTF-8"?><svg id="Layer_2" xmlns="http://www.w3.org/2000/svg" viewBox="0 0 847 869.86"><defs><style>.cls-1{fill:#fff;}.cls-2{font-family:GrtskTera-Light, 'Grtsk Tera';font-size:105px;font-weight:300;}</style></defs><g id="Layer_1-2"><path class="cls-1" d="m135,756.93l46.68-94.2s122.05,79.08,248.46,79.64,241.8-79.64,241.8-79.64l60.05,94.2s-160.51,94-274.33,90c-113.82-4-322.67-90-322.67-90Z"/><text class="cls-2" transform="translate(145.57 746.04) rotate(34.89)"><tspan x="0" y="0">E</tspan></text><text class="cls-2" transform="translate(224.56 799.99) rotate(22.02)"><tspan x="0" y="0">n</tspan></text><text class="cls-2" transform="translate(313.31 834.98) rotate(8.89)"><tspan x="0" y="0">q</tspan></text><text class="cls-2" transform="translate(410 848.9) rotate(-3.87)"><tspan x="0" y="0">u</tspan></text><text class="cls-2" transform="translate(500.14 840.39) rotate(-12.51)"><tspan x="0" y="0">i</tspan></text><text class="cls-2" transform="translate(535.26 833.04) rotate(-18.99)"><tspan x="0" y="0">r</tspan></text><text class="cls-2" transform="translate(591.67 814.55) rotate(-28.96)"><tspan x="0" y="0">e</tspan></text><text class="cls-2" transform="translate(669.55 769.33) rotate(-39.19)"><tspan x="0" y="0">r</tspan></text></g></svg>