<?xml version="1.0" encoding="UTF-8"?><svg id="Layer_2" xmlns="http://www.w3.org/2000/svg" viewBox="0 0 1676.58 559.69"><g id="Layer_1-2"><path d="m1676.58,52.53c.09-9.54-5.21-16.81-14.39-19.76-10.73-3.44-21.96-4.3-32.91-6.58-18.92-3.93-37.48-9.13-56.09-14.2-11.7-3.19-23.37-6.48-35.11-9.49l-3.54,19.08c-.26,1.4-.42,2.82-.5,4.24-.8,13.75-3.14,26.56-8.03,36.22,26.88,18.18,42.88,43.61,46.61,76.58,2.47,21.85,1.92,43.7-.9,65.59-2.01,15.59-2.82,31.33-5.64,46.86-4.58,25.2-10.3,50.12-17.42,74.71-7.19,24.82-14.4,49.64-24.87,73.39-7.69,17.45-17.87,33.22-29.88,47.97-12.79,15.7-27.55,29.11-44.57,40.08-22.93,14.77-48.2,23.36-74.73,29-18.12,3.85-36.41,6.75-54.72,8.95-14.06,1.7-28.39,3.09-38.96,1.94-47.61.3-90.05-7.46-130.83-23.44-29.94-11.73-56.9-28.52-81.19-49.71-32.2-28.09-56.5-62.03-75.21-100.07-13.32-27.08-25.71-54.65-35.91-83.06-8.45-23.53-16.23-47.61-18.8-72.43-2.75-26.51-2.57-53.44,10.29-78.27,9.44-18.23,23-32.4,39.06-44.18-.59-2.42-.94-4.97-.97-7.64-.16-13.99-.35-28.7-.55-41.99-3.76.65-7.52,1.3-11.27,1.97-14.15,2.54-28.53,4.48-42.89,6.19-12.53,1.5-25.15,2.79-37.64,4.91-6.36,1.08-12.96.9-19.43,1.31-18.21,1.16-36.51,1.95-54.73,1.35-14.24-.47-28.51-1.92-42.75-3.38-15.48-1.59-30.9-3.59-46.31-5.6-4.1,20.75-15.91,45.11-23.38,59.11.48.5.96,1.01,1.44,1.52,18.54,20.06,28.36,43.31,29.69,70.95,2.07,42.86-10.52,82.16-25.99,121.1-10.08,25.37-21.25,50.25-33.44,74.63-17.89,35.79-41.48,67.53-71.88,93.73-39.9,34.39-85.94,56.4-137.85,66.15-23.56,4.43-47.22,7.33-71.27,6.86-43.65-.79-86.78-5.72-128.4-19.39-24.62-8.09-46.58-21.07-66.28-38.4-20.92-18.4-36.73-40.3-48.78-64.94-11.58-23.69-18.79-49.08-26.05-74.37-6.13-21.36-11.76-42.87-15.72-64.73-3.16-17.43-5.71-34.96-7.83-52.57-1.22-10.11-1.97-20.43-1.71-30.25.72-26.68-2.35-53.94,10.86-79.31,8.68-16.67,20.51-29.83,35.1-40.21l-3.05-62.98c-17.73,4.22-35.23,9.35-52.78,14.26-24.74,6.91-49.67,12.92-75.01,17.16-8.74,1.46-15.35,5.73-19.47,13.64v23.14c2.21,9.98,2.22,19.97,0,29.95v12.25c1.91,3.63,2.12,7.26,0,10.89v4.08c2.35,11.22,12.46,15.1,20.35,20.79,10.23,7.37,17.29,17.16,23.19,27.86,10.95,19.85,17.16,41.53,23.21,63.2,4.84,17.31,9.44,34.69,13.66,52.15,6.65,27.47,14.02,54.71,23.16,81.48,10.85,31.81,26.11,61.2,47.64,87.09,21.93,26.37,48.69,46.82,78.99,62.89,31.61,16.77,65.17,27.44,100.35,33.49,10.97,1.89,21.87,4,33.05,4.01.98,0,1.75.26,1.95,1.35h60.02c6.16-3.17,13.01-1.52,19.48-2.38,16.67-2.21,33.16-5.11,49.51-8.87,31.27-7.18,61.06-18.48,89.24-33.76,17.24-9.35,33.18-20.61,48.11-33.46,24.05-20.7,43.6-45.01,60.63-71.57,15.41-24.02,27.74-49.54,38.73-75.84,8.43-20.16,15.71-40.71,22.3-61.48,5.97-18.79,10.42-38.14,19.91-55.59,8.05-14.8,16.11-29.73,32.43-37.72,4.8-2.35,9.77-2.95,14.63-3.1,14.66-.45,29.39-.84,43.95,1.31,6.86,1.01,12.71,4.89,17.63,9.75,16.6,16.4,26.32,36.91,32.93,58.71,8.79,28.99,17.45,57.98,29.02,86.03,6.34,15.36,13.05,30.56,20.8,45.25,12.54,23.75,26.96,46.24,43.83,67.26,18.52,23.08,39.73,43.23,64.41,59.28,28.85,18.76,60.42,32.06,93.67,41.14,20.79,5.67,41.75,10.4,63.3,12.67,5.42.57,11.51-1.03,16.62,2.36h62.74c4.88-3.43,10.73-1.69,15.97-2.35,21.92-2.77,43.4-6.94,64.58-13.31,35.54-10.69,68.1-26.81,97.46-49.58,28.95-22.45,51.89-49.97,68.3-82.4,16.03-31.66,26.22-65.62,34.7-100.05,8.21-33.33,16.69-66.59,26.47-99.52,5.6-18.87,13.41-36.42,25.06-52.36,6.32-8.65,14.42-14.95,23.41-20.4,7.94-4.82,10.86-12.15,11.04-21.15.19-9.7-.57-19.31-1.41-28.94-1.09-12.41,1.43-24.7,1.55-37.1Z"/></g></svg>