<?xml version="1.0" encoding="UTF-8"?><svg id="Layer_2" xmlns="http://www.w3.org/2000/svg" viewBox="0 0 1676.58 585.31"><g id="Layer_1-2"><path d="m425.57,585.31h-60.02c-.21-1.09-.98-1.35-1.95-1.35-11.18-.01-22.08-2.13-33.05-4.01-35.19-6.05-68.74-16.72-100.35-33.49-30.3-16.07-57.06-36.52-78.99-62.89-21.53-25.88-36.78-55.28-47.64-87.09-9.14-26.77-16.51-54.01-23.16-81.48-4.23-17.46-8.83-34.84-13.66-52.15-6.05-21.67-12.26-43.35-23.21-63.2-5.9-10.7-12.96-20.49-23.19-27.86-7.9-5.69-18-9.57-20.35-20.79v-4.08c2.12-3.63,1.91-7.26,0-10.89v-12.25c2.22-9.98,2.21-19.97,0-29.95v-23.14c4.12-7.91,10.73-12.18,19.47-13.64,25.34-4.24,50.27-10.25,75.01-17.16,29.15-8.14,58.13-16.94,88.28-21.06,19.71-2.69,39.24-6.61,58.95-9.28,15.63-2.12,31.27-4.23,46.98-5.87,16.03-1.67,32.06-3.41,48.12-3.54,22.93-.19,45.79,1.92,68.67,3.6,11.61.85,23.29,1.74,34.71,3.33,19.68,2.75,39.45,5.13,58.99,9.05,18.81,3.78,37.86,6.39,56.71,10.01,23.98,4.61,47.85,9.81,71.81,14.57,18.81,3.74,37.63,7.38,56.51,10.71,14.84,2.62,29.75,5,44.69,6.94,16.38,2.13,32.75,4.28,49.2,5.97,14.24,1.46,28.51,2.91,42.75,3.38,18.21.6,36.52-.19,54.73-1.35,6.47-.41,13.08-.24,19.43-1.31,12.49-2.12,25.11-3.41,37.64-4.91,14.36-1.71,28.74-3.65,42.89-6.19,22.11-3.96,44.35-7.3,66.37-11.84,20.9-4.31,41.79-8.66,62.73-12.77,18.59-3.64,37.24-7.01,55.87-10.43,12.14-2.23,24.27-4.58,36.46-6.47,13.79-2.14,27.61-4.4,41.5-5.55,10.46-.87,20.77-2.75,31.33-3.22C1286.06,2.93,1302.24-.04,1318.58,0c18.23.04,36.41,1.23,54.61,2.4,14.51.93,28.91,2.73,43.26,4.54,25.64,3.24,51.04,8.31,76.64,11.89,27.31,3.83,53.62,11.58,80.1,18.78,18.61,5.06,37.17,10.27,56.09,14.2,10.95,2.27,22.18,3.14,32.91,6.58,9.18,2.94,14.48,10.22,14.39,19.76-.12,12.4-2.63,24.69-1.55,37.1.84,9.63,1.6,19.24,1.41,28.94-.17,9-3.1,16.33-11.04,21.15-8.98,5.46-17.08,11.76-23.41,20.4-11.65,15.94-19.46,33.49-25.06,52.36-9.77,32.93-18.25,66.19-26.47,99.52-8.48,34.43-18.67,68.39-34.7,100.05-16.42,32.43-39.35,59.95-68.3,82.4-29.36,22.77-61.92,38.89-97.46,49.58-21.18,6.37-42.66,10.54-64.58,13.31-5.24.66-11.1-1.08-15.97,2.35h-62.74c-5.11-3.39-11.2-1.79-16.62-2.36-21.55-2.27-42.51-6.99-63.3-12.67-33.25-9.07-64.82-22.38-93.67-41.14-24.68-16.05-45.89-36.2-64.41-59.28-16.88-21.03-31.29-43.51-43.83-67.26-7.76-14.69-14.47-29.89-20.8-45.25-11.57-28.05-20.23-57.04-29.02-86.03-6.61-21.8-16.33-42.31-32.93-58.71-4.92-4.86-10.77-8.74-17.63-9.75-14.56-2.15-29.29-1.76-43.95-1.31-4.86.15-9.83.75-14.63,3.1-16.32,7.99-24.38,22.92-32.43,37.72-9.49,17.45-13.94,36.8-19.91,55.59-6.6,20.78-13.88,41.32-22.3,61.48-10.99,26.3-23.32,51.82-38.73,75.84-17.03,26.55-36.58,50.87-60.63,71.57-14.93,12.85-30.87,24.11-48.11,33.46-28.18,15.28-57.96,26.57-89.24,33.76-16.35,3.76-32.84,6.66-49.51,8.87-6.47.86-13.32-.79-19.48,2.38Zm-26.46-32.54c24.04.48,47.7-2.43,71.27-6.86,51.91-9.76,97.95-31.76,137.85-66.15,30.4-26.2,53.99-57.95,71.88-93.73,12.19-24.38,23.36-49.26,33.44-74.63,15.47-38.94,28.06-78.24,25.99-121.1-1.33-27.64-11.15-50.88-29.69-70.95-23.33-25.25-53.71-38.72-85.13-50.03-36.9-13.29-74.92-22.3-113.89-27.47-21.5-2.85-43.03-4.64-64.66-5.13-25.13-.57-50.2.59-75.3,2.38-17.77,1.26-35.53,2.78-53.21,4.64-22.32,2.35-44.62,5.17-66.77,9.1-30.76,5.46-60.92,12.72-88.42,28.07-20.29,11.33-36.28,26.81-47.26,47.89-13.21,25.38-10.14,52.64-10.86,79.31-.27,9.82.49,20.14,1.71,30.25,2.12,17.62,4.67,35.15,7.83,52.57,3.96,21.86,9.59,43.37,15.72,64.73,7.26,25.29,14.47,50.68,26.05,74.37,12.05,24.64,27.85,46.54,48.78,64.94,19.69,17.32,41.66,30.31,66.28,38.4,41.62,13.67,84.75,18.6,128.4,19.39Zm881.81-.02c10.56,1.15,24.9-.24,38.96-1.94,18.31-2.21,36.6-5.1,54.72-8.95,26.54-5.64,51.81-14.23,74.73-29,17.02-10.97,31.78-24.38,44.57-40.08,12.01-14.75,22.19-30.52,29.88-47.97,10.47-23.75,17.68-48.56,24.87-73.38,7.12-24.59,12.84-49.51,17.42-74.71,2.83-15.54,3.63-31.27,5.64-46.86,2.82-21.89,3.37-43.74.9-65.59-3.93-34.81-21.54-61.22-51.21-79.56-32.97-20.38-69.97-28.66-107.63-34.28-20.69-3.09-41.66-4.26-62.38-7.12-25.93-3.59-52.05-4.99-78.09-6.31-27.54-1.39-55.18-.33-82.77,2.14-24.48,2.19-48.7,5.67-72.54,11.31-40.69,9.62-81.05,20.37-117.14,42.75-21.53,13.35-39.76,29.82-51.56,52.61-12.86,24.83-13.04,51.76-10.29,78.27,2.57,24.82,10.35,48.9,18.8,72.43,10.21,28.41,22.59,55.98,35.91,83.06,18.7,38.04,43.01,71.98,75.21,100.07,24.29,21.19,51.26,37.98,81.19,49.71,40.78,15.98,83.21,23.73,130.83,23.44Z"/></g></svg>