<?xml version="1.0" encoding="UTF-8"?><svg id="Layer_2" xmlns="http://www.w3.org/2000/svg" viewBox="0 0 847 937.12"><defs><style>.cls-1{fill:#fff;}.cls-2{font-family:GrtskTera-Light, 'Grtsk Tera';font-size:105px;font-weight:300;}</style></defs><g id="Layer_1-2"><path class="cls-1" d="m107.15,90.12l50.04,94.2s130.82-79.08,266.32-79.64,259.18,79.64,259.18,79.64l64.37-94.2S575-3.88,453,.12,107.15,90.12,107.15,90.12Z"/><text class="cls-2" transform="translate(167.08 172.41) rotate(-29.85)"><tspan x="0" y="0">N</tspan></text><text class="cls-2" transform="translate(257.11 122.05) rotate(-17.68)"><tspan x="0" y="0">a</tspan></text><text class="cls-2" transform="translate(330.68 99.43) rotate(-8.89)"><tspan x="0" y="0">t</tspan></text><text class="cls-2" transform="translate(383.13 91.73) rotate(-3.26)"><tspan x="0" y="0">i</tspan></text><text class="cls-2" transform="translate(413.12 88.12) rotate(4.32)"><tspan x="0" y="0">o</tspan></text><text class="cls-2" transform="translate(496.11 94.05) rotate(15.64)"><tspan x="0" y="0">n</tspan></text><text class="cls-2" transform="translate(577.41 116.97) rotate(26.58)"><tspan x="0" y="0">a</tspan></text><text class="cls-2" transform="translate(645.87 152.79) rotate(33.84)"><tspan x="0" y="0">l</tspan></text></g></svg>