<?xml version="1.0" encoding="UTF-8"?><svg id="Layer_2" xmlns="http://www.w3.org/2000/svg" viewBox="0 0 647 836.49"><defs><style>.cls-1{fill:#f9bbcb;}.cls-2{fill:#fb3a24;}.cls-3{fill:#f83922;}.cls-4{fill:#ffa301;}.cls-5{fill:#e3de36;}.cls-6{fill:#fff;}.cls-7{fill:#69d1e2;}.cls-8{fill:#afcb03;}.cls-9{fill:#177bd1;}.cls-10{fill:#982099;}</style></defs><g id="Layer_1-2"><path class="cls-3" d="m628.79,520.52c.12-1.83.21-3.67.21-5.53,0-17.4-5.54-33.5-14.93-46.67,20.29-22.59,32.93-54.48,32.93-89.83s-13.57-69.53-35.15-92.22c-1.55-26.85-16.27-50.16-37.79-63.59,4.44-9.99,6.94-21.04,6.94-32.68,0-16.9-5.22-32.57-14.12-45.52-1.6-3.97-3.82-7.71-6.65-11.08L461.64,15.74C453.33,5.83,440.76.06,427.47.06L223,0c-12.99,0-25.3,5.5-33.62,15.01l-103.31,118.2c-3.04,3.47-5.42,7.37-7.12,11.51-8.79,12.9-13.93,28.48-13.93,45.27,0,9.87,1.78,19.31,5.03,28.05-11.86,14.02-19.03,32.15-19.03,51.95,0,27.45,13.75,51.68,34.73,66.21-7.92,12.92-12.79,27.92-13.61,43.99-2.32.65-4.61,1.39-6.86,2.2-6.03-3.74-13.15-5.9-20.77-5.9-21.82,0-39.5,17.68-39.5,39.5,0,6.39,1.52,12.41,4.22,17.75-5.91,12.69-9.22,26.83-9.22,41.75,0,38.21,21.65,71.37,53.36,87.87-10.26,13.51-16.36,30.36-16.36,48.63,0,27.84,14.13,52.37,35.61,66.83-4.87,10.37-7.61,21.95-7.61,34.17,0,44.46,36.04,80.5,80.5,80.5,4.84,0,9.57-.45,14.17-1.27,3.4,18.36,19.48,32.27,38.83,32.27,13.21,0,24.91-6.5,32.08-16.46,10.82,5.4,23.01,8.46,35.92,8.46,6.83,0,13.47-.86,19.8-2.46,19.27,13.98,44.54,22.46,72.2,22.46,45,0,83.66-22.44,100.5-54.52,12.12,7.31,26.32,11.52,41.5,11.52,44.46,0,80.5-36.04,80.5-80.5,0-9.5-1.66-18.61-4.68-27.07,15.79-14.7,25.68-35.65,25.68-58.93,0-14.12-3.65-27.39-10.04-38.93,3.36.93,6.89,1.43,10.54,1.43,21.82,0,39.5-17.68,39.5-39.5,0-11.72-5.11-22.24-13.21-29.47ZM322.5,34.99c16.57,0,30,13.43,30,30s-13.43,30-30,30-30-13.43-30-30,13.43-30,30-30Z"/><path class="cls-9" d="m628.79,520.52c.12-1.83.21-3.67.21-5.53,0-17.4-5.54-33.5-14.93-46.67,10.88-12.11,19.56-26.91,25.27-43.47H6.01c.72,3.12,1.8,6.1,3.2,8.89-5.91,12.69-9.22,26.83-9.22,41.75,0,38.21,21.65,71.37,53.36,87.87-10.26,13.51-16.36,30.36-16.36,48.63,0,27.84,14.13,52.37,35.61,66.83-4.87,10.37-7.61,21.95-7.61,34.17,0,44.46,36.04,80.5,80.5,80.5,4.84,0,9.57-.45,14.17-1.27,3.4,18.36,19.48,32.27,38.83,32.27,13.21,0,24.91-6.5,32.08-16.46,10.82,5.4,23.01,8.46,35.92,8.46,6.83,0,13.47-.86,19.8-2.46,19.27,13.98,44.54,22.46,72.2,22.46,45,0,83.66-22.44,100.5-54.52,12.12,7.31,26.32,11.52,41.5,11.52,44.46,0,80.5-36.04,80.5-80.5,0-9.5-1.66-18.61-4.68-27.07,15.79-14.7,25.68-35.65,25.68-58.93,0-14.12-3.65-27.39-10.04-38.93,3.36.93,6.89,1.43,10.54,1.43,21.82,0,39.5-17.68,39.5-39.5,0-11.72-5.11-22.24-13.21-29.47Z"/><g id="_7SJO1n.tif"><path class="cls-6" d="m344.84,391.17c0-3.69.02-7.38-.01-11.06,0-.86.05-1.81-.28-2.56-.84-1.96.01-2.57,1.79-2.5,1.98.08,4.07-.51,5.86.93.45.36.95-.05,1.42-.24,6.27-2.69,12.02.21,13.64,6.88,1.29,5.31-.41,11.09-4.03,13.55-2.79,1.89-5.83,2.6-9.06,1.35-1.51-.58-2.02-.16-1.92,1.34.15,2.22-.39,4.48.5,6.65.45,1.09-.19,1.72-1.22,1.76-2.02.08-4.05.06-6.07-.01-.8-.03-1.49-.53-1.22-1.42,1.23-4.05.32-8.19.6-12.28.05-.79,0-1.59,0-2.39Zm7.4-4.76c.1,1.46-.25,3.15.45,4.74.6,1.38,1.4,2.53,3.12,2.61,1.78.08,2.9-.82,3.47-2.39,1.27-3.52,1.2-7.07-.1-10.56-.52-1.41-1.57-2.22-3.16-2.16-1.55.06-2.53.9-3.15,2.26-.78,1.71-.59,3.53-.63,5.51Z"/><path class="cls-6" d="m281.87,376.38c.57-.27.82-.37,1.05-.51,3.82-2.24,7.42-1.25,9.36,2.79,1.91,3.99,2.81,8.35,4.19,12.53.45,1.37.78,2.77,1.67,3.97.83,1.12.45,1.94-.92,2.13-1.36.19-2.73.34-4.1.32-3.09-.04-3.26-.26-3.33-3.39,0-.36-.06-.73-.16-1.07-1.19-3.87-2.38-7.74-3.62-11.59-.32-1-.93-1.92-2.13-1.84-1.35.08-1.87,1.2-1.87,2.3-.02,4.39-.72,8.81.45,13.14.33,1.23.09,1.98-1.22,2.23-1.94.37-3.88.37-5.82,0-1.22-.23-1.59-.96-1.12-2.05.54-1.24.51-2.54.51-3.84,0-7.38,0-14.75,0-22.13,0-1.23.06-2.46-.47-3.62-.22-.47-.38-1.1-.02-1.45,1.74-1.74,3.95-.8,5.96-.85,1.46-.03,1.61,1.18,1.6,2.34,0,3.44,0,6.88,0,10.58Z"/><path class="cls-6" d="m236.77,397.64c-.51,0-1.01.02-1.52,0-2.68-.12-2.79-.55-2.44-3.11.63-4.59.23-9.23.2-13.86,0-1.04-.85-1.22-1.68-1.31-1.46-.16-2.19-.92-2.14-2.44.06-1.56,1.02-1.93,2.33-1.91,1.45.02,1.52-.98,1.62-2.05.36-3.8,1.48-7.2,4.85-9.5,4.56-3.13,12.01-2.13,15.39,2.17,1.23,1.57,1.72,3.34.92,5.28-.64,1.55-1.87,2.36-3.53,2.45-2.97.17-4.86-2.06-4.04-5.14.49-1.84-.19-2.19-1.72-2.23-2.43-.06-3.72,1.03-4.52,3.8-.31,1.07-.25,2.14-.32,3.22-.1,1.51.56,2.11,2.04,2.02,1.4-.08,2.65.09,2.7,1.97.05,1.88-1.13,2.39-2.65,2.37-1.62-.01-2.13.72-2.1,2.26.07,3.61.01,7.23.04,10.85,0,.64.08,1.3.25,1.92.75,2.7.43,3.17-2.37,3.25-.43.01-.87,0-1.3,0Z"/><path class="cls-6" d="m427.8,374.94c4.24.17,7.45,2.07,9.56,5.75.93,1.61.63,2.83-1.22,3.64-3.11,1.37-6.15,2.89-9.25,4.29-1.56.7-1.66,1.55-.65,2.83,2.43,3.09,5.51,2.86,7.27-.61.75-1.48,1.88-2.39,3.48-1.61,1.61.79,1.59,2.32.86,3.75-1.79,3.49-5,4.59-8.62,4.9-4.79.42-9.69-2.47-11.6-6.82-2.06-4.71-1.04-10.13,2.58-13.35,2.14-1.9,4.68-2.82,7.58-2.76Zm-4.72,8.19c.03,2.21.61,2.59,2.62,1.68.79-.36,1.6-.69,2.33-1.14.76-.46,2.12-.43,2.12-1.56,0-1.21-1.04-2-2.06-2.61-1.06-.64-2.22-.75-3.29-.11-1.38.83-1.77,2.2-1.72,3.73Z"/><path class="cls-6" d="m308.76,397.77c-5.88,0-10.51-3.87-11.32-9.72-.86-6.16,2.27-11.22,7.86-12.75,4.79-1.31,10.05.85,12.53,5.13,1.28,2.21,1.05,2.93-1.26,3.99-3.02,1.39-6.01,2.85-9.07,4.16-1.72.74-1.72,1.59-.67,2.93,2.38,3.01,5.4,2.79,7.14-.58.89-1.73,2.37-2.46,3.65-1.67,1.66,1.03,1.51,2.61.7,4-2.04,3.5-5.36,4.62-9.56,4.52Zm-5.23-14.74c.02,2.55.47,2.84,2.71,1.79,1.11-.52,2.22-1.03,3.35-1.51,1.27-.54,1.35-1.29.6-2.36-1.06-1.52-2.45-2.3-4.26-1.8-1.9.52-2.43,2.07-2.39,3.88Z"/><path class="cls-6" d="m264.83,398.13c-2.74-.05-4.73-.65-6.55-1.79-1.02-.64-1.81-1.5-2.05-2.69-.3-1.5-.28-3.05,1.43-3.65,1.69-.6,3.2-.12,3.9,1.71.55,1.44,1.15,2.7,3.03,2.47.74-.09,1.48-.23,1.76-1.03.28-.79-.09-1.46-.71-1.9-1.12-.79-2.31-1.49-3.48-2.2-.74-.45-1.53-.84-2.24-1.33-3.37-2.33-4.43-4.69-3.57-7.85.78-2.88,3.42-4.88,7.05-5.17,2.92-.24,5.62.42,7.79,2.55,1.08,1.06,1.43,2.34.98,3.78-.31,1.01-1.09,1.49-2.13,1.54-1.62.08-2.56-.79-3.11-2.21-.29-.76-.67-1.46-1.46-1.81-1.03-.46-2.04-.38-2.77.51-.79.96-.46,1.92.36,2.7,1.12,1.06,2.51,1.69,3.86,2.4,1.02.54,2.04,1.09,3.01,1.73,2.07,1.37,3.35,3.22,3.05,5.81-.34,2.87-2.01,4.77-4.69,5.7-1.28.45-2.68.57-3.46.73Z"/><path class="cls-6" d="m403.6,386.16c.14,1.9.24,3.57.84,5.14.58,1.5,1.63,2.59,3.31,2.78,1.71.19,2.66-.85,3.28-2.3.53-1.23,1.36-2.04,2.8-1.97.94.04,1.74.37,2.09,1.27.54,1.39.3,2.67-.69,3.83-3.61,4.24-11.61,4.16-15.8-.17-3.82-3.95-4.32-11.43-1.03-15.63,3.49-4.46,9.77-5.76,14.64-3.01,1.36.76,2.53,1.75,2.95,3.31.35,1.33.31,2.72-1.19,3.32-1.44.58-2.96.48-3.8-1.06-.88-1.61-1.47-3.5-3.87-2.96-2.45.55-2.83,2.63-3.18,4.66-.17.99-.27,2-.36,2.77Z"/><path class="cls-6" d="m327.56,389.2c-.11,2.12.08,4.13.6,6.1.34,1.27-.16,1.93-1.47,2.03-1.8.14-3.58.55-5.39.11-1.02-.25-1.9-.7-1.41-1.92.89-2.18.59-4.43.52-6.65-.13-4.02.63-8.09-.57-12.07-.29-.97.21-1.71,1.13-1.67,2.27.09,4.82-1.08,6.67,1.28.54.69,1,.23,1.44-.16.71-.63,1.49-1.15,2.42-1.4,1.72-.47,3.19-.03,4.23,1.41,1.04,1.44,1.01,3-.03,4.44-1.09,1.5-2.61,1.69-4.27,1.14-3.08-1.02-3.26-.88-3.61,2.47-.17,1.66-.36,3.3-.26,4.89Z"/><path class="cls-6" d="m377.01,377.26c1.12-.8,1.91-1.79,3.1-2.23,1.84-.69,3.44-.4,4.7,1.13,1.14,1.39,1.25,2.96.21,4.42-1.17,1.63-2.82,1.87-4.65,1.21-2.6-.94-3.68-.35-3.64,2.44.05,3.73-.67,7.51.56,11.2.42,1.25-.2,1.99-1.42,2.13-1.8.2-3.62.23-5.41-.05-.93-.14-1.85-.65-1.48-1.71,1.08-3.05.58-6.17.57-9.25-.01-3.3.59-6.66-.57-9.9-.19-.53.03-.99.5-1.31.84-.59,5.83-.4,6.53.33.39.4.61.95,1.01,1.61Z"/><path class="cls-6" d="m254.38,386.11c.23,2.95-.37,6.28.4,9.56.22.96-.29,1.53-1.24,1.65-1.14.14-2.29.3-3.44.32-3.59.04-3.43-.21-3.3-3.63.22-5.66.75-11.37-.37-17.01-.24-1.23.15-1.86,1.32-1.91,1.58-.07,3.18-.08,4.76,0,1.5.08,1.85,1.18,1.86,2.44.02,2.74,0,5.48,0,8.58Z"/><path class="cls-6" d="m394.41,385.75c.33,2.89-.59,6.46.59,9.93.28.83-.19,1.5-1.05,1.55-1.87.1-3.72.61-5.61.31-1.4-.22-1.91-.85-1.63-2.39,1.08-5.94.99-11.91.02-17.85-.25-1.5.05-2.25,1.62-2.26,6.88-.04,6.01-.56,6.05,5.55.01,1.52,0,3.03,0,5.16Z"/><path class="cls-6" d="m335.24,391.78c-1.53.03-3.19-.67-4.43-2.27-.84-1.09-.74-2.04.52-2.65,2.79-1.35,5.58-2.69,8.43-3.91,1.83-.79,2.82,0,2.87,2.08.11,3.77-3.09,6.9-7.39,6.75Z"/><path class="cls-6" d="m394.82,369.37c-.05,2.31-1.9,4.06-4.23,4-2.21-.06-4.03-1.89-4-4.02.03-2.23,2-4.19,4.16-4.17,2.3.03,4.12,1.91,4.08,4.19Z"/></g><path class="cls-2" d="m144.53,619.31c-6.01,11.05-3.44,25.14,6.72,33.27,10.17,8.13,24.48,7.53,33.93-.77l-40.66-32.5Z"/><path class="cls-8" d="m327.38,510.36c-3.73-12.01,1.57-25.33,13.13-31.3,11.57-5.97,25.49-2.57,33.12,7.43l-46.25,23.87Z"/><path class="cls-5" d="m135.54,583.34c-9.24-8.53-23.54-9.49-33.9-1.62s-13.29,21.9-7.56,33.09l41.46-31.47Z"/><path class="cls-8" d="m542.99,682.77c3.73,12.01-1.57,25.33-13.13,31.3-11.57,5.97-25.49,2.57-33.12-7.43l46.25-23.87Z"/><path class="cls-2" d="m342.41,655.89c-6.01,11.05-3.44,25.14,6.72,33.27,10.17,8.13,24.48,7.53,33.93-.77l-40.66-32.5Z"/><path class="cls-2" d="m93.46,472.74c9.42,8.33,23.74,8.97,33.93.88,10.19-8.09,12.81-22.18,6.83-33.25l-40.76,32.37Z"/><path class="cls-4" d="m412.32,666.75c2.2,12.38,13.01,21.79,26.03,21.79s23.83-9.41,26.03-21.79h-52.05Z"/><path class="cls-4" d="m283.89,643.13c-8.02,9.69-8.2,24.02.22,33.94,8.42,9.93,22.59,12.09,33.45,5.75l-33.67-39.69Z"/><path class="cls-7" d="m292.81,556.74c-7.6,11.37-6.2,26.89,4.01,36.68s25.77,10.56,36.82,2.5l-40.83-39.19Z"/><path class="cls-7" d="m601.86,453.38c-9.86-9.47-25.39-10.81-36.82-2.48-11.43,8.34-14.91,23.52-8.91,35.81l45.73-33.34Z"/><path class="cls-10" d="m152.69,501.56c-14.93-.07-28.22,10.55-31,25.74-2.78,15.2,5.9,29.83,19.9,35.04l11.1-60.78Z"/><path class="cls-1" d="m48.2,437.65c-10.51,6.33-15.29,19.46-10.74,31.31s16.89,18.41,28.93,16.08l-18.19-47.39Z"/><path class="cls-1" d="m581.22,553.74c-9.45-7.82-23.42-8-33.1.21s-11.79,22.03-5.61,32.62l38.71-32.83Z"/><path d="m336.25,736.48c-11.36,6.87-16.51,21.09-11.57,33.91,4.95,12.82,18.32,19.89,31.35,17.35l-19.78-51.26Z"/><path d="m494.58,551.35c12.7,3.87,26.73-1.79,32.97-14.02,6.24-12.24,2.58-26.91-8.01-34.92l-24.96,48.94Z"/><path class="cls-5" d="m403.61,753.32c8.06,9.66,22.11,12.46,33.41,6,11.3-6.46,16.02-19.99,11.78-31.83l-45.19,25.84Z"/><path class="cls-7" d="m112.9,759.21c12.56,5.41,27.56,1.23,35.35-10.58s5.72-27.26-4.21-36.66l-31.15,47.25Z"/><path class="cls-1" d="m227.88,633.8c8.59-8.75,9.95-22.66,2.59-33-7.36-10.34-20.95-13.61-32.03-8.35l29.44,41.35Z"/><path class="cls-4" d="m183.86,527.57c12.49,1.5,24.63-6.11,28.41-18.57,3.78-12.45-2.07-25.53-13.28-31.24l-15.13,49.8Z"/><path class="cls-8" d="m196.82,742.04c10.77-6.5,24.97-4.56,33.54,5.24,8.57,9.8,8.61,24.13.74,33.93l-34.27-39.18Z"/><path d="m241.49,489.82c12.7,3.87,26.73-1.79,32.97-14.02,6.24-12.24,2.58-26.91-8.01-34.92l-24.96,48.94Z"/><path class="cls-10" d="m413.43,601.47c8.53-12.25,7.33-29.22-3.61-40.13s-27.91-12.07-40.14-3.5l43.75,43.64Z"/><path class="cls-4" d="m474.49,501.56c2.3-12.36-4.5-24.98-16.68-29.56-12.18-4.58-25.61.41-32.03,11.23l48.72,18.33Z"/><path class="cls-5" d="m512.15,611.37c-5.71-11.21-18.79-17.06-31.24-13.27-12.45,3.79-20.06,15.93-18.56,28.42l49.8-15.15Z"/><path class="cls-10" d="m196.41,675.86c-2.15,14.78,6.52,29.41,21.19,34.27,14.67,4.86,30.36-1.7,37.46-14.83l-58.65-19.44Z"/></g></svg>