<?xml version="1.0" encoding="UTF-8"?><svg id="Layer_2" xmlns="http://www.w3.org/2000/svg" viewBox="0 0 592 836.49"><defs><style>.cls-1{fill:#f93921;}.cls-2{fill:#fb3a24;}.cls-3{fill:#e3de36;}.cls-4,.cls-5{fill:#fff;}.cls-6{fill:#afcb03;}.cls-7{fill:#177bd1;}.cls-8{fill:none;stroke:#fff;stroke-linecap:round;stroke-miterlimit:10;stroke-width:.5px;}.cls-5{font-family:PPPangramSansRounded-Medium, 'PP Pangram Sans Rounded';font-size:15px;font-weight:500;}</style></defs><g id="Layer_1-2"><path class="cls-1" d="m590.48,514.99c0-13.27-3.23-25.79-8.92-36.82,6.48-7.04,10.45-16.43,10.45-26.75,0-21.82-17.68-39.5-39.5-39.5-.24,0-.48.01-.73.02,6.35-7.01,10.23-16.31,10.23-26.52,0-13.61-6.88-25.6-17.35-32.71,17.62-14.77,28.83-36.93,28.83-61.71,0-28.83-15.16-54.1-37.94-68.32,4.44-9.99,6.94-21.04,6.94-32.68,0-16.9-5.22-32.58-14.12-45.52-1.6-3.97-3.82-7.71-6.65-11.08L423.11,15.74C414.81,5.83,402.24.06,388.94.06L184.47,0c-12.99,0-25.3,5.5-33.62,15.01l-103.31,118.2c-3.03,3.47-5.42,7.37-7.12,11.51-8.79,12.9-13.93,28.48-13.93,45.27,0,9.87,1.78,19.31,5.03,28.05-11.86,14.02-19.03,32.15-19.03,51.95,0,27.45,13.75,51.68,34.73,66.21-8.71,14.2-13.73,30.91-13.73,48.79,0,11.97,2.25,23.41,6.35,33.93-.11,0-.22-.01-.33-.01-21.82,0-39.5,24.85-39.5,55.5,0,23.87,10.73,44.22,25.78,52.06-.51,5.7-.78,11.52-.78,17.44,0,9.17.64,18.11,1.85,26.71,1.21-.69,2.45-1.06,3.7-1.06,7.33,0,21.54,10.74,26.77,31,2.27,8.78,6.62,11.79,10.98,3.84,9.71-17.7,18.94-27.32,25.95-25.26,7.37,2.17,19.07,17.86,19.07,40.42,0,9.19,3.26,12.58,9.4,5.74,14.93-16.62,27.34-24.63,34.08-20.35,6.35,4.03,15.21,21.17,10.51,41.61-1.97,8.57-1.29,12.35,6.29,7.9,15.53-9.12,27.17-11.92,32.09-6.51,5.69,6.24,8.18,26.5-3.39,47.61-4.31,7.87-3.66,12.82,4.92,10.19,20.8-6.37,35.43-6.57,39.36.91,3.66,6.95,2,25.84-11.29,40.9-5.63,6.37-5.87,9.98,2.63,10.22,18.25.5,30.05,4.47,31.9,12.02,1.82,7.46-4.3,26.44-19.52,36.76-5.86,3.97-7.24,5.37-2.57,7.46,0,0,.01,0,.02,0,.02.02.05.03.07.05.73.32,1.59.66,2.61,1.03,9.71,3.51,16.81,7.53,20.64,11.87,14.71,6.08,31.31,9.51,48.88,9.51,45,0,83.66-22.44,100.5-54.52,12.12,7.31,26.32,11.52,41.5,11.52,44.46,0,80.5-36.04,80.5-80.5,0-4.65-.42-9.19-1.17-13.62,24.3-13.86,40.7-39.98,40.7-69.96,0-20.32-7.55-38.87-19.97-53.04,17.39-14.77,28.45-36.78,28.45-61.38ZM283.98,94.99c-16.57,0-30-13.43-30-30s13.43-30,30-30,30,13.43,30,30-13.43,30-30,30Z"/><g id="_7SJO1n.tif"><path class="cls-4" d="m300.7,378.44c0-3.69.02-7.38-.01-11.06,0-.86.05-1.81-.28-2.56-.84-1.96.01-2.57,1.79-2.5,1.98.08,4.07-.51,5.86.93.45.36.95-.05,1.42-.24,6.27-2.69,12.02.21,13.64,6.88,1.29,5.31-.41,11.09-4.03,13.55-2.79,1.89-5.83,2.6-9.06,1.35-1.51-.58-2.02-.16-1.92,1.34.15,2.22-.39,4.48.5,6.65.45,1.09-.19,1.72-1.22,1.76-2.02.08-4.05.06-6.07-.01-.8-.03-1.49-.53-1.22-1.42,1.23-4.05.32-8.19.6-12.28.05-.79,0-1.59,0-2.39Zm7.4-4.76c.1,1.46-.25,3.15.45,4.74.6,1.38,1.4,2.53,3.12,2.61,1.78.08,2.9-.82,3.47-2.39,1.27-3.52,1.2-7.07-.1-10.56-.52-1.41-1.57-2.22-3.16-2.16-1.55.06-2.53.9-3.15,2.26-.78,1.71-.59,3.53-.63,5.51Z"/><path class="cls-4" d="m237.73,363.66c.57-.27.82-.37,1.05-.51,3.82-2.24,7.42-1.25,9.36,2.79,1.91,3.99,2.81,8.35,4.19,12.53.45,1.37.78,2.77,1.67,3.97.83,1.12.45,1.94-.92,2.13-1.36.19-2.73.34-4.1.32-3.09-.04-3.26-.26-3.33-3.39,0-.36-.06-.73-.16-1.07-1.19-3.87-2.38-7.74-3.62-11.59-.32-1-.93-1.92-2.13-1.84-1.35.08-1.87,1.2-1.87,2.3-.02,4.39-.72,8.81.45,13.14.33,1.23.09,1.98-1.22,2.23-1.94.37-3.88.37-5.82,0-1.22-.23-1.59-.96-1.12-2.05.54-1.24.51-2.54.51-3.84,0-7.38,0-14.75,0-22.13,0-1.23.06-2.46-.47-3.62-.22-.47-.38-1.1-.02-1.45,1.74-1.74,3.95-.8,5.96-.85,1.46-.03,1.61,1.18,1.6,2.34,0,3.44,0,6.88,0,10.58Z"/><path class="cls-4" d="m192.64,384.92c-.51,0-1.01.02-1.52,0-2.68-.12-2.79-.55-2.44-3.11.63-4.59.23-9.23.2-13.86,0-1.04-.85-1.22-1.68-1.31-1.46-.16-2.19-.92-2.14-2.44.06-1.56,1.02-1.93,2.33-1.91,1.45.02,1.52-.98,1.62-2.05.36-3.8,1.48-7.2,4.85-9.5,4.56-3.13,12.01-2.13,15.39,2.17,1.23,1.57,1.72,3.34.92,5.28-.64,1.55-1.87,2.36-3.53,2.45-2.97.17-4.86-2.06-4.04-5.14.49-1.84-.19-2.19-1.72-2.23-2.43-.06-3.72,1.03-4.52,3.8-.31,1.07-.25,2.14-.32,3.22-.1,1.51.56,2.11,2.04,2.02,1.4-.08,2.65.09,2.7,1.97.05,1.88-1.13,2.39-2.65,2.37-1.62-.01-2.13.72-2.1,2.26.07,3.61.01,7.23.04,10.85,0,.64.08,1.3.25,1.92.75,2.7.43,3.17-2.37,3.25-.43.01-.87,0-1.3,0Z"/><path class="cls-4" d="m383.66,362.22c4.24.17,7.45,2.07,9.56,5.75.93,1.61.63,2.83-1.22,3.64-3.11,1.37-6.15,2.89-9.25,4.29-1.56.7-1.66,1.55-.65,2.83,2.43,3.09,5.51,2.86,7.27-.61.75-1.48,1.88-2.39,3.48-1.61,1.61.79,1.59,2.32.86,3.75-1.79,3.49-5,4.59-8.62,4.9-4.79.42-9.69-2.47-11.6-6.82-2.06-4.71-1.04-10.13,2.58-13.35,2.14-1.9,4.68-2.82,7.58-2.76Zm-4.72,8.19c.03,2.21.61,2.59,2.62,1.68.79-.36,1.6-.69,2.33-1.14.76-.46,2.12-.43,2.12-1.56,0-1.21-1.04-2-2.06-2.61-1.06-.64-2.22-.75-3.29-.11-1.38.83-1.77,2.2-1.72,3.73Z"/><path class="cls-4" d="m264.62,385.04c-5.88,0-10.51-3.87-11.32-9.72-.86-6.16,2.27-11.22,7.86-12.75,4.79-1.31,10.05.85,12.53,5.13,1.28,2.21,1.05,2.93-1.26,3.99-3.02,1.39-6.01,2.85-9.07,4.16-1.72.74-1.72,1.59-.67,2.93,2.38,3.01,5.4,2.79,7.14-.58.89-1.73,2.37-2.46,3.65-1.67,1.66,1.03,1.51,2.61.7,4-2.04,3.5-5.36,4.62-9.56,4.52Zm-5.23-14.74c.02,2.55.47,2.84,2.71,1.79,1.11-.52,2.22-1.03,3.35-1.51,1.27-.54,1.35-1.29.6-2.36-1.06-1.52-2.45-2.3-4.26-1.8-1.9.52-2.43,2.07-2.39,3.88Z"/><path class="cls-4" d="m220.7,385.4c-2.74-.05-4.73-.65-6.55-1.79-1.02-.64-1.81-1.5-2.05-2.69-.3-1.5-.28-3.05,1.43-3.65,1.69-.6,3.2-.12,3.9,1.71.55,1.44,1.15,2.7,3.03,2.47.74-.09,1.48-.23,1.76-1.03.28-.79-.09-1.46-.71-1.9-1.12-.79-2.31-1.49-3.48-2.2-.74-.45-1.53-.84-2.24-1.33-3.37-2.33-4.43-4.69-3.57-7.85.78-2.88,3.42-4.88,7.05-5.17,2.92-.24,5.62.42,7.79,2.55,1.08,1.06,1.43,2.34.98,3.78-.31,1.01-1.09,1.49-2.13,1.54-1.62.08-2.56-.79-3.11-2.21-.29-.76-.67-1.46-1.46-1.81-1.03-.46-2.04-.38-2.77.51-.79.96-.46,1.92.36,2.7,1.12,1.06,2.51,1.69,3.86,2.4,1.02.54,2.04,1.09,3.01,1.73,2.07,1.37,3.35,3.22,3.05,5.81-.34,2.87-2.01,4.77-4.69,5.7-1.28.45-2.68.57-3.46.73Z"/><path class="cls-4" d="m359.46,373.43c.14,1.9.24,3.57.84,5.14.58,1.5,1.63,2.59,3.31,2.78,1.71.19,2.66-.85,3.28-2.3.53-1.23,1.36-2.04,2.8-1.97.94.04,1.74.37,2.09,1.27.54,1.39.3,2.67-.69,3.83-3.61,4.24-11.61,4.16-15.8-.17-3.82-3.95-4.32-11.43-1.03-15.63,3.49-4.46,9.77-5.76,14.64-3.01,1.36.76,2.53,1.75,2.95,3.31.35,1.33.31,2.72-1.19,3.32-1.44.58-2.96.48-3.8-1.06-.88-1.61-1.47-3.5-3.87-2.96-2.45.55-2.83,2.63-3.18,4.66-.17.99-.27,2-.36,2.77Z"/><path class="cls-4" d="m283.42,376.47c-.11,2.12.08,4.13.6,6.1.34,1.27-.16,1.93-1.47,2.03-1.8.14-3.58.55-5.39.11-1.02-.25-1.9-.7-1.41-1.92.89-2.18.59-4.43.52-6.65-.13-4.02.63-8.09-.57-12.07-.29-.97.21-1.71,1.13-1.67,2.27.09,4.82-1.08,6.67,1.28.54.69,1,.23,1.44-.16.71-.63,1.49-1.15,2.42-1.4,1.72-.47,3.19-.03,4.23,1.41,1.04,1.44,1.01,3-.03,4.44-1.09,1.5-2.61,1.69-4.27,1.14-3.08-1.02-3.26-.88-3.61,2.47-.17,1.66-.36,3.3-.26,4.89Z"/><path class="cls-4" d="m332.87,364.53c1.12-.8,1.91-1.79,3.1-2.23,1.84-.69,3.44-.4,4.7,1.13,1.14,1.39,1.25,2.96.21,4.42-1.17,1.63-2.82,1.87-4.65,1.21-2.6-.94-3.68-.35-3.64,2.44.05,3.73-.67,7.51.56,11.2.42,1.25-.2,1.99-1.42,2.13-1.8.2-3.62.23-5.41-.05-.93-.14-1.85-.65-1.48-1.71,1.08-3.05.58-6.17.57-9.25-.01-3.3.59-6.66-.57-9.9-.19-.53.03-.99.5-1.31.84-.59,5.83-.4,6.53.33.39.4.61.95,1.01,1.61Z"/><path class="cls-4" d="m210.24,373.38c.23,2.95-.37,6.28.4,9.56.22.96-.29,1.53-1.24,1.65-1.14.14-2.29.3-3.44.32-3.59.04-3.43-.21-3.3-3.63.22-5.66.75-11.37-.37-17.01-.24-1.23.15-1.86,1.32-1.91,1.58-.07,3.18-.08,4.76,0,1.5.08,1.85,1.18,1.86,2.44.02,2.74,0,5.48,0,8.58Z"/><path class="cls-4" d="m350.27,373.03c.33,2.89-.59,6.46.59,9.93.28.83-.19,1.5-1.05,1.55-1.87.1-3.72.61-5.61.31-1.4-.22-1.91-.85-1.63-2.39,1.08-5.94.99-11.91.02-17.85-.25-1.5.05-2.25,1.62-2.26,6.88-.04,6.01-.56,6.05,5.55.01,1.52,0,3.03,0,5.16Z"/><path class="cls-4" d="m291.1,379.05c-1.53.03-3.19-.67-4.43-2.27-.84-1.09-.74-2.04.52-2.65,2.79-1.35,5.58-2.69,8.43-3.91,1.83-.79,2.82,0,2.87,2.08.11,3.77-3.09,6.9-7.39,6.75Z"/><path class="cls-4" d="m350.68,356.64c-.05,2.31-1.9,4.06-4.23,4-2.21-.06-4.03-1.89-4-4.02.03-2.23,2-4.19,4.16-4.17,2.3.03,4.12,1.91,4.08,4.19Z"/></g><path class="cls-7" d="m590.48,514.99c0-13.27-3.23-25.79-8.92-36.82,6.48-7.04,10.45-16.43,10.45-26.75,0-19.85-14.64-36.27-33.71-39.07H37.56c.68,2.23,1.42,4.43,2.26,6.58-.11,0-.22-.01-.33-.01-21.82,0-39.5,24.85-39.5,55.5,0,23.87,10.73,44.22,25.78,52.06-.51,5.7-.78,11.52-.78,17.44,0,9.06.63,17.89,1.81,26.41,1.11-.58,2.25-.89,3.39-.89,7.33,0,21.54,10.74,26.77,31,2.27,8.78,6.62,11.79,10.98,3.84,9.71-17.7,18.94-27.32,25.95-25.26,7.37,2.17,19.07,17.86,19.07,40.42,0,9.19,3.26,12.58,9.4,5.74,14.93-16.62,27.34-24.63,34.08-20.35,6.35,4.03,15.21,21.17,10.51,41.61-1.97,8.57-1.29,12.35,6.29,7.9,15.53-9.12,27.17-11.92,32.09-6.51,5.69,6.24,8.18,26.5-3.39,47.61-4.31,7.87-3.66,12.82,4.92,10.19,20.8-6.37,35.43-6.57,39.36.91,3.66,6.95,2,25.84-11.29,40.9-5.63,6.37-5.87,9.98,2.63,10.22,18.25.5,30.05,4.47,31.9,12.02,1.82,7.46-4.3,26.44-19.52,36.76-6,4.06-7.31,5.43-2.24,7.61.01,0,.03,0,.04-.01.03.02.07.04.1.07.65.27,1.38.56,2.23.87,9.7,3.51,16.8,7.52,20.63,11.86,14.8,6.17,31.52,9.67,49.24,9.67,45,0,83.66-22.44,100.5-54.52,12.12,7.31,26.32,11.52,41.5,11.52,44.46,0,80.5-36.04,80.5-80.5,0-4.65-.42-9.19-1.17-13.62,24.3-13.86,40.7-39.98,40.7-69.96,0-20.32-7.55-38.87-19.97-53.04,17.39-14.77,28.45-36.78,28.45-61.38Z"/><path class="cls-2" d="m84.9,468.8c-5.33,9.8-3.05,22.3,5.96,29.5,9.02,7.21,21.71,6.68,30.09-.68l-36.06-28.82Z"/><path class="cls-6" d="m230.6,599.47c-3.81-12.28,1.6-25.89,13.42-31.99,11.82-6.1,26.05-2.63,33.85,7.59l-47.28,24.4Z"/><path class="cls-3" d="m490.98,522.74c-9.85-9.1-25.08-10.11-36.13-1.73s-14.16,23.34-8.05,35.27l44.18-33.54Z"/><path class="cls-6" d="m471.74,695.79c3.87,12.48-1.63,26.32-13.65,32.53-12.02,6.2-26.48,2.67-34.42-7.72l48.06-24.81Z"/><path class="cls-2" d="m306.33,667.49c-7.06,12.96-4.04,29.51,7.89,39.05,11.93,9.54,28.74,8.84,39.83-.91l-47.72-38.14Z"/><path class="cls-2" d="m338.82,509.41c7.25,6.41,18.27,6.91,26.11.68,7.84-6.23,9.86-17.07,5.26-25.58l-31.36,24.9Z"/><text class="cls-5" transform="translate(70.23 588.73) rotate(-50.37)"><tspan x="0" y="0">b</tspan></text><text class="cls-5" transform="translate(76.44 581.63) rotate(-42.5)"><tspan x="0" y="0">i</tspan></text><text class="cls-5" transform="translate(78.57 579.6) rotate(-36.9)"><tspan x="0" y="0">t</tspan></text><text class="cls-5" transform="translate(81.41 576.85) rotate(-24.3)"><tspan x="0" y="0">e</tspan></text><text class="cls-5" transform="translate(88.7 573.58) rotate(-6.31)"><tspan x="0" y="0"> </tspan></text><text class="cls-5" transform="translate(90.94 571.2) rotate(26.34)"><tspan x="0" y="0">m</tspan></text><text class="cls-5" transform="translate(101.43 577.14) rotate(45.88)"><tspan x="0" y="0">e</tspan></text><text class="cls-5" transform="translate(132.65 605.9) rotate(-33.56)"><tspan x="0" y="0">B</tspan></text><text class="cls-5" transform="translate(140.09 600.94) rotate(-21.57)"><tspan x="0" y="0">P</tspan></text><text class="cls-5" transform="translate(146.69 597.76) rotate(-.48)"><tspan x="0" y="0">A</tspan></text><text class="cls-5" transform="translate(155.66 598.06) rotate(15.57)"><tspan x="0" y="0"> </tspan></text><text class="cls-5" transform="translate(158.55 598.7) rotate(26.72)"><tspan x="0" y="0">f</tspan></text><text class="cls-5" transform="translate(162.71 600.71) rotate(41.06)"><tspan x="0" y="0">r</tspan></text><text class="cls-5" transform="translate(166.11 603.18) rotate(57.79)"><tspan x="0" y="0">e</tspan></text><text class="cls-5" transform="translate(170.35 610.23) rotate(71.61)"><tspan x="0" y="0">e</tspan></text><text class="cls-5" transform="translate(173 618.38) rotate(79.08)"><tspan x="0" y="0">!</tspan></text><path class="cls-8" d="m112.23,581.15s7.69-2.42,7.82,2.23c.12,4.66-5.22,8.05-10.1,8.57"/><line class="cls-8" x1="110.02" y1="591.96" x2="111.26" y2="592.97"/><line class="cls-8" x1="111.22" y1="590.91" x2="110.01" y2="591.94"/><path class="cls-3" d="m233.29,480.12c2.25-10.98-3.61-22.32-14.39-26.6-10.78-4.28-22.83-.04-28.72,9.49l43.11,17.12Z"/></g></svg>