<svg xmlns="http://www.w3.org/2000/svg" viewBox="0 0 733.51 427.65"><defs><style>.cls-1{fill:#fedbfe;}.cls-2{fill:#fdc5f4;}.cls-3{fill:#fed0fc;}.cls-4{fill:#fed8fe;}.cls-5{fill:#f7c7e7;}.cls-6{fill:#876872;}.cls-7{fill:#e1b7d8;}.cls-8{fill:#9c7c87;}.cls-9{fill:#947581;}.cls-10{fill:#efc0e1;}.cls-11{fill:#e2b9dc;}.cls-12{fill:#7c5c68;}.cls-13{fill:#efbbde;}.cls-14{fill:#856671;}.cls-15{fill:#fe9efa;}.cls-16{fill:#6b4d57;}.cls-17{fill:#9c7b88;}.cls-18{fill:#5b404c;}.cls-19{fill:#7c5964;}.cls-20{fill:#fdc1df;}.cls-21{fill:#fdb9dc;}.cls-22{fill:#fefefe;}.cls-23{fill:#fdacfc;}.cls-24{fill:#e1a9c5;}.cls-25{fill:#fcbbd6;}.cls-26{fill:#d7cedb;}.cls-27{fill:#fec3de;}.cls-28{fill:#e2dae0;}.cls-29{fill:#eae1e6;}.cls-30{fill:#dbc9d1;}.cls-31{fill:#e2dade;}.cls-32{fill:#dbcdd4;}.cls-33{fill:#f3f4f5;}</style></defs><g id="Layer_2" data-name="Layer 2"><path class="cls-1" d="M311.58,235a14.79,14.79,0,0,1,.92-5.42,4.69,4.69,0,0,0,.31-3.24,2.59,2.59,0,0,1,0-1.76,5.33,5.33,0,0,0,.15-2.83,2.25,2.25,0,0,1,1.93-2.83A2.59,2.59,0,0,0,317,217.2a1.77,1.77,0,0,1,1.58-1.2c1.71-.36,3.58-.68,4.75-2.57a.8.8,0,0,1,.47-.37c2.85-.5,5-3,7.81-3.72a9.21,9.21,0,0,1,3.76-.46,14.61,14.61,0,0,0,6.38.13c.9-.25,1.75.24,2.65.14,1.32-.15,2.5-1,3.84-.94.31,0,.64-.25.93-.18,1.77.39,2.93-.88,3.65-2.32a16.42,16.42,0,0,1,4.09-5.27c1.63-1.4,2.63-3.71,4.71-4.48a.92.92,0,0,0,.61-.8c.1-.88.56-1.09,1.23-1a1.48,1.48,0,0,0,1.42-.49c1.42-1.82,3.35-2.62,5.2-3.56.41-.21.95-.44,1.12-.84.72-1.69,2.22-1.88,3.43-2.58s2.7-1.31,2.84-3.42c0-.57.54-.67,1.08-.46.78.3.35-.41.37-.74.7-.44,1.08.14,1.43.66,1,1.51,2,1.38,2.91-.14a3.92,3.92,0,0,1,5.63.32c.35.7.83.33,1.13.05.9-.87,1.81-1.27,2.89-.49a.94.94,0,0,0,.92,0,3,3,0,0,1,3.51.92c.39.39,1,1,1.23-.23,1.15.47.77,2.25,1.77,2.83a1.18,1.18,0,0,0,1-.3c.34-.26.63-.62,1.08-.6a.82.82,0,0,1,.45.66c0,1.07-.31,2.19.46,3.07.54.57,1.3.35,1.89.72s1.54.56,2.15,1.22c1.64.24,2.86,1.48,4.21,2.42-2.89,1.64-5.75.64-8.6-.07-.68-.17-1.33-.53-2-.68-1.16-.26-1.67-1-1.84-2.45-.38-3.22-2-4-4.54-2.58-2.16,1.26-4.35,2.62-6.89,1.23-.7-.38-1.35.27-1.37,1.1a5.09,5.09,0,0,1-1.75,3.36c-2.59,2.88-5,6-8.76,7-2.13.56-3.95,2.16-6.06,2.86a1,1,0,0,0-.65.46c-1.15,2.5-3.1,4-5.06,5.43a2.49,2.49,0,0,0-.77,1.27A16.81,16.81,0,0,1,360,215.8c-.73.91-1.4,2-.49,3.15s1.94.48,2.84-.39c1.44-1.38,3.17-2.4,4.47-3.88,1.5-1.7,3.52-3,4.09-5.72.43-2.08,1.27-2.36,2.8-1.35.5.33.69,0,.95-.29a7.52,7.52,0,0,0,1.19-1.77,5,5,0,0,1,3.2-2.71c1.31-.29,2.34-1.27,3.51-1.71,2.75-1,4.22-4,6.72-5.42,1.32-.73,2.49-.84,3.59.2a31.26,31.26,0,0,0,4.7,3.42,9.2,9.2,0,0,1,2.47,2.75,3.48,3.48,0,0,1,.12,3.79c-1.34,2.13-2.47,4.39-3.7,6.59-.47.85-1.13,2-2.16,1.2s-.87-2.14-.42-3.25,1.5-2.06.37-3.35a3.21,3.21,0,0,0-4.35-.62,6.36,6.36,0,0,1-2.3,1.14,5.17,5.17,0,0,0-3.08,1.75c-1.72,2.16-4.11,3.46-5.62,5.76-1.21,1.85-1.77,4.28-3.6,5.62-.2,3.26-2.35,5.06-4,7.19-1.51,1.93-2.17,5.06-1.13,7.23a4.36,4.36,0,0,1-.25,4.57,9.19,9.19,0,0,0-1.58,4.75,1.73,1.73,0,0,1-.95,1.76,4.34,4.34,0,0,0-2.26,5.41,12.81,12.81,0,0,1,.52,3,4.88,4.88,0,0,0,2.64,4.53c.47.24,1,.49,1.43,0s.28-.95.16-1.47a3.87,3.87,0,0,0-.24-.84c-1.31-2.66-1.21-5.74-1.81-8.6-.21-1,0-2,1.05-2.28s1.16-1.18,1.42-2.13c.77-2.84,1.14-5.82,2.35-8.52a8.78,8.78,0,0,1,2.42-3.68c1.07-.82,1.27-2.43,1.61-3.73.88-3.41,3.17-5.61,5-8.13,1.19-1.62,2.64-3.07,3.94-4.63a10.6,10.6,0,0,1,5.59-3.34c1.07-.28,1.55.3,2.2,1.43,1.47,2.56,2.55,5.67,5.32,6.89,1.29.33,2.22,1.42,3.32,2.12,5.1,3.28,8.47,9.2,13.81,12.09a14.65,14.65,0,0,1,1.42,1.07c1.64,1.23,1.57,2.39-.15,3.56a4.07,4.07,0,0,1-3.85.3,1.36,1.36,0,0,1-.57,0c-5.29-2.51-10.8-4.62-14.42-10.3a7.41,7.41,0,0,0-2.94-2.76,4.14,4.14,0,0,1-2.52-3.36c-.16-1.31-1.16-1.69-2.07-2-.76-.29-1.21.3-1.54,1-.45,1-.82,2.22-.11,2.93,1.49,1.5,1.55,3.68,2.29,5.51a49.42,49.42,0,0,0,5.91,11.16c2.71,3.63,6.58,5.43,10.69,6.44,1.38.34,3,0,4.11,1.48.18,1.26-.61,1.35-1.32,1.38-1.73.1-3.44.74-5.12.8-1.85.06-4,.1-5.34-2-.19-.29-.2,0-.23,0-1.26.77-2.22-.08-3.22-.72-3.28-2.12-6.56-4.24-9.2-7.43a15.71,15.71,0,0,1-3.37-6.12,2.46,2.46,0,0,0-1.47-1.59c-.9-.5-2-.77-2.38-2-.08-.26,0-.54-.38-.24-.75.57-1.68.9-2,2s.64,1.28,1.15,1.73c.88.77,1,2,1.52,3.06,1.54,3.16,4.21,4.66,6.68,6.45a10.33,10.33,0,0,1,2.16,2.43c2,2.7,4.21,5.07,7.39,5.76.25.05.58,0,.73.19,2.05,2.45,5.08,2.19,7.48,3.67A12.58,12.58,0,0,1,408,259a1.37,1.37,0,0,1,.43,1.57,1.06,1.06,0,0,1-1.33.63c-1.24-.37-2.41.28-3.61.34s-1.76,1-1.33,2.26a9.58,9.58,0,0,1-.15,5.49c-.37,1.66-1.36,2.3-2.58,1.88-1.39-.49-1.3-1.65-.9-2.87a35.7,35.7,0,0,0,1.14-7.49c.14-1.35,0-2.85-1.36-3.27a2.82,2.82,0,0,0-3.45,2.4c-.47,2.78-.72,5.61-1.24,8.39-.37,2,1.87,4.95,3.88,5.41.91.2,1.61.34,1.61,1.66,0,.9.49.91,1.06.59s.91-.55,1.36-.86a22.38,22.38,0,0,0,1.94-1.84c.63-.54,1.51-.27,2.06-.81,0-.41-.08-.6-.24-.73-.56-.45-1.43-.74-1.17-1.78a3.81,3.81,0,0,1,2-2.58c.8-.37,1.33.24,1.58,1.13a13.36,13.36,0,0,1,.14,2c.3,2.56.08,5.28,1.76,7.38a1,1,0,0,1,.1,1.05c-.19-.06-.45,0-.54-.18-1.89-2.77-4.58-1.57-7-1.82a2.06,2.06,0,0,0-1.68,1,2.66,2.66,0,0,1-2.61,1c-2.24-.11-4.29-.6-5.64-3a2.75,2.75,0,0,0-2.63-1.44c-2.3,0-4.61-.15-6.91-.21a7.11,7.11,0,0,0-1.53.09c-2.58.46-4.47-.64-5.57-3.28-.77-1.87-1.06-1.92-3-1.77a37,37,0,0,1-5.47.13,16.76,16.76,0,0,1-3.38-.16c-.71-.19-1.31.81-1.94,1.31a6.91,6.91,0,0,1-7.34,1.23c-4.16-1.63-6.1-5.43-7.94-9.53a4,4,0,0,1-.5-2.09,1.71,1.71,0,0,0-.37-1.44,4.17,4.17,0,0,1-.94-3.27,11.29,11.29,0,0,0-1.06-4.9,2,2,0,0,1-.27-1.26,4.43,4.43,0,0,0-.38-3.57c-.21-.36,0-.7,0-1.06.11-1.86.5-3.76-.33-5.53a.34.34,0,0,1,0-.22c.73-2.46.23-5,.42-7.48.05-.68.07-1.11-.43-1.5a11.06,11.06,0,0,0-2.19-1.76c-2.33-1-4.71-1.89-7.26-1.5a15.42,15.42,0,0,1-2.63.16c-1.37,0-2.37,1.31-3.49,2.13a15.29,15.29,0,0,0-4.29,5.64,5.88,5.88,0,0,0-.57,1.88,11,11,0,0,1-1,2.84c-.81,1.9-2.24,3.46-2.51,5.66s-1.5,3.59-2.27,5.34a43.52,43.52,0,0,0-1.6,4.93c-.85,2.74-2.35,4.93-3.63,7.32-.23.43-.67.75-.66,1.32a1.93,1.93,0,0,1-1.76,2.21c-.83.12-1.1.57-1.1,1.45a1.38,1.38,0,0,1-.55,1.14c-2,1.33-3.72,3.22-6,3.82a1.4,1.4,0,0,1-.94.05c-1.35-.76-2.57-.33-3.81.4a2.64,2.64,0,0,1-1.69.34,2.48,2.48,0,0,0-2,.69,4.16,4.16,0,0,1-5.45-.55,4.44,4.44,0,0,0-3.78-1.59c-1.17,0-2.09-.88-3.14-1.32a18.12,18.12,0,0,0-2.36-.86,3.77,3.77,0,0,0-4.12,1.09c-1.18,1.29-1.38,1.15-1.69-.66a4,4,0,0,0-.2-.85c-.19-.56-.38-1.18-1-1.21a1.41,1.41,0,0,0-1.42.93,27,27,0,0,0-2.22,7.59c0,.22.06.53,0,.66-1.11,1.49-.36,3-.12,4.53-1.32.95-.84,2.69-1.32,4a6,6,0,0,1-1.73-5c.37-.26.86-.29,1.13-.75a1.43,1.43,0,0,0,.22-1.24c-.24-.6-.64-.12-1-.05a.6.6,0,0,1-.68-.22c-.31-.27-.27-.58-.16-1,.55-2,1.06-4,1.59-5.94.06-.21.1-.49.24-.59,1.81-1.32,1.74-3.82,2.67-5.69a19.77,19.77,0,0,1,.88-2,13.2,13.2,0,0,0,1.53-2.82c.57-1.55,2-2.05,3-3a5.65,5.65,0,0,0,1.42-1.46c.6-1.1,1.35-1.77,2.56-1.31a1.07,1.07,0,0,0,1.22-.46,2.51,2.51,0,0,1,1.93-.79c.93-.11,1.87-.08,2.81-.21a3,3,0,0,1,3.35,1.45,1.51,1.51,0,0,0,1.26.89c.49,0,.8.39,1.13.74,2.17,2.26,3.74,2.35,6.3.57,2-1.39,3.63-3.31,5.51-4.86,1.11-.91,2.17-1.86,3.59-1.84.57,0,.76-.84,1.34-.74.58.93,0,1.69-.32,2.46a15,15,0,0,0-.76,1.56c-.15.49-.41,1,0,1.47s.83,0,1.19-.27c1.89-1.56,4-3,3.8-6.24a1.13,1.13,0,0,1,.23-.84c1.9-1.91,1.67-4.95,2.89-7.21a2,2,0,0,0,.18-1.51,4.82,4.82,0,0,1,.59-4c.28-.45.75-1.09.21-1.58s-.9.18-1.27.6S312.27,235.12,311.58,235Z"/><path class="cls-2" d="M413.08,238.61c1.51.68,2.95.82,4.32-.52.87-.86.94-1.41,0-1.94a6.67,6.67,0,0,1-1.85-1.5c1.21-.9,2.38-.35,3.42.3a5.74,5.74,0,0,0,2.69.9c3.3.3,5.09-2.21,4.23-6.24-.44.8-.48,2-1.5,2a2.27,2.27,0,0,1-2-1.81,1.46,1.46,0,0,0-1.72-1.24c-1.68.11-3.25-.63-4.83-1.14-.71-.23-1.71-.68-.92-2,1.6-.53,3.22-.17,4.82-.18a3.11,3.11,0,0,0,3.5.8c-1.15-1-2.38.61-3.17-.66-.06-1.68.66-2.47,2.07-2.55,1.17-.06,1.71-.62,1.5-2.16s.29-3.11.46-4.66c.3-2.73,1.43-5.25,1.36-8.11,0-1.42,1.05-2.77,2-3.76s2.12-.56,3,.31a3.59,3.59,0,0,0,2.89,1.42,1.31,1.31,0,0,1,1.18.64c1.65,2.38,4.2,3.35,6.11,5.3a18.19,18.19,0,0,1,3.43,4.39,3.3,3.3,0,0,0,.72,1c2.7,2.19,4.63,5.39,7.33,7.58-1,1.88-1.72,2.06-3.11.54-2.26-2.48-5.62-3.29-7.31-6.72a30.5,30.5,0,0,1,.2,4,5.65,5.65,0,0,0,.17,1.79,2.68,2.68,0,0,1-.61,3.18c-.83.81-1.43,1.92-2.26,2.75a1.63,1.63,0,0,0-.44,2.13L437.06,235c-2.76,3-.11,5.72.28,8.53.11.77.64,1.46.43,2.33s-.61,1.95-1.54,2.1-1-1-1.3-1.65c-.75-1.46-.58-3.18-.89-4.77-.26-1.33-.86-1.94-1.88-2.12-1.27-.22-1.34,1.1-1.72,2-.69,1.57-.62,3.35-1.06,5-.09.36,0,.81-.19,1.09-1.46,2.36-1.05,4.57,0,7,.47,1.11.86,1.29,1.71,1l.54-.23c1-.43,1.95-1.06,2.86,0a2.05,2.05,0,0,1,0,2.3,2.89,2.89,0,0,1-2.93,2.06c-.77-.05-1.39-.79-2.55-.44,2.43.92,1.94,3.35,2.06,5.1.14,2.16-1.53,3.85-2.84,5.1a65.27,65.27,0,0,1-5.83,5.1,4.82,4.82,0,0,1-.76,0c-1.65-.31-2.79.09-3.65,2.12-.75,1.76-2.33,2.91-3.66,4.17a1.48,1.48,0,0,1-1.77.24,7.73,7.73,0,0,1-2.67-2c-.17-.6-.63-.94-.91-1.42a6,6,0,0,1-1.14-3.59c.09-1.66-.43-3.35-.3-5.09a1.06,1.06,0,0,0-.72-1.17c-.47-.14-.67.28-.92.63s-.45.54-.67.82c-.94,1.18-.95,1.2.46,1.82a1.71,1.71,0,0,1,.87,1.79c-.05.87-.75.67-1.22.62a2.14,2.14,0,0,0-2.16,1.13c-.85,1.31-2.24,1.71-3.38,2.52-.73.51-1.28-.14-1.1-1.22a2.29,2.29,0,0,0,.05-1.35c-2.34.27-3.71-1.36-4.8-3.46a4.63,4.63,0,0,1-.35-4.3c.69-1.74.62-3.92.76-5.92a4.74,4.74,0,0,1,1.1-3c.42-.46.81-1,1.5-.6a.79.79,0,0,0,.55,0c.64-.13,1.45-1.18,1.87-.22.5,1.13,1.37,2.23,1.09,3.68-.54,2.83-.51,5.78-1.44,8.53-.15.46-.48,1,.19,1.28s1.14.81,1.79.2c.2-.19.5-.41.52-.64.15-1.86,1.36-3.66.36-5.59a3.51,3.51,0,0,1-.2-2.17c.1-.72.66-1.53,1.09-1.36,1.58.64,3.08-1.26,4.63-.11a.64.64,0,0,0,1-.42c.13-.4-.18-.67-.42-.91a11.67,11.67,0,0,0-7.18-3.71,2.48,2.48,0,0,1-1.93-1.23c-.65-1-1.44-1.49-2.5-1-.61.26-.94-.05-1.34-.48a27.29,27.29,0,0,0-4.33-3.61,3.2,3.2,0,0,1-1.35-1.8,3.44,3.44,0,0,0-1.86-2.33c-1.35-.78-2.42-2.09-3.93-2.63a3.63,3.63,0,0,1-1.57-1.89c-.69-1.56-2.22-2.48-2.31-4.5,0-.49-.53-.87-1.13-1-1-.19-1.28-.85-.89-1.83s.85-2.25,2.13-2.3c.45,0,.63-.42,1-1.33,0,1.53.36,2.21,1.21,2.69a11.92,11.92,0,0,0,2.09,1c.47.15.89.29.86,1-.09,2.33,1.37,3.77,2.37,5.4a10.12,10.12,0,0,0,3.22,3.38,3.16,3.16,0,0,1,1.25,1.33,1.4,1.4,0,0,0,.68.75c2.21.8,4,2.55,6,3.79a1.56,1.56,0,0,0,2.13-.32c.27-.28.6-.78.92-.2.23.41-.2.62-.45.83s-.3.27-.21.72c1.37-.28,2.61.37,3.87.95a1.11,1.11,0,0,0,1.1.09,9.18,9.18,0,0,1,5-1c.58,0,1.2.11,1.33-.85.65-.69,1.3-.32,1.95,0a9.34,9.34,0,0,0,3.7.95c1.68,0,3.93-1.91,4.38-3.74a3,3,0,0,0-2.48-3.49,13,13,0,0,1-5.31-2.3C413.54,240.33,412.53,240,413.08,238.61Z"/><path class="cls-3" d="M420.1,225.37c-1.08.69-2.22.3-3.33.33-.69,0-1.38,0-2.07-.07a4.78,4.78,0,0,1-3-1.08,23.88,23.88,0,0,0-5.26-2.5c-2.45-.78-3.93-3.06-5.34-5.35.27-.31.47-.75.92-.78.91,0,1.47.78,2.11,1.39,1.38,1.33,2.47.95,3-1.05a19.1,19.1,0,0,0,.51-2.63,22.64,22.64,0,0,1,1.86-7.28,4.43,4.43,0,0,0,.29-3c-.34-1.5-1.39-1.79-2.5-2s-1.6.48-2.07,1.51c-1.16,2.5-1.23,5.31-1.89,8-.14.56-.05,1.22-.63,1.52-.5.09-.71-1-1.27-.46a1.71,1.71,0,0,0-.16,1.65c.27,1.05.62,2.09-.08,3.12a.71.71,0,0,1-.29.28c-2.67.91-2.67.91-2.19,3.72-1.47.21-2.17-1-2.88-2.14s-1.29-2.74-2.59-3.46c-.49-.26-.47-.85-.42-1.37.09-1.14-.46-1.6-1.28-1.33-2,.68-4,1.34-5.57,3.23-1.32,1.6-2.39,3.54-4.13,4.66a3.07,3.07,0,0,0-1,1.37,5.41,5.41,0,0,1-2.08,2.85,2.15,2.15,0,0,0-.78,1.24c-.48,2-1.68,3.65-1.74,5.78a.82.82,0,0,1-.77.84,1.67,1.67,0,0,0-1.28.84,23.83,23.83,0,0,0-2.34,6.25c-.13,1.58-1,2.9-1.13,4.48,0,.37-.21.73-.21,1.09,0,1.1-.34,1.58-1.36,1.6s-1.41.81-1,1.81c.6,1.3,1.15,2.47.2,3.87a.71.71,0,0,0,.13.82c1.51,1.29,1.19,3.51,1.91,5.2.23.54.39,1.17-.22,1.57s-1.07.78-1.78.36c-2.15-1.28-3.66-2.94-3.33-6.12.12-1.2-.6-2.25-.89-3.38-.18-.71-.31-1.26.27-1.78a3.33,3.33,0,0,0,.81-2c.22-1.32.74-1.65,1.74-1.16a.48.48,0,0,0,.57-.12,2.42,2.42,0,0,0,.2-1.47,7,7,0,0,1,1.17-4c.25-.44.49-.88.76-1.3a2.74,2.74,0,0,0-.12-3.44,1.86,1.86,0,0,1-.38-2.19,1.51,1.51,0,0,0,.11-.43c.19-1.42-1.17-3.19.46-4.23,1.21-.78,1.65-2.28,2.72-3.12a6.34,6.34,0,0,0,2.18-5c0-.8.26-1,.82-1.21a4.94,4.94,0,0,0,1.39-.75c.42-.33.87-.77.44-1.47a.84.84,0,0,1,.05-1.17c1.15-1.16,1.93-2.79,3.4-3.53a2.44,2.44,0,0,0,1.39-1.13c.83-1.82,2.4-2.62,3.75-3.71a1.35,1.35,0,0,1,.89-.36,4.37,4.37,0,0,0,3.15-1.5,1.68,1.68,0,0,1,2.58-.21,9.7,9.7,0,0,0,1.57.81c1.46.82,1.65,2.49.43,3.9a3.52,3.52,0,0,0-.45,2.86c.32.71.82.73,1.24.17a8.6,8.6,0,0,0,1.44-2.36,17,17,0,0,1,2.52-4.48,3.64,3.64,0,0,0-.11-4.54c-1-1.52-2.42-2.09-3.65-3.08a25.5,25.5,0,0,1-3.13-2.45,1.76,1.76,0,0,0-2.79-.11,2.86,2.86,0,0,1-1.36.79,1.89,1.89,0,0,0-1.3,1.24,3.32,3.32,0,0,1-2.41,2.31,5.35,5.35,0,0,0-2.2,1.35,4.79,4.79,0,0,1-3.11,1.5,3.58,3.58,0,0,0-2.93,2.29,10.24,10.24,0,0,1-2.08,2.89c-.26.29-.53.78-1,.44s-.18-.8-.06-1.22c0-.12-.05-.27-.1-.47-1.44-.08-1.9,1.22-2,2.4a3.55,3.55,0,0,1-1.92,3.07c-.17.1-.39.22-.46.39-.56,1.48-1.75,2-2.75,2.93a35.83,35.83,0,0,0-4.25,3.78c-.77.94-1.84.65-2.73-.35a2.46,2.46,0,0,1-.26-2.86c.62-1.33,1.76-2.16,2.52-3.38a10.3,10.3,0,0,0,1.4-2.91,4.31,4.31,0,0,1,2.24-2.89,7.88,7.88,0,0,0,3.55-4c.35-.81.64-1.68,1.69-1.17.22.11.62-.16.89-.35a26.77,26.77,0,0,1,6.37-3c1.2-.48,2.7-.76,3.11-2.66a.47.47,0,0,1,.25-.31c2.16-.68,3.06-3.1,4.65-4.56a1,1,0,0,0,.41-1.13c-.1-.42-.37-.89-.07-1.26a6.42,6.42,0,0,1,1.36-1.25c.55-.37,1,.11,1.33.53.51.66.92.47,1.62.31a11.47,11.47,0,0,0,5-2.11c.94-.76,2.11.14,3.15-.32.08,0,.36.23.4.41.35,1.3,1.53,2.21,1.1,3.89-.24.9.47,1.24,1.14,1.42,2,.57,4,1.19,6.06,1.68a3.85,3.85,0,0,0,2.07-.15,7.59,7.59,0,0,1,2.67-.23,7.87,7.87,0,0,0,6,2.47,6.9,6.9,0,0,1,2.67.81,11,11,0,0,1,3.86,2.29A1.73,1.73,0,0,0,426,199c1.11-.49,1.86.16,2.82.6a23.78,23.78,0,0,1,7.42,6.06,68.36,68.36,0,0,1,4.38,6.09c-1.2.07-2-1-2.85-1.63-1.27-.9-2.78-1.52-3.51-3.26a.91.91,0,0,0-1.31-.49,1.88,1.88,0,0,1-2.34-1,2.29,2.29,0,0,0-1.93-1.22c-.6,0-1.11,0-1.35.87a3.89,3.89,0,0,1-.8,1.52,2.94,2.94,0,0,0-.68,2.83,7.26,7.26,0,0,1-.65,3.82,38.19,38.19,0,0,0-1.17,7.39c-.06.49.38,1.06.65,1.77-1,.26-1.62,1.6-2.86,1-.41-.2-.74.06-.95.52S420.35,224.85,420.1,225.37Z"/><path class="cls-4" d="M265.85,285.89a15.45,15.45,0,0,1-.29-1.91c0-1.27.37-1.76,1.61-2.09.2,1.4,1.14,2.41,1.47,3.74a1.24,1.24,0,0,0,.43.72c1.48.81,2.12,2.63,3.36,3.75a2,2,0,0,0,1.58.56c1.05-.06,1.38-.76.77-1.74a8,8,0,0,1-1.22-4.58,26.81,26.81,0,0,0-.68-3.92c-.17-1.33.18-2.72-.45-4.05-.37-.77.2-1.73.71-2.44a14.8,14.8,0,0,0,1.27-1.68c.55-1,1.15-.76,1.76-.23a2.83,2.83,0,0,1,.58,3.42c-1.18,2-.34,4.05-.19,6.06a1.49,1.49,0,0,0,1.2,1.31c1.24.1,2.4,1.19,3.75.26.7-.48,1.3-.1,1.75.74.85,1.58,2.06,2,3.28.88a3.11,3.11,0,0,1,3.29-.5,14.86,14.86,0,0,0,4,.34c4.36.14,8.73-.51,13.07.81a25.14,25.14,0,0,0,7,1.39,5.16,5.16,0,0,1,3.95,2.34c.6.77,1.16,1.56,2.21,1.51.59,0,.83.51,1,1.13a7.43,7.43,0,0,0,2.28,4,1,1,0,0,1,.39.47,9,9,0,0,1,.08,3.54c-.08,1.11.4,2.45-.77,3.25-.59.41-.6,1.27-1,1.86-2,2.7-4.53,2.75-7.19,2.58A1,1,0,0,1,314,307c-.19-.3-.38-.68-.64-.8-1.67-.8-2-2.46-2.37-4.31a9,9,0,0,0-2.62-4.5,1.49,1.49,0,0,0-1.42-.52c-2.33.62-4.66-.87-7,.09a.81.81,0,0,1-.55-.12c-3-1.34-6.22-1.07-9.31-.92a27.11,27.11,0,0,1-5.4.08c-2.29-.35-4.68.09-6.9-1a4.65,4.65,0,0,0-1.91-.17,3.94,3.94,0,0,1-3.91-2.2c-.27-.54-.75-1-1.25-.85-.71.16-1.13-.29-1.51-.74C268,289.45,266.43,288.11,265.85,285.89Z"/><path class="cls-5" d="M421,309a59.4,59.4,0,0,0-8.2.59,1.81,1.81,0,0,1-.57,0c-6.4-1.19-12.9-.67-19.34-1.13a19.1,19.1,0,0,0-3.46-.11c-2.42.26-3.64-1.53-4.53-3.62a18.5,18.5,0,0,1-1.37-4.36,8,8,0,0,0-2.14-3.54c-.09-.11-.23-.14-.33-.24-2-2.21-1.79-2.32,0-3.82a6.85,6.85,0,0,0,.79-1c1.82-2.22,3.91-3.59,6.64-3,.29.06.62-.16.94-.19A3.4,3.4,0,0,1,393,290c1,1.41,2.59,1.86,4.05,2.29a22.46,22.46,0,0,1,2.73.92,14.11,14.11,0,0,0,3.35.8c3.28.56,6.59-.11,9.87.31a4.29,4.29,0,0,0,2.77-.71,8.17,8.17,0,0,1,6.86-.87,12.91,12.91,0,0,0,4.21.23,23.11,23.11,0,0,1,3.43-.28c.91.07,1.55-.69,2.2-1.25,1.08-.93,2.05-2,3.06-3.07a1.66,1.66,0,0,1,.27,1.61c-.6,1.46-1.8,2-2.92,2.65a15.8,15.8,0,0,0-2,1.68c-1.23,1.29-2.95,1.53-4.24,2.69a1.86,1.86,0,0,1-.73.42c-3.25.88-6.49.67-9.79.44-3-.21-6-.7-8.95-.2.06.2.52.22.6.58,1,4.56,4.46,3.79,7.23,4.51,2,.53,4.18.37,6,1.71s2,1.61.58,3.68C421.41,308.43,421.18,308.69,421,309Z"/><path class="cls-6" d="M428.69,136.26a17.78,17.78,0,0,1,2-3.26c1-1.24.9-1.53.26-3a23.43,23.43,0,0,1-1.41-4.56,3.42,3.42,0,0,1,3.18-3.64,8.94,8.94,0,0,0,2.59-.64,4.74,4.74,0,0,1,4.41.71,23.79,23.79,0,0,1,4.65,4.18,67.56,67.56,0,0,0,5.5,5.47,5.34,5.34,0,0,1,1.76,5.25c-.42,2.26-1.5,3.78-3.44,4.33-.94.27-1.84,1.21-2.89.38.55-1.43,2-2.25,2-4.05.87-2.63.37-4-1.57-4.16-.7.73-1.57.86-1.9-.17-.46-1.46-1.58-2.23-2.2-3.49-.85-1.74-2.43-2.35-3.91-2.95a2.58,2.58,0,0,1-1.52-1.48c-.19-.44-.29-1.11-.87-1s-.5.79-.53,1.3a2,2,0,0,1-.29,1c-.46.44-.72-.39-1.26-.19.6,1.56,2,2.45,2.49,4,.09.27-.11.13.07.17s0-.29.07-.44c1.19-2.87,3.11-3.13,4.91-.9,1.29,1.59,2.72,3,3.34,5.19.36,1.27.51,1.22-.82,1.81a5,5,0,0,1,1.71,5.18l-.91-.29c-2-.63-3.21-.31-4.33,1.71-1.3,2.33-3,4.28-4.29,6.61-1.73,3.11-3.57,6.16-5.47,9.16-2.4,3.79-5.05,7.33-7.54,11-1.63,2.41-3.56,4.57-5.09,7-2.19,3.53-4.94,6.44-7.25,9.82a10.81,10.81,0,0,1-1.11,1.24c-.47.4-.95.88-1.48.12a1.43,1.43,0,0,1,0-1.65,2.62,2.62,0,0,0,.48-2c-.14-.83.46-1.17,1.08-1.24,1.38-.15,1.45-1.1,1.12-2.33a93.08,93.08,0,0,1,7.65-10.92c1.13-1.18,1.76-3,3.31-3.62a.49.49,0,0,0,.29-.52c-.26-2.11,1.29-3.1,2.09-4.55,3.33-4.86,6-10.25,9.17-15.23a74.7,74.7,0,0,1,4.87-7.26,4,4,0,0,1,2.41-1.85,12.24,12.24,0,0,0-1.94-2.25c-3.5,9.77-9.27,17.8-14.41,26.29-1.25-.58-1.25-.58-.81-3.06-.58-.41-1.09,1.28-1.68.13.14-1.73,1.2-2.93,1.83-4.37a4,4,0,0,1,.32-.48,17.08,17.08,0,0,0,1.84-2.77c.13-.25.28-.5.43-.74a6.84,6.84,0,0,1,.47-.72,12.56,12.56,0,0,0,4.69-7.5c.1-.5.49-1.51,1.42-1,.2.12.13.93.58.37.16-.19.23-.72-.1-.69s-.62-.83-1.08-.36c-.28.29-.39.78-.68,1.08s-1.07.79-1.3.1C429.18,139.24,427.53,138.15,428.69,136.26Z"/><path class="cls-7" d="M421,309c-.19-1.35,1-1.82,1.46-2.86-1.61-1.09-3-2.52-5.06-2.18a1.16,1.16,0,0,1-1.21-.49.51.51,0,0,0-.84-.11c-.47.43-.88.1-1.36.05a10.88,10.88,0,0,1-4.1-1.48,2.69,2.69,0,0,0-1.14-.08,1,1,0,0,1-1-1.42,2.16,2.16,0,0,0-1-2.57,2,2,0,0,1-.94-1.56c.12-.07.29-.21.32-.18a2.75,2.75,0,0,0,3.1.88A7.43,7.43,0,0,1,412,297a8.72,8.72,0,0,0,3.18.1,2.85,2.85,0,0,1,1.7.18,5.2,5.2,0,0,0,2.45.36c1.35-.08,2.7-.9,4.05.08.32.23.75-.18,1-.53.5-.73,1.05-.22,1.59-.19-.64,1.8.6,3.53,0,5.45-.22.74.87.42,1.31.11,1.58-1.16,3.28-2.09,4.82-3.32,2.4-1.91,5.26-2.78,7.67-4.68a9.18,9.18,0,0,0,2.61-2.62,6.6,6.6,0,0,1,1.66-1.86,21.22,21.22,0,0,0,6.81-9.84,5.87,5.87,0,0,1,1.29-2.23c2.83-2.88,4.32-6.89,6.47-10.33a7.21,7.21,0,0,1,.77-1.29c2.57-2.69,3.48-6.23,4-10a23.48,23.48,0,0,0-.59-8.33,13,13,0,0,1-.34-2.4,6.61,6.61,0,0,0-2.12-5,5.71,5.71,0,0,1-1.81-5c1.55-.36,1.46,1.48,2.34,2.26.54-.06.3-1.95,1.41-1.12.73,2.19,1.54,4.31,2.48,6.41a19.24,19.24,0,0,1,1.39,5.43c.6,5.21-.55,10.18-1.77,15.13a13.65,13.65,0,0,0-.89,4.09,3.2,3.2,0,0,1-1,2.08,5.91,5.91,0,0,0-1.23,2.73c-.32,1.82-1.53,3.06-2.29,4.59a22.79,22.79,0,0,1-6.15,7.27,22,22,0,0,0-2.12,2.56c-2.07,2.34-2.73,5.46-4,8.26-.6,1.35-.82,3-2,4-2.19,1.94-4.27,4.06-6.45,6a2.8,2.8,0,0,1-2.45,1.06.49.49,0,0,0-.38,0c-2,1.92-4.62,1.35-6.86,2.46a7.42,7.42,0,0,1-4.67.51C423,309.2,422,309.08,421,309Z"/><path class="cls-8" d="M359.93,131a5.36,5.36,0,0,1,2.91-3.39c1.68-1,3.27-2.25,5-3.26a10.06,10.06,0,0,1,3.88-1.13c1.52-.22,3-.49,4.52-.83a5.63,5.63,0,0,1,3.9.75c1.87,1,2.18,4.06.69,5.91a17.2,17.2,0,0,1-2.46,2.51,2,2,0,0,0-.63,2.34c1.76,6.11,2.62,12.48,3.8,18.76a108.91,108.91,0,0,0,2.58,10.66c.23.77.33,1.58.49,2.38a3.3,3.3,0,0,0-1,1.81c-.16.33.11.39.25.53,1.43,1.61.19,3.36.17,5,0,.21-.35.46-.41.39-.87-1-2.5-.22-3.11-1.59-1.52-3.4-3-6.83-3.22-10.78a19.18,19.18,0,0,1,.29-2.4c.1-.85,0-1.94-.75-2-2.16-.22-1.71-2-1.75-3.54a1,1,0,0,1,.33-.48c.27-.18.69,0,.82-.44s-.17-.65-.38-.57c-.63.23-1.23-1.73-1.87,0-.15.4-.61.18-.79-.13-.48-.8-1.6-1.22-1.32-2.47a7.77,7.77,0,0,1,.73-2.94c.78-2.24-.35-4.24-.53-6.35.18,1.73.87,3.37.64,5.18-.88.51-1.23-.4-1.44-.95-1.08-2.8-2.37-5.57-1.56-8.85.32-.49.81-.77,1.12-1.27a1.75,1.75,0,0,1,1.45-1c.52,0,.65-.19.55-.8a2.07,2.07,0,0,1,1.87-2.73c1.05-.16,1.53-.69,1.32-1.91a2.91,2.91,0,0,1,1.12-2.72c-4-.37-6.13,2.86-8.37,5.83.79.19,1.52.43,1.31,1.68a.73.73,0,0,1-.43.35c-1.28-.05-2.69.52-3.67-1-.05-.07-.05.14-.06.22-.3,1.29-1.46,1-2.14,1.6-.14.12-.47.12-.49-.11-.17-2.29-1.68-1.2-2.67-1.44C360.22,131.76,359.65,131.78,359.93,131Z"/><path class="cls-9" d="M428.69,136.26c-.05.52-.08,1-.15,1.55,0,.23,0,.55.15.51,1.4-.38,1,.8,1,1.6,0,.29,0,.62.37.67s.47-.17.62-.41c.48-.75.64-1.8,1.45-2.15.51.11-.31,2.08,1,.83.24-.22.59.24.53.66a2.54,2.54,0,0,1-1.22,1.92l-.61-1.06c-.31-.07-1.28,1.71-1.34,2.65s-1.25,1.89,0,2.93a8.9,8.9,0,0,0-4.31,3.2c-.39-.09-.51.05-.31.47l-.35.43c-.8.94-1.37,2.1-2.1,3.1l0,0c-2.21,3.66-4.48,7.28-6.91,10.75-2.58,3.7-5.54,7-7.69,11.15-.23.17.26.18,0,.06-.08-.05-.08-.11,0-.21,3.11-5.32,7.29-9.64,10.34-15a2.14,2.14,0,0,1,.94-1.08c.19.05.45.18.3-.29.16-.5.24-1.13.92-.94.87.47.71-.75,1.16-1s.6-.34.88-.12a.76.76,0,0,1,.14,1,5.78,5.78,0,0,0-.6,2.31c0,.48.32.55.64.6.19.24.11.62.32.85-.41.65-.87,1.26-1.23,1.95s-1.57,1.32-.36,2.41c.17.16-.14.8-.43.84-1.67.24-2.36,1.74-3.13,3.17-.11.21-.43.27-.65.39-1.68.76-2.43,2.62-3.38,4.13-1.38,2.18-3.34,3.85-4.19,6.47.66,2,.34,2.65-1.52,2.76-.57,0-.92.29-.53,1a1.16,1.16,0,0,1-.38,1.8,1.07,1.07,0,0,0-.38,1.34c.32.83.89.18,1.33.25l-1.53,2.26c-1.1-1.11-1.66-2.27-.73-4,.44-.81-.13-1.83.11-2.84-.93.21-1.68,1.48-2.46.12a3,3,0,0,1,.77-2.28c-.65.46-.65,2-1.85,1.8-1.06-1.15-.56-3.09-1.56-4.27,2.48-2.79,3.85-6.51,6-9.59s4.5-6,6.49-9.19c1.53-2.47,3.18-4.84,4.58-7.45a77.49,77.49,0,0,1,4.91-7.71C425.6,141.91,427.11,139.06,428.69,136.26Z"/><path class="cls-10" d="M422.2,274.4c1.36-1.76,2.63-3.62,4.65-4.54a4,4,0,0,0,1.76-2,6.69,6.69,0,0,1,1.4-2.12,1.62,1.62,0,0,0,.47-2,3.94,3.94,0,0,1-.31-3.23c-.36-.54-.68-.27-1-.25-.56.05-1.05,0-1-.89s.56-1.4,1.28-1.25a3.17,3.17,0,0,1,.85.45c1.85,1.07,3.28.34,3.84-2,.25-1-.14-1.65-1-1.49a5.8,5.8,0,0,0-1.62.71,3.21,3.21,0,0,1-2,.45c-.55-.07-.92-.42-.76-1,.44-1.58-.55-2.53-1.21-3.43-.46-.63-.46-.81-.11-1.39a15.65,15.65,0,0,0,1.92-7,10.31,10.31,0,0,1,1.64-4.45.85.85,0,0,1,1.34-.32.37.37,0,0,1,.15.13c.48.74,1.85.41,1.8.85-.14,1.32.75,2.27.61,3.45-.21,1.78.7,3.08,1.12,4.64,1.71-1.49,1.82-2,.8-4a3.72,3.72,0,0,1-.34-1.47,5.25,5.25,0,0,0-.8-2.68,2.38,2.38,0,0,1,.11-3.3,4.53,4.53,0,0,1,1.34-1.28,13,13,0,0,0,1.92,7.72,6.72,6.72,0,0,1,.71,3.17,6.85,6.85,0,0,0,1.39,4.22c1.14,1.67,1.14,2-.28,3.49a15,15,0,0,0-1.9,2.78,44.51,44.51,0,0,1-3.51,5.29c-1,1.26-2.07,2.54-1.47,4.52.11.36.05.9-.32.91-1.24,0-2,1.13-2.75,1.9-2,2-4.61,2.8-6.47,5C423.75,274.72,423,274.41,422.2,274.4Z"/><path class="cls-11" d="M435.47,290.18c0-.61,0-1.21,0-1.81l2-2.61c.49-.65,0-1.56.45-2.23,1.43-1.66,2.23-3.8,3.31-5.72.37-.35.07-1,.41-1.33a5.43,5.43,0,0,0,0-.9c-.32-3.56,1.42-6.11,3.06-8.82a38.54,38.54,0,0,1,4.69-5.85,5.62,5.62,0,0,1,2.19-1.74,3.51,3.51,0,0,0,1.81-1.93c.94-2,2-4,1.87-6.48,0-.93-.17-2,.83-2.52.46-.32-.1-1.53.89-1.4,2.2,2.43,2,5.48,1.36,8.51-.34,1.73-1.16,3.31-1.31,5.14a4.25,4.25,0,0,1-1.39,2.35c-1.62,1.86-3.59,3.41-4.36,6.12a1.84,1.84,0,0,1-1.41,1.39c-1.21.23-1.73,1.25-2,2.43-1.59,6.4-5.22,11.22-9.05,15.88A3.77,3.77,0,0,1,435.47,290.18Z"/><path class="cls-12" d="M369.84,135c.13,1.23.59,2.43.05,3.69-.37.88.53,1.2.75,1.81.56,1.51.71,3.35,2,4.43.75.28.49.86.29,1.42-.45.85,0,2-.71,2.79a.45.45,0,0,0,.22.69c.75.2.79,1.09,1.21,1.6.86-.45.25-1.45.6-2.26.62.62.41,2.06,1.6,1.82.7-.13,1.4.27,1.18,1.21s-.94,1.1-1.67.54l0-.15c-.16,0-.16.06,0,.14-.07,1.12.47,2.13.3,3.28.68,0,1.27-.84,1.81.08a3.22,3.22,0,0,1,.66,2.65,9.32,9.32,0,0,0-.39,2.17c-.54.44.36,2.51-1.35,1.65-1.31-3.13-4.13-5.15-4.58-9a5.71,5.71,0,0,0-1.71-2.77c-.6-.63-.44-1.49-.48-2.29,0-.37.08-.82-.13-1.08-2.14-2.69-2.09-6.49-3.47-9.57-.55-1.24-.71-2.56-2.5-2.1-1.16.31-.2.58-.17.82a.8.8,0,0,1-.17.79,26.66,26.66,0,0,1-2.65.45c-1.78.13-2.65-1-2.24-3a7,7,0,0,1,1.64-3.92c.45,1.11,1.24.09,1.88.34.44.18,1.08-.25,1.63.06.25.56-.28,1.16.08,1.7.36-.15.31-1,.76-.82,1.57.56,1.43-.82,1.64-2,.06,2.41,1.64,1.61,2.64,1.91.29.09.7-.36,1,.17a13.74,13.74,0,0,1,0,1.57,3.39,3.39,0,0,0,.23.95C369.81,134.87,369.82,135,369.84,135Z"/><path class="cls-13" d="M457.05,246.93c-.5.24-.31,1.07-.82,1.31a6.49,6.49,0,0,0-2.8-6,2.05,2.05,0,0,0-1.26-.4c-.76,0-1.53-.07-2.29-.08s-1.11-.3-1.05-1.18a2.82,2.82,0,0,0-1.78-3c-.87-.39-1.31-1.35-1.92-2.09a5.42,5.42,0,0,1-.39-.76c-1.58-2.75-3.19-3.37-6-2.33-1.26-.44-1.41-.74-.68-1.62,1-1.18,1.9-2.49,2.95-3.52a2.41,2.41,0,0,0,.69-2.83c1.71.05,3,1.35,4.15,2.41A13.13,13.13,0,0,1,450,232.4a3,3,0,0,0,1.29,1.54,16.16,16.16,0,0,1,6.14,8.48C457.84,243.92,458.49,245.56,457.05,246.93Z"/><path class="cls-14" d="M376.55,162.25c.35.15.74.38.79-.37a1.13,1.13,0,0,1,.4-.94c0,2.42,1.15,4.53,1.32,6.91,1.27,1,1.46,2.69,2,4.17,0,.14.38.3.48.24.82-.49,1.25-.1,1.67.72.18.34.7.07.62-.37a3.74,3.74,0,0,1,.35-2.71c.35-.66-.46-1.41-.88-2h0c0-.51,0-1,.08-1.53.1-.92.57-1,1.21-.7,1.69,5,4.18,9.59,5,15,.16,1,.15,1.74-.69,2.24-.74-.24-1.37-1.42-2.28-.26a.62.62,0,0,1-.87-.13c-.89-1.58-1.5-.12-2.22.26-.58-.31-.64-.76-.4-1.44.73-2,.38-2.6-1.36-2.82-1.08-.13-1.33.45-1.42,1.45a1.36,1.36,0,0,1-.66.62.81.81,0,0,1-.79-.23c.85-2.77-.59-5.45-.16-8.2,0-.22.05-.54-.07-.65-2-1.88-.58-5-2-7.19A1.75,1.75,0,0,1,376.55,162.25Z"/><path class="cls-15" d="M311.58,235c.53-.64.68-1.57,1.34-2.15a1.15,1.15,0,0,1,1.73,0c.69.58.36,1.15,0,1.69s-.35,1.11-.78,1.52a1.72,1.72,0,0,0-.35,1.86c.79,1.5.31,2.62-.5,3.79a2.2,2.2,0,0,0-.33,1,7.51,7.51,0,0,1-2.08,5.06c-.4.39-.27,1.13-.26,1.72a4.87,4.87,0,0,1-2.1,4.23,6,6,0,0,0-1.81,1.65c-.23.4-.64.45-1,.57-.87.26-1.48-.17-1.29-1.12a4.31,4.31,0,0,1,.69-2.29,5.53,5.53,0,0,0,1.23-3,8.41,8.41,0,0,0,.87-1.46C308.41,243.71,310.25,239.46,311.58,235Z"/><path class="cls-13" d="M462.37,236.79c-.82.09-.73.83-.78,1.48,0,.43,0,.94-.51,1s-.47-.48-.67-.81c-.58-.93-.46-2.51-1.8-2.74-1.37-1.95-3.82-2.17-5.08-4.33a4.32,4.32,0,0,0-1.89-1.44c-1.46-.82-3.11-1.36-3.88-3.31a1.2,1.2,0,0,0-.9-.77c-2.25-.2-3.69-2.14-5.47-3.34,0-1.26.17-2.53-.62-3.61a.79.79,0,0,1,.12-1.16.74.74,0,0,1,1.06.14,9.24,9.24,0,0,1,1.3,1.62,8.71,8.71,0,0,0,3.9,3.4,3.59,3.59,0,0,1,1.91,1.7c.21.48.69.63,1.06.91.61.45,1,.45,1.29-.49.08-.29.41-.31.67-.36a1.49,1.49,0,0,1,.75.92c.48.48.94,1,1.44,1.42a29.09,29.09,0,0,0,3.66,3.46c.9.64,1.21,1.87,1.87,2.76A20.65,20.65,0,0,1,462.37,236.79Z"/><path class="cls-8" d="M376.55,162.25c.82,1.52.69,3.56,1.93,4.89a.75.75,0,0,1-.43,1.28c-.83.11-.67.75-.25,1,1.85.87,1.58,2.58,1.32,4.27a2.07,2.07,0,0,0,.15,1.4c.69,1.46,1,3-.16,4.48-.13.17,0,.57-.06.86a.38.38,0,0,1-.15.45c-.24-.9-.52-1.79-.7-2.71a64.78,64.78,0,0,0-3.52-12c-1.07-2.59-1.57-5.49-2.67-8.09a67.57,67.57,0,0,1-2.93-6.93,7.52,7.52,0,0,1-.16-.85c.48-.44-.13-.76-.09-1.16.29-.59.69-.87,1.27-.57a4.86,4.86,0,0,0,.15,1.94c.35.18.47-.1.57-.38s.27-.54.55-.33a.71.71,0,0,1,.12.58c-.11.34-.33.64-.47,1s-.07.45.28.55c1,.28,1.15,1.37,1.24,2.25a6.11,6.11,0,0,0,1.8,4.11C375.49,159.27,375.85,160.88,376.55,162.25Z"/><path class="cls-16" d="M445.06,141.36c-.05-.28-.2-.62-.11-.84.19-.5.55-.88-.28-1s-1.26-.48-.57-1.47c.38-.55-.11-.76-.41-1-.56-.42-1.23-.72-1.38-1.68a3.32,3.32,0,0,0,2.14.07,2.73,2.73,0,0,1-1.31-2,4.62,4.62,0,0,1-.09-.65c0-.6-.32-1.17-.67-1.25-1.7-.38-1.85-2.87-3.44-3.33-.94-.28-2.12.67-2.73,2.16a3.4,3.4,0,0,1-1.8-3.73,8,8,0,0,0-.05-1.76c-.15-1,.42-1.25,1.1-1.47s.87.27,1,.89a5.37,5.37,0,0,0,.4,1.23c.32.64.76,1.08,1.37.43.36-.38.91-.42.91,0,0,1.5,1.05,1.35,1.76,1.73a1.72,1.72,0,0,1,.73.62c.63,1,.78,2.49,2,3,.16.06.13.67.24,1,.39,1.2.64,1.27,1.8.59.55.15.7.65.79,1.21.2.88-.4,2,.64,2.63a.91.91,0,0,1,.37.74c.37.77.56,1.57-.26,2.07s-.83,1.92-1.92,1.95A.24.24,0,0,1,445.06,141.36Z"/><path class="cls-6" d="M404.66,182.94c.27.58.66.68,1.07.25a7.1,7.1,0,0,1,1.86-1.43c.06,1.24-.75,2.36,0,3.42.1.14-.16.67-.28,1a3.72,3.72,0,0,0,.13,2.87,3.07,3.07,0,0,1,.08.87c0,.27-.07.55-.11.82-.85-.06-1.75,0-2.29-1-.64-.65-1.59.17-2.2-.63a4,4,0,0,1-.24-3.43C403,184.43,403.13,183,404.66,182.94Z"/><path class="cls-17" d="M370.1,148.54c-.4.26-.92.34-1.13.93a.34.34,0,0,1-.1.44c-1.15-3.52-2.32-7-3.42-10.56-.59-1.92-.53-1.95-2.27-1.93-.08-.9-.4-1.4-1.26-1a.32.32,0,0,1-.43-.28c-.05-.35.21-.69.4-.65a6.47,6.47,0,0,0,3-.49c.5-.15.91.2,1,.76s.56,1.29.59,1.8c.13,2.33,1.66,3.94,2,6.14.13.76-.23,1.48-.05,2s1,.53,1.39,1S370.14,147.87,370.1,148.54Z"/><path class="cls-18" d="M378.9,180.83l.15-.45.67,0c.34.11.25-.3.39-.43a26.15,26.15,0,0,1,.29-3.42c.77.16.54.7.59,1.09.1.72.22,1.35.79.28.09-.17.15-.26.25-.17s.12.82.56.75a1.41,1.41,0,0,0,.67-.39c.24-.22.43-.53,1-.41-.22.93-.89,1.89.09,2.72.2.18-.07.83-.54,1-.88.27-.38.87-.25,1.39a1.76,1.76,0,0,1-1.39,1.79,1.49,1.49,0,0,1-1.84-1.13,2,2,0,0,0-1.37-1.37C378.93,181.64,378.91,181.24,378.9,180.83Z"/><path class="cls-19" d="M401.82,178.45c1.13.22,1.25,1.28,1.4,2.31.09.62-.19,1.36.42,1.81.16,1.24-.67,1.86-1.25,2.63l-.92.92c-.33.3-.81-.07-1.11.35s-.56-.12-.68-.42c-.38-1-.73-1.93-1.09-2.91C399.7,181.61,401.1,180.35,401.82,178.45Z"/><path class="cls-2" d="M454.27,227.05c-.76-.09-1.17-.66-1.44-1.42A1.89,1.89,0,0,1,454.27,227.05Z"/><path class="cls-5" d="M438,283.53c-.1.76.21,1.62-.45,2.23C437.66,285,437.38,284.15,438,283.53Z"/><path class="cls-12" d="M368.87,149.91c0-.15.07-.29.1-.44.27,0,.56,0,.53.41s-.33.37-.58.39A.5.5,0,0,1,368.87,149.91Z"/><path class="cls-5" d="M441.73,276.48c0,.49,0,1-.41,1.33C441.33,277.31,441.28,276.79,441.73,276.48Z"/><path class="cls-20" d="M413.08,238.61a1.26,1.26,0,0,0,.57,1.06,11.51,11.51,0,0,0,5.93,2.76,3.65,3.65,0,0,1,3,3.83,1.8,1.8,0,0,1,0,.22c-.22,1.51-2.89,4.37-4.24,4.42a7.9,7.9,0,0,1-4.77-1.14,3.11,3.11,0,0,0-1.65-.41,58.33,58.33,0,0,1-7.39-2.06c-1.91-.79-3.88-1.46-5.29-3.32-.13-.16-.24-.39-.4-.47-2.71-1.28-3.58-4.37-4.93-6.95-.92-1.76-2.17-3.3-2.73-5.31-.39-1.41-1.33-2.6-1.19-4.23a.82.82,0,0,0-.45-.88,2,2,0,0,1-1.32-1.72,5.24,5.24,0,0,1,.63-3.21c.91-1.5.95-1.56,2.46-.73.51.28,1.12.32,1.51.9.23.35.69.65.59,1.09-.53,2.25,1.1,2.72,2.18,3.25a5.71,5.71,0,0,1,2.41,2c1.45,2.3,3.4,4,5.07,6a4,4,0,0,0,2.22,1.24,11.5,11.5,0,0,1,3.63,1.87A7.22,7.22,0,0,0,413.08,238.61Z"/><path class="cls-21" d="M398.7,220.57c-.22-.36-.42-.74-.65-1.08-.9-1.29-.46-2.66,1-2.91a12.28,12.28,0,0,1,2.1,0h0a18.37,18.37,0,0,1,2.72,3,4.32,4.32,0,0,0,2.72,1.93,13.92,13.92,0,0,1,5.37,2.58c.87.59,2,.53,2.73,1.48a2.35,2.35,0,0,0,1.75,1.47c.95.26,2,.13,2.86.84.28.21.75.11,1.13.12.63,0,1.23-.62,1.86-.22s.2,1.24.46,1.82a2.44,2.44,0,0,0,.42.72c.42.43.88,1,1.48.73s.61-.91.67-1.53c0-.36-.21-.72,0-1.07,1.8,1.62,1.83,1.71,1,4a8,8,0,0,0-.39,1.48c-.37,2.1-1.67,3.11-3.51,2.64-.62-.16-1.18-.44-1.84-.1a.8.8,0,0,1-1-.35c-1.06-1.51-2.57-1.4-4-1.5a13.51,13.51,0,0,1-4.39-3c-2.25-2.12-4.31-4.51-6.45-6.78-.14-.15-.3-.4-.43-.39-1.29.12-1.89-1-2.71-1.84A11.29,11.29,0,0,0,398.7,220.57Z"/><path class="cls-22" d="M288.61,265.1c1.2.31,2.29-.39,3.45-.38.39,0,.8-.15,1,.38.67,2.08,2.34,1.43,3.56,1.5s2.61-.59,4-.61c.65,0,1-.62,1.46-1,1-.77,2-1.43,3.19-.77.59.32.79.79.16,1.32a21.85,21.85,0,0,1-4.15,3.15c-.18.09-.36.26-.53.26-1.66,0-3.17,1-4.84,1a3,3,0,0,1-2-.4,1.48,1.48,0,0,0-1.67-.07c-1.08.76-2.4.38-3.45,1.24-.72.59-1.34-.1-2-.39-.39-.17-.6-.71-1.11-.78a4.1,4.1,0,0,1-3-1.45,1,1,0,0,0-1.06-.3c-1.1.25-1.78-.76-2.42-1.44s-.13-1.59.53-2.05a16,16,0,0,0,2.12-1.93,1.67,1.67,0,0,0,.2-2.46c-1.08-1.62-.93-2.43.33-3.23a2.3,2.3,0,0,1,3.15,1.15,1.73,1.73,0,0,1-.58,1.95,1.49,1.49,0,0,0-.06,2.39,5.64,5.64,0,0,1,.49,1C286.12,264.44,287.05,265.51,288.61,265.1Z"/><path class="cls-23" d="M341.51,210.17c1.42,1.5,3.05.55,4.56.7,1,.1,3,2.38,3.21,3.44.23,1.38.1,1.74-1,2.17-.85.33-1.73.54-2.59.82s-1.67.63-2.22-1c-.43-1.23-1.73-1.55-3-1.28s-1.61-.37-1-1.33,0-2.65,1.42-3.08C341.14,210.57,341.32,210.32,341.51,210.17Z"/><path class="cls-22" d="M337.61,214c-1.82,1.47-3.92,1.75-5.95,2.13a18.58,18.58,0,0,1-2.41.54.56.56,0,0,1-.63-.34.76.76,0,0,1,.25-.78,1.34,1.34,0,0,1,.45-.41c2.46-.86,4.83-2.32,7.52-1.75C337.08,213.45,337.35,213.42,337.61,214Z"/><path class="cls-22" d="M315.67,225.31c0-1.56,1.17-2.8,1.85-4.29a1.81,1.81,0,0,1,.94-.72.66.66,0,0,1,.84.91c-.82,1.57-.93,3.59-2.33,4.77-.15.13-.25.36-.41.45a.72.72,0,0,1-.89-.06C315.4,226.15,315.54,225.84,315.67,225.31Z"/><path class="cls-3" d="M402.39,185.2c.13-1.06,1.18-1.53,1.25-2.63.79-.75,1.14-2,2.37-2.71-.3,1.35-1.25,2-1.35,3.08-1,.64-1.27,1.89-2,2.78Z"/><path class="cls-3" d="M402.94,189.15c.66.54,1.57,0,2.2.63C404.4,189.6,403.49,190.18,402.94,189.15Z"/><path class="cls-3" d="M400.36,186.47c.25-.63.71-.37,1.11-.35C401.18,186.58,400.76,186.47,400.36,186.47Z"/><path class="cls-24" d="M441.39,222.56c1.52-.33,2.26,1.17,3.22,2s2.62,0,3.43,1.46a7.15,7.15,0,0,1,.59,1.13,2.07,2.07,0,0,0,1.23,1.26c2,.9,3.95,1.91,5.24,4.08.37.62.86,1.13,1.62.74s1.15,0,1.21,1a2.24,2.24,0,0,0,.68,1.54c.14,1.52,1.37,2.49,1.48,4,0,.33.32.42.55.55a4.63,4.63,0,0,1,2.3,4.42c0,1.19-.27,2.56.74,3.52.23.21.07.55,0,.83-.15.43-.3,1-.07,1.3,1.34,2,.29,4.14.34,6.2a5.24,5.24,0,0,0-.05,1.73,1.36,1.36,0,0,1,0,.87,18.66,18.66,0,0,0-1.58,4,5.44,5.44,0,0,1-2.41,3.37,1.67,1.67,0,0,0-.48.68q-2,3.76-4,7.53a13.06,13.06,0,0,1-2.18,2.84,7.21,7.21,0,0,0-2.13,3.89c-.24,1.47-1.29,2.38-1.95,3.56a17.38,17.38,0,0,1-4.88,5.64c-.39.28-.84.44-1.05,1-.89,2.2-2.68,3.12-4.38,4.17-3.31,2.06-6.69,3.95-9.91,6.22-.6.42-1.15.94-1.76,1.35s-1.24.56-1.78-.08,0-1.13.29-1.7a2.11,2.11,0,0,0-.07-2.1c-.71-1.43-.69-1.44.43-2.53l.41-.43a7.53,7.53,0,0,0,4.31-2.55,4.12,4.12,0,0,1,1.84-1.85,12.34,12.34,0,0,0,2.92-2c1-1,2.43-.79,3.34-2.05.75-1.06,1.25-2.39,2.47-3,.57-.3.84-1.29,1.24-2,1.09-1.86,2.49-3.49,3.25-5.63.6-1.7,1.56-3.24,1.8-5.11a6.29,6.29,0,0,1,1-2.13c.17-.33.43-.68.77-.55,1.59.6,1.71-.88,1.88-2a2.78,2.78,0,0,1,1.14-1.9c1.44-1.23,2.32-3.17,3.9-4.28a2.22,2.22,0,0,0,.58-1.81,3.63,3.63,0,0,1,.58-2.68c1.23-2.6,1-5.31.57-8-.13-.84-.95-1.22-1-2.11.65-1.79.14-3.36-.35-5.09-.81-2.89-2.85-4.46-4.42-6.52a3,3,0,0,0-1.29-.92,2,2,0,0,1-1.53-2.37.79.79,0,0,0-.19-.6c-1.75-1.21-2.46-3.73-4.39-4.72a20.4,20.4,0,0,1-3.2-2.33C441.16,223.87,441.41,223.18,441.39,222.56Z"/><path class="cls-25" d="M430.49,225.29c-.71-.69-1.42-1.24-2.38-.49s-1.43-.15-2.09-.51c-.91-.5-.47-1.38-.59-2.19-.31-2.22.64-4,1.17-5.85a19.24,19.24,0,0,0,.32-5.85c0-1,.66-2,.15-3a5,5,0,0,1,2.06-1.16,4.8,4.8,0,0,1,2.46,2.78c0,.14.15.35.11.41-1.19,1.59.15,2.63.58,3.86a6.84,6.84,0,0,1,.11,2.21A23.26,23.26,0,0,1,430.49,225.29Z"/><path class="cls-26" d="M430.49,225.29c.64-3.27,1-6.62,1.9-9.82,1.23-.72,1.84-.73,2.18.4.93,3.17,2.33,6.28,1.35,9.87a6.09,6.09,0,0,1-.78,1.76c-1.18,1.82-2,1.84-3-.08A6.09,6.09,0,0,0,430.49,225.29Z"/><path class="cls-3" d="M420.1,225.37a2.21,2.21,0,0,0,1.83-.44c.65-.61,1.18-.27,1.64.38a1.16,1.16,0,0,1,.24,1,.68.68,0,0,1-.78.48c-.64,0-1.28,0-1.92-.08S420.12,226.15,420.1,225.37Z"/><path class="cls-27" d="M420.14,203.36c1.82.07,2.49,1.1,2,3.2a25.5,25.5,0,0,0-.79,6.16,4.6,4.6,0,0,1-.67,2.49,6,6,0,0,0-.79,4c.25,1.72-.1,2.29-1.37,3.07s-2.08.73-3.14-.28a3.52,3.52,0,0,1-1.06-4.21c.54-1.42.47-3.07,1.11-4.48a1.06,1.06,0,0,0-.19-1.23c-.73-.64-.77-1,.16-1.49.38-.19.13-.78.08-1.22C415,205.94,417.17,203.23,420.14,203.36Z"/><path class="cls-21" d="M402.48,212.16c.5-1.43.29-3.09,1.09-4.42-.54-1.85.59-3.29,1.06-4.84.22-.7.25-1.93,1.09-2.2a4.89,4.89,0,0,1,3.36.47c1.13.47,1.73,2.87,1.22,4.68a2.72,2.72,0,0,1-.34.8,12.84,12.84,0,0,0-1.63,5.64c-.18,1.31-.52,2.59-.63,3.93a2.87,2.87,0,0,1-1.85,2.55c-1.08.46-1.55-.3-2.08-1a5.68,5.68,0,0,0-1.82-1.58A3.83,3.83,0,0,1,402.48,212.16Z"/><path class="cls-1" d="M402.48,212.16c0,1.38-.67,2.63-.53,4l-.79.43h0a5.64,5.64,0,0,0-.38-3,2,2,0,0,1-.2-1.28c.16-.72.36-1.65,1-1.75C402.41,210.46,402.36,211.48,402.48,212.16Z"/><path class="cls-1" d="M374.12,225a.86.86,0,0,1,.12.35c0,.11-.11.21-.17.31a.86.86,0,0,1-.12-.35C374,225.16,374.06,225.06,374.12,225Z"/><path class="cls-22" d="M300.06,291.7a11.65,11.65,0,0,1,9.39.35,6.38,6.38,0,0,1,3.14,3.08c.65,1.35,1.77,2,2.72,2.88a3.55,3.55,0,0,0,3.93.85c.84-.31.79.38.72,1a.77.77,0,0,1-.14.41,9.51,9.51,0,0,1-3.91,2.63,1.75,1.75,0,0,1-2.11-1c-.61-1.07-1.64-1.79-1.74-3.28a2.34,2.34,0,0,0-1-1.56c-.26-.21-.64-.37-.75-.66-1.2-3.16-3.85-3.08-6.16-3.74a2.19,2.19,0,0,0-2.16.15C301,293.45,300.72,292.07,300.06,291.7Z"/><path class="cls-7" d="M430.71,294.06c-1.09,2.13-2.31,2.85-4.31,2.55.11-.18.2-.48.34-.52A33,33,0,0,0,430.71,294.06Z"/><path class="cls-28" d="M423.92,161.19c-.78.07-.37-.48-.32-.85,2.21-3.47,4.32-7,6.29-10.7a34.65,34.65,0,0,1,2-3.3,36.44,36.44,0,0,0,5.47-12.25,7.89,7.89,0,0,1,.45-1l3.54,4c-2.82-.5-3.55,2.13-4.85,3.75-3.48,4.33-6,9.47-8.92,14.33C426.4,157.19,425.15,159.18,423.92,161.19Z"/><path class="cls-29" d="M421.38,157.56a3.57,3.57,0,0,0-.81,1.32v0a2.67,2.67,0,0,0-1,1.3,47.26,47.26,0,0,1-5.17,7.45c-1.41,1.73-2.61,3.67-3.9,5.51a12.78,12.78,0,0,1-2.41,2.83c.92-1.64,1.83-3.29,2.77-4.92,1.6-2.8,3.81-5,5.54-7.73,1.91-3,3.94-5.87,5.88-8.82a3.94,3.94,0,0,1,1.22-1.39C423.21,154.88,421.9,156,421.38,157.56Z"/><path class="cls-30" d="M410.55,180.55a.56.56,0,0,1-.13-.9c2.28-3.12,4.26-6.53,6.67-9.53.25-.31.49-.74.9-.71.23,0,.16.33.13.54q-2.37,3.06-4.48,6.37C412.69,177.8,411.58,179.14,410.55,180.55Z"/><path class="cls-31" d="M446.15,134.09c.07-.53-.31-.83-.45-1.25.1-.25.14-.79.34-.68a4.81,4.81,0,0,1,2.31,2.53,2.44,2.44,0,0,1-.85,2.73l-.43-.48C446.16,136.26,446.36,135.09,446.15,134.09Z"/><path class="cls-29" d="M423.45,153.16c.53-1.19.93-2.5,2.1-3.1A6.26,6.26,0,0,1,423.45,153.16Z"/><path class="cls-29" d="M425.9,149.63c-.33-.14-.36-.41-.13-.66s.35-.06.44.19Z"/><path class="cls-12" d="M370,132.25c-.14-1-.57-1.48-1.47-1.1a.83.83,0,0,1-1.18-.27,3.32,3.32,0,0,0,2.21-2.7c1.23-.22,1.58-1.52,2.2-2.47.28-.43.67-.37,1-.49.6-.2,1.31-.23,1.71-.89.56-.91,1.29-.79,2.07-.65a1.74,1.74,0,0,1,1.51,1.65c-.23.46-.62.48-1,.53-.6.07-.77.51-.6,1.1a5.69,5.69,0,0,1,.18,1.54c0,.91-.27,1.45-1.13,1.36a2.72,2.72,0,0,0-.57,0c-1.57.13-2,.94-1.54,2.62.08.28.18.54.36,1-1.11-.19-2.14-.42-2.82.75C369.88,134.05,369.87,133.18,370,132.25Z"/><path class="cls-32" d="M372.92,146.38a1.81,1.81,0,0,0-.29-1.42c-.29-2.09-1-4.1-1-6.56a8.55,8.55,0,0,1,1.27,3.53,34.09,34.09,0,0,1,.46,3.95C373.43,146.28,373.19,146.36,372.92,146.38Z"/><path class="cls-33" d="M370,132.25c.55.52.38,1.51,1,2,0,.88-.66.63-1.07.78h0a1.66,1.66,0,0,1-.68-1c-.06-.65-.24-1.32.38-1.78Z"/><path class="cls-14" d="M383.28,167.87c-.06.34-.06.73-.5.68a.22.22,0,0,1-.11-.15c0-.51.33-.48.61-.52Z"/><path class="cls-6" d="M421.43,161.44c.08.19.14.26.14.32,0,.55.18,1.19-.42,1.5a.4.4,0,0,1-.6-.28C420.36,162.2,420.77,161.79,421.43,161.44Z"/><path class="cls-6" d="M420.57,158.88c.25.06.53.07.55.45,0,.07-.15.25-.21.24-.33,0-.31-.39-.34-.67Z"/><path class="cls-8" d="M375.36,152.76a.79.79,0,0,1-.25-.95.44.44,0,0,1,.63-.29c.38.24,0,.47-.08.69s-.2.37-.31.56Z"/><path class="cls-8" d="M369.16,134.05l.68,1C369.26,135,369.07,134.67,369.16,134.05Z"/><path class="cls-8" d="M380.11,179.93c0,.32.15.73-.17.89-.16.08-.19-.26-.21-.46Z"/><path class="cls-6" d="M446.15,134.09c.31.95.62,1.9.92,2.85-.53,0-1.2.31-1.05-.86C446.11,135.43,446.11,134.76,446.15,134.09Z"/><path class="cls-1" d="M408.48,242.31c-.3.64-.74,1.15-1.25.92-1-.48-2.16-.22-3.19-.57-1.38-.47-2.81-.95-3.4-2.82a3.14,3.14,0,0,0-.87-1.15c-.33-.33-.55-.64-.2-1.1s.6-.84,1.13-.59a2.28,2.28,0,0,1,.82.55c1.14,1.31,2.75,1.76,3.92,3a3.37,3.37,0,0,0,2.46,1A.66.66,0,0,1,408.48,242.31Z"/><path class="cls-1" d="M392.44,228.94c0-.38.22-.47.45-.58s.4-.09.44.17c.07.41-.11.7-.48.74A.38.38,0,0,1,392.44,228.94Z"/></g></svg>