<?xml version="1.0" encoding="UTF-8"?><svg id="a" xmlns="http://www.w3.org/2000/svg" viewBox="0 0 1870 1116"><defs><style>.j{letter-spacing:-.02em;}.k{letter-spacing:-.04em;}.l{letter-spacing:0em;}.m{letter-spacing:-.13em;}.n{letter-spacing:-.02em;}.o{letter-spacing:-.02em;}.p{letter-spacing:-.11em;}.q{stroke-width:3.38px;}.q,.r,.s{fill:none;stroke-miterlimit:10;}.q,.s{stroke:#000;}.t{letter-spacing:-.02em;}.u{letter-spacing:0em;}.v{letter-spacing:-.03em;}.r{stroke:#fff;}.r,.s{stroke-width:4px;}.w{letter-spacing:0em;}.x{letter-spacing:-.05em;}.y{letter-spacing:0em;}.a`{letter-spacing:0em;}.aa{letter-spacing:0em;}.ab{letter-spacing:-.02em;}.ac{letter-spacing:-.01em;}.ad{font-family:FormaDJRDeck-Regular, Forma DJR Deck;}.ad,.ae{font-size:122.61px;}.af{letter-spacing:0em;}.ag{letter-spacing:.01em;}.ah{letter-spacing:0em;}.ai{letter-spacing:.01em;}.ae{fill:#fff;font-family:FormaDJRDeck-Medium, Forma DJR Deck;}</style></defs><g id="b"><path d="M85.35,847.73c4.2,.15,7.46,1.92,10.36,4.48,3.25,2.88,5.69,6.43,7.89,10.12,1.17,1.96,1.99,2.44,3.5,.28,8.73-12.44,18.34-24.16,28.78-35.22,10.68-11.32,22.71-20.7,36.99-27.05,1.05-.47,2.13-.88,3.21-1.27,1.54-.55,3.08-.31,3.89,1.09,.75,1.31-.72,2-1.49,2.74-13.85,13.27-27.1,27.06-38.67,42.43-10.55,14.02-18.81,29.45-28.07,44.26-1.83,2.93-3.58,5.91-5.43,8.83-1.94,3.08-3.55,3.05-5.5-.14-3.5-5.73-6.34-11.79-8.86-18-2.33-5.74-4.97-11.31-8.3-16.54-2.09-3.28-4.57-5.96-8.99-5.83-2.58,.07-1.9-1.78-1.24-3.06,2.54-4.86,6.95-6.67,11.91-7.12Z"/></g><g id="c"><path d="M978.89,897.91c.43-3.95,.99-7.74,3.38-11.25,10.05-14.78,20.43-29.32,32.34-42.76,2.41-2.72,2.46-5,1.07-8.25-4.22-9.85-8.43-19.73-11-30.15-1.57-6.39-.01-8.4,6.58-8.55,.58-.01,1.16-.35,1.72-.58,5.91-2.44,7.27-1.97,9.26,3.94,1.97,5.83,4.67,11.32,7.49,16.78,2.32,4.49,2.67,4.55,5.81,.72,7.15-8.73,15.16-16.7,23.07-24.77,2.5-2.54,4.96-4.61,8.08-.77,.9,1.1,1.86,1.02,2.75,.03,1.85-2.04,3.74-2.02,5.62-.11,1.93,1.97,2.59,4.27,1.04,6.66-1.17,1.79-2.61,3.44-4.1,5.01-9.49,10-18.07,20.71-26.55,31.52-2.06,2.63-2.37,4.9-.96,7.93,4.53,9.75,9.7,19.17,15.34,28.34,1.94,3.16,2.46,5.9-.85,8.43-1.33,1.02-1.83,2.4-1.94,4-.2,2.83-2.02,4.43-4.65,5.11-2.56,.66-4.09-1.05-5.51-2.74-5.99-7.1-11.02-14.85-16.21-22.49-2.94-4.33-3.2-4.29-6.4-.03-8.98,11.97-17.15,24.46-25.02,37.13-.57,.91-1.12,1.84-1.71,2.74-3.19,4.87-7.47,7.37-10.95,6.42-3.21-.87-7.73-8.11-7.71-12.31Z"/></g><rect class="q" x="33.05" y="36.97" width="1800.6" height="1043.05" rx="12" ry="12"/><line class="s" x1="933.34" y1="36.96" x2="933.34" y2="1079.15"/><g><rect x="31.29" y="36.97" width="1804.1" height="180.41" rx="12" ry="12"/><rect x="31.29" y="63.59" width="1804.1" height="153.79"/></g><line class="r" x1="933.34" y1="36.97" x2="933.34" y2="217.38"/><text class="ae" transform="translate(375.05 170.09)"><tspan class="p" x="0" y="0">Y</tspan><tspan x="57.87" y="0">ep!</tspan></text><text class="ae" transform="translate(1230.68 169.39)"><tspan x="0" y="0">Nope!</tspan></text><text class="ad" transform="translate(197.69 529.16)"><tspan x="0" y="0">N</tspan><tspan class="x" x="80.19" y="0">Y</tspan><tspan class="af" x="142.1" y="0">C</tspan><tspan x="222.9" y="0" xml:space="preserve"> based </tspan></text><text class="ad" transform="translate(198.6 708.46)"><tspan x="0" y="0">G</tspan><tspan class="k" x="83.25" y="0">r</tspan><tspan x="121.14" y="0">ass</tspan><tspan class="k" x="305.66" y="0">r</tspan><tspan x="343.55" y="0">o</tspan><tspan class="ab" x="408.9" y="0">o</tspan><tspan class="ah" x="472.41" y="0">t</tspan><tspan x="510.17" y="0">s</tspan></text><text class="ad" transform="translate(198.12 893.85)"><tspan x="0" y="0">Ou</tspan><tspan class="l" x="150.32" y="0">t</tspan><tspan class="o" x="189.67" y="0">w</tspan><tspan x="273.05" y="0">a</tspan><tspan class="k" x="337.91" y="0">r</tspan><tspan x="375.79" y="0">d </tspan><tspan x="0" y="122.61">accou</tspan><tspan class="w" x="316.57" y="122.61">n</tspan><tspan class="j" x="377.88" y="122.61">t</tspan><tspan x="413.43" y="122.61">abili</tspan><tspan class="ai" x="609.61" y="122.61">t</tspan><tspan class="aa" x="649.57" y="122.61">y</tspan></text><text class="ad" transform="translate(1098.45 528.41)"><tspan x="0" y="0">National</tspan></text><text class="ad" transform="translate(1098.45 712.32)"><tspan x="0" y="0">Phila</tspan><tspan class="w" x="238.71" y="0">n</tspan><tspan x="300.02" y="0">th</tspan><tspan class="k" x="400.56" y="0">r</tspan><tspan x="438.44" y="0">o</tspan><tspan class="t" x="503.79" y="0">p</tspan><tspan class="af" x="565.59" y="0">y</tspan></text><text class="ad" transform="translate(199.16 351.38)"><tspan class="a`" x="0" y="0">S</tspan><tspan x="74.3" y="0">olidari</tspan><tspan class="ag" x="378.61" y="0">t</tspan><tspan class="af" x="418.58" y="0">y</tspan></text><text class="ad" transform="translate(1098.88 351.24)"><tspan class="u" x="0" y="0">‘</tspan><tspan class="m" x="20.6" y="0">T</tspan><tspan x="68.9" y="0">o</tspan><tspan class="w" x="134.25" y="0">p </tspan><tspan x="218.73" y="0">d</tspan><tspan class="n" x="283.59" y="0">o</tspan><tspan class="y" x="346.73" y="0">w</tspan><tspan class="aa" x="432.31" y="0">n</tspan><tspan class="ab" x="493.38" y="0">’</tspan></text><text/><text class="ad" transform="translate(1098.07 892.59)"><tspan x="0" y="0">Judged </tspan><tspan class="t" x="400.92" y="0">b</tspan><tspan class="af" x="462.72" y="0">y</tspan><tspan x="518.63" y="0"> </tspan><tspan x="0" y="122.61">si</tspan><tspan class="v" x="82.02" y="122.61">z</tspan><tspan class="w" x="133.77" y="122.61">e </tspan><tspan x="217.63" y="122.61">o</tspan><tspan class="ac" x="282.98" y="122.61">r</tspan><tspan x="323.93" y="122.61" xml:space="preserve"> scal</tspan><tspan class="w" x="554.31" y="122.61">e</tspan></text><g id="d"><path d="M975.56,718.31c.43-3.95,.99-7.74,3.38-11.25,10.05-14.78,20.43-29.32,32.34-42.76,2.41-2.72,2.46-5,1.07-8.25-4.22-9.85-8.43-19.73-11-30.15-1.57-6.39-.01-8.4,6.58-8.55,.58-.01,1.16-.35,1.72-.58,5.91-2.44,7.27-1.97,9.26,3.94,1.97,5.83,4.67,11.32,7.49,16.78,2.32,4.49,2.67,4.55,5.81,.72,7.15-8.73,15.16-16.7,23.07-24.77,2.5-2.54,4.96-4.61,8.08-.77,.9,1.1,1.86,1.02,2.75,.03,1.85-2.04,3.74-2.02,5.62-.11,1.93,1.97,2.59,4.27,1.04,6.66-1.17,1.79-2.61,3.44-4.1,5.01-9.49,10-18.07,20.71-26.55,31.52-2.06,2.63-2.37,4.9-.96,7.93,4.53,9.75,9.7,19.17,15.34,28.34,1.94,3.16,2.46,5.9-.85,8.43-1.33,1.02-1.83,2.4-1.94,4-.2,2.83-2.02,4.43-4.65,5.11-2.56,.66-4.09-1.05-5.51-2.74-5.99-7.1-11.02-14.85-16.21-22.49-2.94-4.33-3.2-4.29-6.4-.03-8.98,11.97-17.15,24.46-25.02,37.13-.57,.91-1.12,1.84-1.71,2.74-3.19,4.87-7.47,7.37-10.95,6.42-3.21-.87-7.73-8.11-7.71-12.31Z"/></g><g id="e"><path d="M978.48,537.92c.43-3.95,.99-7.74,3.38-11.25,10.05-14.78,20.43-29.32,32.34-42.76,2.41-2.72,2.46-5,1.07-8.25-4.22-9.85-8.43-19.73-11-30.15-1.57-6.39-.01-8.4,6.58-8.55,.58-.01,1.16-.35,1.72-.58,5.91-2.44,7.27-1.97,9.26,3.94,1.97,5.83,4.67,11.32,7.49,16.78,2.32,4.49,2.67,4.55,5.81,.72,7.15-8.73,15.16-16.7,23.07-24.77,2.5-2.54,4.96-4.61,8.08-.77,.9,1.1,1.86,1.02,2.75,.03,1.85-2.04,3.74-2.02,5.62-.11,1.93,1.97,2.59,4.27,1.04,6.66-1.17,1.79-2.61,3.44-4.1,5.01-9.49,10-18.07,20.71-26.55,31.52-2.06,2.63-2.37,4.9-.96,7.93,4.53,9.75,9.7,19.17,15.34,28.34,1.94,3.16,2.46,5.9-.85,8.43-1.33,1.02-1.83,2.4-1.94,4-.2,2.83-2.02,4.43-4.65,5.11-2.56,.66-4.09-1.05-5.51-2.74-5.99-7.1-11.02-14.85-16.21-22.49-2.94-4.33-3.2-4.29-6.4-.03-8.98,11.97-17.15,24.46-25.02,37.13-.57,.91-1.12,1.84-1.71,2.74-3.19,4.87-7.47,7.37-10.95,6.42-3.21-.87-7.73-8.11-7.71-12.31Z"/></g><g id="f"><path d="M978.47,366.86c.43-3.95,.99-7.74,3.38-11.25,10.05-14.78,20.43-29.32,32.34-42.76,2.41-2.72,2.46-5,1.07-8.25-4.22-9.85-8.43-19.73-11-30.15-1.57-6.39-.01-8.4,6.58-8.55,.58-.01,1.16-.35,1.72-.58,5.91-2.44,7.27-1.97,9.26,3.94,1.97,5.83,4.67,11.32,7.49,16.78,2.32,4.49,2.67,4.55,5.81,.72,7.15-8.73,15.16-16.7,23.07-24.77,2.5-2.54,4.96-4.61,8.08-.77,.9,1.1,1.86,1.02,2.75,.03,1.85-2.04,3.74-2.02,5.62-.11,1.93,1.97,2.59,4.27,1.04,6.66-1.17,1.79-2.61,3.44-4.1,5.01-9.49,10-18.07,20.71-26.55,31.52-2.06,2.63-2.37,4.9-.96,7.93,4.53,9.75,9.7,19.17,15.34,28.34,1.94,3.16,2.46,5.9-.85,8.43-1.33,1.02-1.83,2.4-1.94,4-.2,2.83-2.02,4.43-4.65,5.11-2.56,.66-4.09-1.05-5.51-2.74-5.99-7.1-11.02-14.85-16.21-22.49-2.94-4.33-3.2-4.29-6.4-.03-8.98,11.97-17.15,24.46-25.02,37.13-.57,.91-1.12,1.84-1.71,2.74-3.19,4.87-7.47,7.37-10.95,6.42-3.21-.87-7.73-8.11-7.71-12.31Z"/></g><g id="g"><path d="M82.68,664.96c4.2,.15,7.46,1.92,10.36,4.48,3.25,2.88,5.69,6.43,7.89,10.12,1.17,1.96,1.99,2.44,3.5,.28,8.73-12.44,18.34-24.16,28.78-35.22,10.68-11.32,22.71-20.7,36.99-27.05,1.05-.47,2.13-.88,3.21-1.27,1.54-.55,3.08-.31,3.89,1.09,.75,1.31-.72,2-1.49,2.74-13.85,13.27-27.1,27.06-38.67,42.43-10.55,14.02-18.81,29.45-28.07,44.26-1.83,2.93-3.58,5.91-5.43,8.83-1.94,3.08-3.55,3.05-5.5-.14-3.5-5.73-6.34-11.79-8.86-18-2.33-5.74-4.97-11.31-8.3-16.54-2.09-3.28-4.57-5.96-8.99-5.83-2.58,.07-1.9-1.78-1.24-3.06,2.54-4.86,6.95-6.67,11.91-7.12Z"/></g><g id="h"><path d="M82.55,485.49c4.2,.15,7.46,1.92,10.36,4.48,3.25,2.88,5.69,6.43,7.89,10.12,1.17,1.96,1.99,2.44,3.5,.28,8.73-12.44,18.34-24.16,28.78-35.22,10.68-11.32,22.71-20.7,36.99-27.05,1.05-.47,2.13-.88,3.21-1.27,1.54-.55,3.08-.31,3.89,1.09,.75,1.31-.72,2-1.49,2.74-13.85,13.27-27.1,27.06-38.67,42.43-10.55,14.02-18.81,29.45-28.07,44.26-1.83,2.93-3.58,5.91-5.43,8.83-1.94,3.08-3.55,3.05-5.5-.14-3.5-5.73-6.34-11.79-8.86-18-2.33-5.74-4.97-11.31-8.3-16.54-2.09-3.28-4.57-5.96-8.99-5.83-2.58,.07-1.9-1.78-1.24-3.06,2.54-4.86,6.95-6.67,11.91-7.12Z"/></g><g id="i"><path d="M82.93,305.5c4.2,.15,7.46,1.92,10.36,4.48,3.25,2.88,5.69,6.43,7.89,10.12,1.17,1.96,1.99,2.44,3.5,.28,8.73-12.44,18.34-24.16,28.78-35.22,10.68-11.32,22.71-20.7,36.99-27.05,1.05-.47,2.13-.88,3.21-1.27,1.54-.55,3.08-.31,3.89,1.09,.75,1.31-.72,2-1.49,2.74-13.85,13.27-27.1,27.06-38.67,42.43-10.55,14.02-18.81,29.45-28.07,44.26-1.83,2.93-3.58,5.91-5.43,8.83-1.94,3.08-3.55,3.05-5.5-.14-3.5-5.73-6.34-11.79-8.86-18-2.33-5.74-4.97-11.31-8.3-16.54-2.09-3.28-4.57-5.96-8.99-5.83-2.58,.07-1.9-1.78-1.24-3.06,2.54-4.86,6.95-6.67,11.91-7.12Z"/></g></svg>