<?xml version="1.0" encoding="UTF-8"?><svg xmlns="http://www.w3.org/2000/svg" viewBox="0 0 1071.25 1928.37"><g id="a"/><g id="b"><g id="c"><g><path d="M192.94,922.86c-3.24,14.8-4.53,29.59-4.18,44.77,.71,30.26,11.12,58.01,20.59,86.06,2.97,8.79,4,17.51-.53,25.86-6.02,11.11-15.74,16.18-28.33,14.98-3.7-.35-4.71-.01-4.39,4.1,1.45,18.44-5.39,33.5-19.54,45.32-4.19,3.5-9.03,5.65-14.43,6.1-3.47,.28-4.4,1.71-4.2,5.04,.71,11.55-.46,22.86-6.57,33-10.21,16.95-24.72,28.16-44.78,30.09-13.52,1.3-23.9-5.52-29.5-17.46-11.94-25.48-16.14-51.92-7.12-79.5,8.17-24.99,19.68-48.53,30.85-72.23,14.01-29.75,24.91-60.62,31-92.95,4.21-22.36,6.37-45.06,8.9-67.68,.69-6.14,3.07-12.02,2.25-18.44-.39-3.08,2.41-5.65,3.34-8.63,2.5-8.04,4.94-16.1,7.54-24.1,4.25-13.11,10.28-25.41,16.82-37.51,16.02-29.63,30-60.33,47-89.46,8.91-15.26,19.85-29.1,29.55-43.79,8.45-12.81,14.38-26.85,16.3-42.31,2.13-17.11,7.02-33.57,12.09-49.95,8.19-26.44,18.02-52.28,33.13-75.62,11.41-17.62,24.51-33.93,43.32-44.48,9.54-5.35,19.74-7.25,30.67-6.13,6.94,.71,13.87,1.99,20.96,.88,3.55-.55,6.44-2.23,9.43-3.86,2.78-1.51,1.65-4.05,1.35-6.28-1.33-10.08-.39-19.9,3.2-29.45,1.45-3.86,3.7-7.24,6.26-10.37,2.12-2.58,1.61-4.13-.9-6.06-12.06-9.31-25.37-16.36-39.14-22.75-14.28-6.62-28.71-13.08-41.16-22.96-11.56-9.16-19.78-20.64-23.36-35.19-1.1-4.47-.76-8.71,1.61-12.64,1.37-2.27,1.38-4.24,.16-6.56-3.49-6.62-3.03-13.39,.38-19.76,7.13-13.32,14.69-26.41,21.85-39.72,3.82-7.1,2.9-14.49,.04-21.69-6.47-16.27-10.49-33.07-9.57-50.64,.92-17.47,3.63-34.74,8.17-51.66,1.35-5.05,2.04-10.02,1.86-15.22-1-29.73,10.76-54.16,32.27-73.81,10.73-9.81,23.09-18.14,38.42-18.54,13.61-.36,27.18-3.35,40.91-.33,17.86,3.93,34.35,10.89,49.88,20.44,21.94,13.49,36.82,33.33,49.68,54.95,13.3,22.35,32.77,35.19,58.42,38.9,6.29,.91,12.4,.52,18.45-1.55,5.75-1.97,11.54-3.87,17.39-5.49,18.33-5.04,35.64-2.14,52.61,6.07,14.7,7.12,30.46,8.33,46.04,3.6,7.76-2.35,13.58-8.71,19.47-14.3,15.83-15,32.87-28.37,52.88-37.31,42.17-18.84,83.99-18.29,124.34,4.87,29.77,17.09,43.06,48.49,36.59,80.57-3.23,16.03-7.23,31.64-16.91,45.19-1.87,2.61-2.2,5.81-3.28,8.72-11.95,32.05-31.08,58.46-60.33,76.97-7.9,5-15.68,10.2-23.7,15.03-11.59,6.97-15.41,17.81-10.87,30.41,2.75,7.62,6.04,15.04,9.08,22.56,1.71,4.22,2.56,8.68,3.23,13.14,.35,2.29,.94,5.02,.07,6.94-6.67,14.69-8.07,31.54-26.17,40.44-25.69,12.63-51.74,23.95-78.63,33.52-3.67,1.31-7.35,2.6-11,3.97-.85,.32-1.96,.73-1.95,1.79,.02,1.61,1.52,1.25,2.49,1.42,8.25,1.46,15.91,4.42,22.94,8.97,11.06,7.15,19.52,16.9,27.16,27.43,23.31,32.11,35.33,68.85,43.76,107.05,6.12,27.72,11.77,55.53,16.1,83.59,2.93,18.96,11.5,35.83,19.43,52.95,9.3,20.1,18.12,40.43,27.91,60.29,9.38,19.01,18.68,38.05,27.77,57.2,8.43,17.77,15.83,35.99,22.71,54.39,10.35,27.7,22.74,54.27,38.3,79.47,7.67,12.42,14.76,25.37,17.67,40.05,.35,1.75,1.62,3.34,2.58,4.94,12.93,21.7,27.13,42.64,39.38,64.75,16.08,29.04,24.32,60.17,21.86,93.44-2.1,28.29-12.34,53.35-33.56,73.05-7.43,6.9-15.97,11.93-26.14,13.75-18.7,3.34-36.72-8.16-41.54-26.56-2.78-10.6-2.18-21.37-1.31-32.1,1.64-20.19,4.71-40.27,5-60.56,.39-27.57-3.7-54.7-8.81-81.7-3.16-16.7-6.42-33.38-10.59-49.87-1.1-4.34-2.99-8.05-6.17-11.29-1.56-1.58-2.39-1.51-3.75-.18-2.06,2-3.48,4.4-4.41,7.09-2.1,6.09-3.38,12.36-3.33,18.8,.16,23.54-.55,47.08,.71,70.63,1.15,21.62-1.72,42.69-12.88,61.87-1.56,2.68-3.44,5.22-5.48,7.56-9.71,11.21-24.51,11.09-34.14-.22-6.99-8.2-9.72-17.96-10.27-28.51-.89-17.07,3.43-33.43,6.76-49.92,3.12-15.45,5.63-30.97,5.86-46.84-2.08,7.95-4.06,15.92-6.27,23.84-5.84,20.9-14.1,41-20.74,61.63-16.91,52.56-28.79,106.27-34.68,161.16-1.27,11.86-8.07,18.28-16.09,24.77-13.82,11.19-29.46,19.29-45.58,26.5-3.53,1.58-5.12,3.74-6.05,7.45-10.46,41.66-16,84.21-23.29,126.45-3.29,19.06-7.93,37.87-6.52,57.44,1.01,14.01,3.07,27.89,5.03,41.78,2.98,21.18,4.68,42.47,4.96,63.82,.17,12.48,3.53,24.08,7.69,35.45,2.67,7.31,10.01,10.43,16.75,13.35,12.48,5.41,25.85,8.02,38.77,12.06,10.41,3.25,21.17,3.92,31.87,4.45,33.49,1.66,66.98,2.27,100.48-.38,19.92-1.57,39.86-.6,58.14,8.47,23.38,11.6,31.66,36.68,9.63,56-18.32,16.07-40.32,19.95-63.96,16.6-15.68-2.22-29.99-8.19-43.8-15.67-20.48-11.09-42.2-18.75-65.31-21.78-12.86-1.69-25.83-1.22-38.63,1.51-3.91,.83-4.45,2.29-2.23,5.65,9.71,14.68,23.12,25.12,38.11,33.83,20.87,12.13,43.48,19.44,66.96,24.42,3.66,.78,7.26,1.82,10.9,2.7,16.75,4.04,28.03,13.17,32.85,30.73,4.09,14.89,1.39,27.35-8.1,38.83-8.67,10.49-20.14,16.52-33.08,19.99-24.46,6.55-46.21,.5-66.06-14.3-20.39-15.19-36.13-34.7-51.14-54.9-10.53-14.16-19.16-29.58-29.19-44.07-6.87-9.92-15.16-18.57-23.88-26.87-3.73-3.54-7.7-4.38-12.76-3.78-12.33,1.46-24.11,4.7-35.76,8.86-20.41,7.29-40.88,14.45-61.47,21.19-16.96,5.55-32.09,14.33-46.79,24.17-11.25,7.53-23.79,10.17-37.09,7.69-35.43-6.58-41.76-38.53-34.72-59.75,6.72-20.25,22.08-30.4,43.23-28.72,5.86,.46,11.36,2.64,16.38,5.28,20.16,10.59,41.01,10.22,62.39,5.16,12.47-2.95,24.58-6.97,36.57-11.47,8.09-3.04,14.65-8.25,20.87-13.93,4.63-4.22,4.3-6.67-.34-10.99-1.81-1.69-3.59-3.55-4.87-5.65-11.82-19.44-25.09-37.93-35.82-58.1-11.57-21.75-18.18-44.94-24.16-68.61-6-23.77-7.16-47.76-6.09-71.97,.88-20.08,5.34-39.55,12.11-58.43,5.13-14.29,7.07-28.97,7.46-44.05,.38-14.65,.97-29.3,.87-43.96-.02-3.34-.73-5.68-4.11-6.93-2.76-1.03-5.3-2.65-8.06-3.67-10.6-3.91-18.93-10.69-25.51-19.75-1.74-2.39-3.65-4.54-5.83-6.59-4.58-4.3-4.44-10.49-5-16.14-1.48-14.9-1.76-29.86-2.04-44.83-.5-26.43-5.29-52.07-14.98-76.72-.54-1.39-.67-3.05-2.55-4.44-1.27,7.97-2.48,15.6-3.71,23.22-5.41,33.68-14.76,66.2-26.22,98.38-5.67,15.94-18.34,20.94-30.64,26.73-20.51,9.66-42.82,14.33-64.87,19.36-3.59,.82-5.63,2.52-7.21,5.73-13.22,26.96-24.85,54.58-31.23,83.99-3.46,15.94-6.78,32.05-6.37,48.59,1.54,63.44-16.04,121.19-51.32,173.83-14.33,21.38-29.9,41.87-44.54,63.03-6.13,8.86-7.13,16.6-1.56,26.17,8.15,14.01,15.91,28.26,24.09,42.27,11.42,19.57,28.56,31.95,49.84,38.62,18.15,5.69,24.6,23.55,20.74,38.7-4.42,17.36-11.57,33.4-26.16,44.82-13.65,10.69-32.35,11.16-46.83,1.69-11.84-7.74-20.16-17.95-23.05-32.15-1.25-6.16-3.56-12.01-6.96-17.28-10.32-16.01-18.89-33.03-28.79-49.28-3.74-6.13-7.59-12.23-13.14-16.93-6.52-5.53-12.9-8.59-22.25-2.09-13.6,9.46-26.05,20.34-38.99,30.59-19.07,15.11-38.75,29.4-57.99,44.26-6.42,4.96-12.21,10.64-18.62,15.63-16.53,12.87-34.56,13.6-53.61,7.46-5.2-1.68-10.06-4.18-14.94-6.64-16.18-8.15-23.64-21.72-24.1-39.29-.39-14.98,2.81-28.9,14.75-39.38,10.78-9.46,23.37-12.61,37.37-10.45,3.37,.52,6.79,1.3,9.96,2.55,21.71,8.63,42.56,4.99,63.02-4.23,13-5.86,24.97-13.46,36.4-21.94,1.28-.95,3.52-1.84,2.69-3.82-.66-1.59-2.8-.87-4.28-.88-13.86-.08-27.21,3.2-40.57,6.31-16.24,3.78-32.18,8.84-48.65,11.68-3.16,.54-5.68,2.71-8.67,3.38-20.98,4.71-41.14,3.57-58.38-10.84-13.7-11.45-14.81-30.56-4.71-45.23,10.22-14.84,24.95-19.06,40.78-16.04,25.45,4.86,50.97,6.13,76.7,6.97,17.83,.58,35.54,1.36,52.95-3.38,3.9-1.06,7.76-2.35,11.54-3.79,5.83-2.21,10.29-5.98,13.88-11.26,26.01-38.29,44.95-80.21,63.25-122.46,11.75-27.13,20.61-55.25,26.3-84.26,1.49-7.58,1.59-15.5,1.78-23.27,.76-31.35-.32-62.7-1.21-94.03-.35-12.35,2.02-24.73-.5-37.08-.64-3.13-1.32-4.78-4.59-5.87-15.16-5.05-29.32-12.35-42.78-20.85-9.18-5.8-11.63-13.69-9.33-24.29,3.54-16.33,4.56-32.99,6.14-49.57,4.05-42.36-4.11-83.56-11.62-124.86-6.06-33.3-13.72-66.29-18.68-99.79-2.65-17.92-3.77-35.97-3.42-54.08,.08-4.12-.53-7.99-2.04-11.86-5.15-13.18-9.24-26.7-12.92-40.45Zm654.13-124.07c.2-19.82-.94-37.09-2.97-54.27-2.72-23.01-5.03-45.91-15.86-67.34-8.94-17.68-16.98-35.69-28.46-52-17.61-25.01-39.62-44.66-67.26-57.92-18.24-8.75-37.7-12.91-57.58-15.45-10.65-1.36-21.21-4.14-32-3.69-15.69,.66-31.25,3.05-46.98,3.58-9.37,.31-9.25,.77-6.88,9.74,5.86,22.18,9.15,44.9,14,67.29,3.2,14.79,6.18,29.66,7.15,44.75,1.47,22.71,4.66,45.24,6.37,67.94,1.85,24.63-2.48,46.35-19.2,65.63-20.31,23.41-43.55,43.74-65.51,65.41-3.95,3.9-8.82,3.63-12.98-.32-2.36-2.25-4.4-4.84-6.49-7.36-9.27-11.14-17.64-23.06-27.96-33.28-20.83-20.63-38.37-43.84-54.41-68.27-2.99-4.55-3.29-8.68-.68-13.52,6.21-11.54,11.53-23.52,16.56-35.62,12.37-29.81,24.24-59.85,38.73-88.73,5.73-11.42,12.81-22.12,18.06-33.82,4.72-10.52,9.36-21.09,15.14-31.12,2.33-4.04,4.2-8.36,6.27-12.55,.92-1.87,1.26-3.6-1.27-4.53-8.76-3.24-17.36-7.1-26.33-9.57-7.1-1.95-13.37-4.99-19.27-9.15-3.69-2.61-7.29-5.36-11.09-7.81-5.01-3.23-10.37-5.53-16.42-6.36-13.74-1.88-25.59,2.7-36.29,10.59-16.56,12.21-32.27,25.52-49.26,37.18-5.13,3.52-9.47,8.09-13.5,12.88-20.32,24.16-38.11,50.09-55.14,76.65-32.33,50.43-56.86,104.11-71.14,162.49-9.79,40.04-12.85,80.22-6.86,121.04,.46,3.16,.63,6.31,5.35,5.66,1.99-.28,3.85,1.1,5.65,2.04,24.13,12.52,49.05,22.82,75.15,30.84,49.48,15.21,99.5,23.04,151.28,16.94,41.32-4.87,82.8-8.3,124.03-13.95,51.6-7.08,100.91-21.37,146.77-46.51,42.95-23.55,79.29-54.79,109.52-93.38,8.65-11.04,15.09-22.04,11.76-34.09Zm28.97,198.63c.21-10.3-1.06-20.52-1.89-30.77-.23-2.79-1.43-3.65-4.29-3.25-7.57,1.05-15.21,1.13-22.85,1.38-15.19,.5-28.91-3.68-41.65-11.71-12.97-8.17-23.53-18.95-33.14-30.7-2.67-3.27-4.45-3.09-7.59-.84-11.68,8.36-24.14,15.48-36.84,22.18-49.34,26.04-102.27,40.1-157.33,46.97-15.15,1.89-30.32,3.61-45.5,5.3-3.08,.34-4.34,1.52-4.03,4.79,1.33,14,1.01,28.07,.41,42.06-.85,19.81-.1,39.56,.37,59.34,.41,17.58,7.53,30.29,24.82,35.98,9.7,3.19,16.85,9.54,21.84,18.05,16.7,28.5,25.84,59.35,27.04,92.39,.4,10.89,.63,21.83-.6,32.72-.15,1.3-.78,3.05,.7,3.86,1.4,.77,2.6-.61,3.81-1.22,2.23-1.12,4.39-2.37,6.64-3.46,15.9-7.66,33.04-11.26,50.18-14.45,34.76-6.47,69.65-7.55,104.53-.52,15.34,3.09,30.06,8.18,44.59,13.85,3.42,1.34,4.97,.92,5.53-3.19,1.21-8.96,2.83-17.86,4.51-26.75,9.35-49.4,20.83-98.19,38.66-145.37,12.96-34.3,21.92-69.59,22.11-106.63Zm-367.67,32.04c0-8.58,.03-17.16-.01-25.74-.02-5.35-.59-5.89-6.01-5.44-4.04,.33-8.05,.9-12.08,1.34-22.3,2.44-44.6,5.1-67.03,5.88-26.63,.94-52.92-2.13-78.85-8.16-3.37-.78-5.28-.19-7.38,2.71-9.12,12.56-19.65,23.84-32.33,32.89-18.93,13.51-40.31,20.06-63.34,21.57-8.98,.59-8.93,.49-7.2,9.49,5.25,27.26,10.51,54.51,15.66,81.79,4.63,24.52,8.77,49.13,9.51,74.14,.49,16.53-.56,33.03-2.36,49.47-.16,1.45-1.05,3.44,.53,4.29,1.33,.72,2.38-1.07,3.49-1.84,10.62-7.39,21.1-14.94,33.74-18.8,33.59-10.25,67.87-12.87,102.68-9.55,36.52,3.48,70.56,15.2,103,31.9,3.5,1.8,4.79,1.11,6.06-2.4,13.61-37.79,25.64-75.94,28.87-116.32,.36-4.51-.66-7.15-4.99-9.12-10.79-4.91-18.69-12.41-19.87-25.08-.39-4.19-1.13-8.38-1.08-12.57,.32-26.82-1.07-53.63-1-80.44ZM329.59,136.83c-1.15,6.54-1.58,12.25-1.9,17.99-1.46,26.12,3.36,50.49,19.65,71.75,.75,.97,1.39,2.11,1.77,3.27,.84,2.58,.33,4.96-1.67,6.87-1.99,1.9-4.46,2.72-6.83,1.19-3.29-2.13-5.04-.64-6.84,1.99-6.45,9.39-10.08,20-13.47,30.73-.89,2.8,.26,3.62,2.8,3.88,10.7,1.1,21.41,1.1,32.16,1,28.31-.27,55.28-6.9,81.53-16.85,22.77-8.63,44.34-19.97,66.51-29.97,23.06-10.4,46.22-20.37,71.77-23.15,21.21-2.31,42.04-1.21,62.21,6.18,20.43,7.49,36.62,21.09,51.38,36.57,14.86,15.58,29.9,30.96,46.09,45.18,24.05,21.11,48.37,41.87,76.89,56.94,8.55,4.52,17.11,9.14,26.97,10.09,5.12,.49,5.69-.31,4.1-5.02-.89-2.66-1.96-5.26-3.07-7.83-3.4-7.87-7.01-15.66-8.81-24.12-1.4-6.56-.47-12.66,2.86-18.49,5.21-9.14,12.2-16.25,21.45-21.59,19.79-11.41,38.67-24.1,52.5-42.89,3.22-4.37,6.58-8.66,8.68-13.82-5.49,2.97-10.63,6.26-16.46,8.08-23.17,7.22-45.55,4.75-67.21-5.74-3.37-1.63-6.77-3.08-10.33-4.29-8.69-2.96-17.68-5.35-25.25-10.86-14.12-10.29-23.42-24.26-30.95-39.79-3.68-7.59-2.77-13.22,2.31-19.98,13.59-18.09,27.94-35.55,42.19-53.09,13.37-16.46,30.29-27.67,50.99-32.92,.68-.17,1.71,0,1.96-1.12-9.94-.49-19.75,.22-29.34,2.45-27.74,6.46-49.46,22.14-66.69,44.41-4.58,5.92-8.26,12.61-13.32,18.05-16.09,17.29-33.79,22.25-56.94,10.76-10.86-5.39-22.4-8.54-33.88-11.99-8.87-2.66-17.84-2.63-26.77-.15-4.06,1.13-8.14,2.16-12.15,3.45-18.35,5.92-36.58,4.86-54.73-.83-3.73-1.17-7.36-2.68-10.25-5.44-12.82-12.21-25.73-24.21-33.76-40.56-4.8-9.77-11.33-18.65-18-27.29-8.3-10.75-17.9-20.12-29.87-27.09-.04,.47-.12,.66-.06,.76,.64,1.07,1.28,2.13,1.95,3.18,12.83,20.25,20.86,41.91,18.4,66.33-.87,8.64-.2,17.09,.91,25.6,1.61,12.36,3.15,24.74,4.58,37.12,1.01,8.77-.16,10.63-8.09,14.75-9.94,5.17-20.63,7.99-31.55,9.91-22.72,4.01-45.66,1.75-67.88-1.84-29.72-4.81-53.33-20.41-65.17-49.95-.16-.4-.52-.73-1.33-1.83Zm385.06,1158.05c-9.26-.43-19.49,.78-29.71,1.95-15.33,1.77-30.64,3.71-45.62,7.66-3.47,.92-5.14,2.09-4.66,6.32,3.1,27.47,3.4,55.06,2.94,82.67-.12,7.32-.57,14.64-.86,21.96-.44,11.1-1.65,22.09-5.06,32.71-6.34,19.75-12.18,39.49-14.02,60.42-3.55,40.26,4.44,78.62,18.08,115.95,10.08,27.57,27.86,51.09,43.11,75.9,1.53,2.49,3.61,3.9,6.56,4.73,4.21,1.18,7.12,4.11,8.72,8.42,3.25,8.71,.22,16.15-5.07,22.59-7.1,8.66-16.62,14.54-26.17,20.17-17.75,10.48-36.56,18.89-55.11,27.81-7.87,3.78-15.91,7.14-24.3,9.71-16.75,5.13-24.46-2.67-25.92-16.96-1.17-11.43-9.91-17.09-20.11-20.42-7.32-2.38-13.83-.36-19.64,4.3-10.24,8.23-13.84,23.56-9.03,38.12,3.57,10.78,14.69,18.15,27.47,19.12,11.68,.89,21.4-3.53,30.39-10.06,13.54-9.82,28.53-16.54,44.27-21.87,18.02-6.09,35.98-12.35,53.92-18.66,13.68-4.82,27.25-9.97,41.84-11.46,.88-.09,1.99-.42,2.51-1.04,3.49-4.14,7.09-3.85,11.6-1.38,2.78,1.52,5.11,3.32,7.53,5.27,16.49,13.3,29.18,29.74,40.28,47.6,17.33,27.91,36.36,54.45,61.36,76.21,18.31,15.94,38.72,23.7,62.97,16.66,11.66-3.39,21.89-9.09,28.18-20.15,9.18-16.16-1.94-35.5-20.45-35.72-11.84-.14-23.23,2.31-34.51,5.51-15.96,4.54-30.49,1.7-43.86-8.01-5.69-4.13-11.19-8.48-16.3-13.28-9.24-8.68-17.71-17.86-22.15-30.23-3.84-10.7-8.08-21.29-13.49-31.34-1.8-3.35-2.21-7.14-3.1-10.75-.92-3.74,1.43-6.99,5.35-7.19,3.06-.15,5.77-1.14,8.59-2.02,14.8-4.59,29.95-5.93,45.31-4.41,26.65,2.63,51.21,11.82,74.63,24.39,9.67,5.19,19.63,9.52,30.4,11.84,18.08,3.91,35.61,3.16,52.26-5.81,5.46-2.94,10.28-6.7,13.48-12,6.34-10.52,.79-22.83-7.89-24.8-9.31-2.11-18.82-.91-26.58,6.57-4.58,4.41-8.2,9.82-13.82,13.19-11.37,6.82-23.25,5.82-35.32,2.6-16.15-4.31-31.52-10.94-47.37-16.12-18.39-6.02-37.4-9.8-56.12-14.62-23.24-5.98-46.01-13.67-69.48-18.82-4.16-.91-7.81-2.97-11.32-5.39-9.49-6.55-14.39-16.21-18.26-26.54-7.43-19.86-9.95-40.84-14.1-61.47-6.71-33.34-7.63-66.75-3.48-100.48,2.73-22.17,8.86-43.63,12.7-65.58,5.21-29.77,11.38-59.4,16.72-89.18,3.58-19.98,9.93-39.3,15.17-58.88,.88-3.3,.69-4.66-3.26-5-6.38-.55-12.75-.81-20.2-.75Zm-355.38-17.9c-16.14-.41-33.8,2.14-51.18,7.07-4.15,1.18-5.58,3.17-5.63,7.56-.21,19.99,1.22,39.86,2.83,59.77,2.21,27.34,6.75,54.15,16.2,79.97,6.25,17.07,11.06,34.4,12.49,52.62,1.96,25.1-.18,49.45-10.95,72.69-8.54,18.42-18.74,35.96-27.63,54.18-12.17,24.95-23.38,50.37-36.18,75.01-9,17.33-18.89,34.11-31.99,48.77-4.11,4.59-8.4,8.92-14.55,10.54-7.24,1.91-14.53,3.53-22.06,3.95-7.47,.41-14.83,1.36-22.13,3.31-18.83,5.04-37.63,10.23-56.83,13.74-17.86,3.26-34.85,2.14-50.8-8.2-10.3-6.67-22.09-9.97-34.62-10.1-5.83-.06-9.31,2.7-11.48,7.78-3.42,8.02-.78,17.46,6.5,23.55,7.45,6.24,16.37,7.94,25.67,8.75,7.58,.66,14.49-1.25,21.71-3.53,10.2-3.23,21.05-4.31,31.44-7.15,20.32-5.54,40.75-10.56,61.84-12.28,6.47-.53,12.99-.61,18.78,2.42,9.2,4.82,11.56,10.89,6.7,19.44-1.23,2.17-2.47,4.36-3.95,6.35-13.38,17.95-28.46,34.3-46.38,47.82-16.29,12.29-25.01,12.31-40.9-.42-12.52-10.03-26.12-17.36-41.97-20.56-10.95-2.21-19.51,1.69-26.02,9.85-8.14,10.2-7.68,22.35-5.75,34.44,1.6,9.97,8.72,15.64,17,19.81,22.01,11.09,40.61,12.35,60.17-6.05,7.38-6.95,15.36-13.2,23.56-19.19,25.43-18.58,50.12-38.13,74.5-58.06,6.52-5.33,13.51-10.07,21.36-13.33,2.48-1.03,5.11-1.94,7.73-.95,6.67,2.53,13.48,4.58,19.14,9.44,6.39,5.49,11.3,12.08,15.64,19.09,7.79,12.6,14.86,25.64,22.78,38.15,7.74,12.21,13.7,24.96,17.78,38.94,3.31,11.36,12.29,18.95,23.88,21.72,11.72,2.8,21.97-.86,29.43-10.7,8.43-11.1,14.68-23.16,15.35-37.47,.15-3.16-1.13-5.27-3.54-7.57-5.18-4.94-11.45-6.73-18.06-8.1-8.96-1.86-18.05-.62-27.07-1.01-19.8-.86-44.26-13.05-50.37-38.88-2.25-9.53-4.12-19.12-7.36-28.48-9.33-26.95-5.3-52.19,11.54-75.31,10.34-14.19,23.01-26.23,35.67-38.24,8.13-7.71,15.69-16.28,21.49-25.41,28.2-44.42,39.81-93.74,39.52-146.04-.15-26.32,4.47-51.88,12.31-76.8,13.85-44.06,34.7-84.78,60.56-122.97,1.9-2.8,1.77-4.22-1.69-5.31-26.88-8.5-54.11-14.95-84.48-14.6Zm-35.11-953.71c2.49,3.27,4.52,4.86,6.86,6.14,6.45,3.52,13.13,6.51,20.12,8.78,9.05,2.93,18.01,5.98,26,11.45,9.37,6.41,19.98,10.79,28.79,18.2,18.61,15.64,36.04,32.54,53.87,49.03,26.41,24.42,56.19,43.91,89.81,57.28,7.25,2.88,14.54,4.4,22.28,4.37,29.86-.09,57.61-8.23,83.61-22.42,30.84-16.84,63.2-29.56,97.29-38,14.1-3.49,28.6-4.77,42.75-7.98,6.08-1.38,11.63-3.82,17.09-7.52-.94-.45-1.33-.72-1.76-.82-1.06-.27-2.13-.48-3.2-.68-36.01-6.78-70.26-18.05-101.1-38.55-19.23-12.78-38.03-26.17-56.46-40.05-27.91-21.02-58.46-29.41-93.2-22.84-23.46,4.43-46.55,10.3-69.76,15.74-26.26,6.16-52.51,12.24-79.58,13.66-18.85,.99-37.68,1.86-56.44-1.03-8.58-1.32-17.11-2.99-26.98-4.73ZM58.46,1148.75c-.04,13.4,4.45,33.69,9.38,44.28,1.54,3.31,3.61,6.17,6.52,8.42,1.89,1.46,3.19,1.28,5.21-.39,10.76-8.86,15.47-20.76,18.08-33.94,2.7-13.66,3.32-27.54,4.37-41.35,2.33-30.46,4.5-60.95,8.79-91.18,2.84-20.05,4.36-40.69,16.35-58.32,2.92-4.29,6.37-7.43,11.65-7.41,5.23,.02,8.54,3.43,10.87,7.74,1.79,3.31,2.68,6.97,3.38,10.66,3.96,20.86,5.28,42.03,7.49,63.1,1.11,10.65,5.24,20.2,13.55,27.44,5.65,4.92,15.02,4.68,20.09-.42,1.26-1.26,3.27-2.86,.18-4.25-4.26-1.92-6.62-5.6-9.01-9.24-10.21-15.55-15.59-32.89-18.63-51.05-2.9-17.37-1.29-34.72-.42-52.2,1.43-28.52,10.77-54.95,18.93-81.76,1.2-3.95,4.06-7.13,5-11.44,6.21-28.65,13-57.11,22.98-84.8,15.63-43.38,33.52-85.72,56.33-125.79,17.15-30.13,38-57.85,59.14-85.28,9.9-12.84,19.63-25.94,32.48-36,15.15-11.87,28.27-25.87,42.21-39.01,6.81-6.42,12.28-14.08,16.76-22.39,2.06-3.82,1.69-6.53-2.53-8.69-4.01-2.05-7.79-4.58-11.47-7.2-1.76-1.25-2.74-1.13-4.4,.16-9.85,7.66-20.87,10.64-33.35,8.48-9.53-1.65-18.73-.62-26.51,5.94-6.95,5.85-13.21,12.41-18.23,19.98-15.21,22.93-28.01,47.18-38.48,72.63-4.95,12.05-13.4,22.54-15.59,35.84-.75,4.58-2.47,9.02-3.88,13.47-7.46,23.43-16.42,46.06-31.94,65.65-15.45,19.5-27.83,41-39.25,63.04-9.61,18.55-18.29,37.64-28.77,55.68-12.74,21.95-20.18,45.73-27.34,69.74-.22,.74-.28,1.54-.48,2.29-5.51,20.44-6.55,41.57-8.98,62.43-4.49,38.54-16.09,74.92-31.24,110.31-9.32,21.78-20.6,42.69-29.14,64.84-5.18,13.44-9.78,26.98-10.1,40.01Zm797.92-419.43c2.58,23.42,4.31,46.86,4.38,70.41,.01,4.31,.97,8.68,1.94,12.93,7.17,31.61,16.37,62.72,22.8,94.53,3.18,15.75,6.18,31.51,8.79,47.36,2.41,14.63,2.55,29.55,5.38,44.07,6.35,32.6,13.25,65.08,16.32,98.23,1.84,19.85-.49,38.89-9.47,56.89-2.58,5.16-5.52,9.86-11.73,11.13-1.39,.28-1.85,.85-1.21,2.26,2.04,4.51,9,6.34,12.86,3.23,2.43-1.97,4.44-4.34,6.04-7.08,9.59-16.39,11.95-34.52,10.97-52.86-1.15-21.51-1.34-43.01-1.29-64.52,.02-9.34,.76-18.7,3.43-27.77,1.87-6.36,4.56-12.3,9.45-16.97,6.82-6.52,14.43-6.73,21.86-.91,6.33,4.96,11.64,10.79,16.09,17.47,17.21,25.86,28.05,54.56,37.28,83.94,7.35,23.42,11.18,47.28,8.35,71.94-2.1,18.27-7.43,35.36-17.5,50.84-3.37,5.18-7.68,9.42-13.49,11.88-6.34,2.68-6.73,3.58-4.3,10.07,.94,2.51,2.32,4.74,4.17,6.7,9,9.56,23.02,10.06,35.27,1.21,16.32-11.78,25.94-28.17,30.9-47.18,9.6-36.78,2.51-71.68-14.89-104.48-15.42-29.07-34.11-56.26-51.22-84.36-6.65-10.91-13-22.02-21.93-31.33-7.59-7.91-14.14-16.54-19.58-26.11-11.63-20.49-21.51-41.51-23.78-65.42-1.18-12.5-4.87-24.38-9.44-36.08-6.65-16.99-13.37-33.93-20.29-50.82-11-26.86-24.28-52.64-36.16-79.22ZM412.47,165.91c1.57,0,3.91,.04,6.24,0,29.55-.52,53.44-20.06,58.78-49.13,4.96-26.96-.84-52.03-17.5-73.77-16.46-21.46-43.17-30.39-69.64-18.96-37.58,16.23-68.04,64.6-41,114.84,5.97,11.1,14.41,18.91,26.78,22.43,11.66,3.32,23.47,4.86,36.33,4.59Zm-80.68,140.51c-2.25,.28-5.47-.74-8.36,.95-1.75,1.02-3.75,2.1-3.69,4.44,.07,2.61,2.44,3.07,4.36,3.48,14.64,3.1,29.28,6.35,44.3,6.84,30.66,1,61.02-1.49,91.06-8.05,30.15-6.59,59.94-14.64,90.19-20.84,37.15-7.61,71.08-1.84,101.91,21.15,18.24,13.6,36.78,26.83,55.64,39.6,33.5,22.68,70.76,34.92,110.3,41.41,5.12,.84,8.36-1.06,11.54-4.2,1.04-1.03,2.78-1.9,2.02-3.81-.59-1.48-2.13-1.79-3.51-1.96-22.43-2.71-42.53-11.65-61.9-22.78-17.58-10.1-35.38-19.82-51.7-31.91-21.17-15.69-41.61-32.32-62.16-48.79-10.92-8.75-22.48-16.13-36.44-19.28-21.05-4.74-41.78-3.25-62.45,2.21-18.24,4.82-36.43,9.85-54.92,13.62-34.82,7.1-70.11,11.79-104.75,19.84-19.95,4.64-40.11,7.58-61.42,8.09ZM884.48,82.7c-2.34,0-4.68-.06-7.01,0-24.67,.75-43.83,11.53-57.97,31.64-11.01,15.66-14.01,33.22-13.5,51.95,.46,17.02,7.94,29.48,22.42,37.91,12.41,7.23,25.93,11.68,40.04,13.67,15.43,2.17,30.33-.03,43.07-9.87,23.41-18.1,35.22-42.47,36.53-71.7,.56-12.44-4.94-23.59-11.13-34.25-4.45-7.65-10.52-12.77-19.19-15.01-10.93-2.82-21.95-4.65-33.26-4.35Zm-44.39,285.29c-2.71-.45-4.68-.68-6.6-1.12-14.22-3.23-26.7-10.41-38.97-17.81-28.61-17.26-53.24-39.59-77.85-61.93-14.68-13.33-27.69-28.31-41.91-42.11-21.9-21.26-47.72-32.84-78.51-33.02-22.47-.13-43.98,4.22-64.72,12.65-23.13,9.39-45.59,20.26-68.14,30.92-44.75,21.17-91.43,31.64-141.08,26.61-1.42-.14-3.27-1.33-4.26,.5-.93,1.72-.49,3.66,.43,5.39,1.32,2.48,3.15,3.94,6.18,4.29,9.22,1.07,18.38,0,27.52-.68,16.85-1.26,33.17-5.58,49.67-8.89,52.26-10.48,105.08-18.17,156.49-32.8,16.16-4.59,32.89-4.54,49.66-2.42,22.86,2.89,41.04,14.64,58.24,28.82,34.55,28.49,69.73,56.06,109.68,76.94,16.83,8.8,33.72,16.89,52.75,19.56,4.71,.66,7.83-1.52,11.41-4.9Zm-6.57,278.09c-5.41-28.53-10.57-57.07-19.29-84.78-9.18-29.16-22.47-56.12-43.09-79.06-8.97-9.98-19.87-16.35-33.32-18.24-6.1-.85-10.94,.48-14.71,5.71-4.18,5.81-8.94,11.21-13.19,16.97-6.26,8.49-13.56,16.33-16.47,26.95-.76,2.76-.39,3.92,2.26,4.83,7.67,2.66,15.11,5.84,22.23,9.78,22.18,12.25,43.26,26.12,62.08,43.16,12.62,11.42,24.17,23.86,33.65,38.12,7.71,11.59,13.63,24.12,19.85,36.55Zm-232.43,49.31c-.73-8.64-1.37-16.4-2.06-24.16-.12-1.38,.09-3.22-1.17-3.87-1.75-.9-2.72,1.09-3.77,2.03-25.47,22.55-52.09,43.64-79.4,63.91-17.25,12.81-33.55,26.91-51.66,38.57-1.95,1.25-1.67,2.24-.43,3.68,6.2,7.21,12.42,14.41,18.52,21.7,1.69,2.03,2.92,1.55,4.6,.08,3.05-2.67,6.22-5.21,9.39-7.73,34.62-27.61,69.37-55.07,101.81-85.28,2.96-2.75,4.94-5.6,4.19-8.91Zm255.2,249.07c1.25,0,2.5,.08,3.74-.02,1.71-.13,3.4-.39,5.1-.58,5.67-.65,5.89-.92,4.92-6.75-1.74-10.45-3.37-20.92-5.29-31.34-3.79-20.53-7.39-41.11-13.78-61.05-.45-1.41-.48-3.51-2.31-3.7-1.52-.16-1.99,1.75-2.78,2.85-8.91,12.44-18.99,23.87-29.62,34.84-9.01,9.3-18.85,17.67-28.75,25.97-2.04,1.71-3.09,3.01-.93,5.66,18.02,22.11,40.98,33.99,69.7,34.11Zm-632.37,23.51c-.55,21.24,1.41,42.31,4.31,63.32,.66,4.79,3.82,4.08,6.88,3.89,23.77-1.45,44.57-11.07,64.14-23.77,6.29-4.08,11.59-9.47,16.11-15.51,3.5-4.68,3.36-4.94-2.24-6.59-19.43-5.75-39.09-10.83-57.64-19.16-7.82-3.51-15.38-7.59-23.16-11.18-6.08-2.8-8.2-1.35-8.38,5.26-.03,1.25,0,2.49,0,3.74Zm307.69-438.46c-1.27-5.78-2.77-11.53-3.74-17.36-.62-3.73-2.45-6.08-5.51-8.13-16.27-10.91-30.69-23.92-44-38.29-7.22-7.79-12.52-17.31-20.8-24-13.37-10.81-25.24-23.2-37.89-34.74-3.28-2.99-4.78-2.58-7.1,.77-4.93,7.14-5.01,15.09-5.14,23.31-.16,10.01,3.57,16.94,12.81,21.24,6.94,3.22,13.02,7.93,19.05,12.67,13.78,10.83,25.32,24.05,38.39,35.64,11.75,10.41,22.66,21.97,38.57,26.29,4.35,1.18,8.58,2.84,12.88,4.23,1.42,.46,2.95,.89,2.48-1.6Zm71.45,217.12c-1.95,.43-3.08,1.98-4.44,3.19-7.56,6.73-14.99,13.63-22.71,20.18-21.76,18.46-44.28,35.95-67.71,52.24-2.66,1.85-3.16,3.06-.82,5.7,6.71,7.59,13.44,15.19,18.77,23.86,1.85,3.02,3.49,2.9,5.7,.37,8.93-10.22,18.64-19.69,28.47-29.03,11.64-11.05,23.59-21.78,35.39-32.67,2.3-2.12,4.6-4.36,5.73-7.31,4.58-11.94,4.98-24.12,1.63-36.54Zm-139.85-25.24c.22,.23,.45,.46,.67,.7,5.62-4.14,11.19-8.34,16.87-12.41,34.5-24.71,67.82-50.96,100.75-77.71,6.58-5.34,11.48-11.34,7.14-20.55-.45-.96-.49-2.12-.68-3.2q-1.08-6.06-5.97-2.64c-31.35,22.1-62.19,44.89-92.32,68.63-4.48,3.53-9.58,7.09-11.98,12.2-5.37,11.4-9.72,23.28-14.48,34.97Zm-95.5,528.63c-22.15-1.13-44.58,3.31-66.83,9.08-15.66,4.06-28.52,13.04-40.61,23.27-3.33,2.82-6,6.4-6.18,11.14-.04,1-.61,2.38,.75,2.88,1.02,.37,1.58-.72,2.22-1.37,7.54-7.61,16.27-13.56,25.88-18.22,29.73-14.39,61.24-18.54,93.82-15.9,39.84,3.22,77.35,14.7,113.01,32.53,7.98,3.99,7.77,4.01,11.15-4.25,1.51-3.67,.85-5.51-2.75-7.3-40.79-20.26-83.44-32.85-130.46-31.85Zm345.69,18.69c-18.44-.35-35.39,.66-52.09,3.94-21.39,4.21-42.8,8.4-62.03,19.69-3.97,2.33-4.99,4.91-4.63,9.02,.31,3.53,1.28,4.41,4.6,2.46,7.26-4.28,14.99-7.62,22.82-10.71,17.42-6.89,35.77-9.55,54.17-11.94,21.5-2.8,43.02-4.55,64.7-1.56,21.22,2.92,41.79,8.58,62.41,14.06,1.76,.47,4.12,2.21,5.12-.82,.93-2.81,.13-4.9-3.12-6.16-30.04-11.68-60.85-19.27-91.95-17.97Zm-1.26-805.71c-1.59,.55-2.18,.64-2.64,.93-12.23,7.61-23.51,16.41-32.84,27.45-5.64,6.68-11.49,13.14-17.94,19.03-16.93,15.47-36.45,24.38-59.85,22.32-4.64-.41-6.82,1.48-8.92,4.98,2.22,1.12,4.37,.89,6.1,.13,9.52-4.2,19.82-3.62,29.77-5.21,14.13-2.25,28.33-4.33,41.65-10.08,6.99-3.01,11.88-7.75,14.23-15.11,2.8-8.77,8.02-16.06,13.88-23.06,5.55-6.63,10.62-13.67,16.56-21.39Zm-196.89,145.17l.89,.51c.53-.29,1.09-.53,1.57-.88,13.64-10.14,27.28-20.27,40.88-30.46,5.49-4.11,10.94-8.28,16.28-12.58,2.79-2.24,2.35-10.93-.73-11.71-4.83-1.23-9.79-2.85-14.6,1.2-7.86,6.63-15.95,13.02-24.28,19.06-4.98,3.62-8.6,7.8-10.8,13.61-2.73,7.21-6.12,14.18-9.23,21.25Zm-380.2,509.67c8.21-17.62,7.12-103.01-1.26-121.13-7.88,40.78,.84,80.9,1.26,121.13ZM450.38,184.17c14.75-.58,28.95-3.44,42.3-9.9,1.88-.91,3.49-2.11,3.46-4.52-.11-10.98-2.04-21.74-3.84-32.78-7.64,21.47-21.3,37.26-41.92,47.2Zm-212.41,863.21c1.32-.14,3.79-.42,6.27-.66,22.89-2.13,43.73-9.52,61.81-24.03,9.04-7.26,16.9-15.66,23.98-24.83,1.99-2.58,1.31-3.59-1.62-4.4-2.37-.65-3.38,.36-4.46,2.14-2.76,4.55-6.14,8.62-9.92,12.37-14.63,14.52-32.73,23.07-51.84,29.72-9.01,3.14-18.46,4.35-27.95,5.17-1.24,.11-3.24-.08-3.15,1.94,.08,1.87,1.75,2.38,3.39,2.54,.77,.08,1.56,.01,3.5,.01Zm609.98-89.64c6.98-.62,13.96-1.23,20.93-1.87,1.8-.16,3.6-.5,3.34-2.91-.27-2.47-2.26-1.65-3.66-1.6-6.67,.22-13.26,1.13-20.02,.25-17.57-2.29-34.33-6.5-48.32-18.13-6.85-5.69-12.96-12.15-18.84-18.82-1.19-1.36-2.36-3.37-4.56-1.6-2.48,1.98-.57,3.61,.75,5.06,4.19,4.62,8.27,9.36,12.73,13.7,16.05,15.59,34.24,26.55,57.66,25.94Zm-44.21-748.92c-18.93-20.36-23.3-43.5-14.18-69.68-6.48,7.92-12.32,15.94-18.13,23.98-1.39,1.92-.61,3.83,.14,5.77,3.37,8.65,8.22,16.43,14.03,23.61,5.17,6.4,10.36,12.81,18.14,16.32Z"/><path d="M548.74,998.71c9.99,.05,18.61,11.79,16.65,22.86-.38,2.11-1.12,4.24-2.12,6.14-4.97,9.49-15.14,13.95-23.32,10.38-8.44-3.68-12.22-14.25-8.74-24.42,3.28-9.58,9.63-15,17.53-14.96Z"/><path d="M415.95,82.53c-.22,9.58-1.84,19.21-4.96,28.6-1.57,4.72-3.5,9.31-4.72,14.17-1.01,4.03-3.75,6.96-7.97,7.67-4.1,.7-6.63-1.99-8.72-5.1-5.37-7.99-7.47-17.05-8.49-26.42-2.44-22.37,3.19-43.25,12.03-63.49,1.1-2.51,3.18-4.02,5.9-3.78,3.25,.29,6.08,1.8,7.38,4.98,5.63,13.8,9.37,28.04,9.55,43.37Z"/><path d="M919.46,118.46c-1.8,28.24-10.79,54.5-28.79,77.44-2.11,2.69-4.49,5.21-7.39,7.11-6,3.93-12.14,1.89-14.74-4.82-2.88-7.46-1.87-15.1-.72-22.64,4.36-28.8,15.94-54.58,32.91-78.09,1.33-1.84,3.1-3.01,4.96-4.17,5.12-3.18,8.82-2.07,10.87,3.69,2.39,6.69,2.25,13.79,2.89,21.48Z"/></g></g></g></svg>