<?xml version="1.0" encoding="UTF-8"?><svg id="a" xmlns="http://www.w3.org/2000/svg" viewBox="0 0 1920 1659.74"><path d="M408.33,784.26c-17.66,25.4-33.88,48.19-49.53,71.38-16.48,24.41-26.88,28.84-45.51,18.14-22.67-13.02-28.47-33.27-14.1-56.42,50.74-81.74,102.44-162.88,153.08-244.68,34.67-56,67.24-113.32,102.58-168.89,20.16-31.7,40.77-63.58,66.57-91.13,12.31-13.15,18.05-29.5,27.56-43.87,43.86-66.31,93.28-128.58,145.2-188.46,30.37-35.03,100.06-50.77,154.58-18.21,20.03,11.96,34.84,29.26,50.71,45.77,66.15,68.83,134.49,135.65,198.7,206.23,58.32,64.11,111.76,132.66,168.45,198.29,38.62,44.71,75.08,91.2,116.26,133.88,36.79,38.12,69.49,80.22,103.46,121.01,12.92,15.51,7.33,24.28-10.49,33.26-42.63,21.48-65.55-10.65-92.56-31.33-13.71-10.5-25.57-23.42-43.34-39.97,0,24.38-1.2,42.71,.23,60.84,4.05,51.56,1.42,103.28,4.03,154.77,3.63,71.73-1.11,143.6,6.62,215.3,6.83,63.37,5.57,127.25,6.56,190.99,1.07,69.27,3.11,138.37-3.78,207.48-1.31,13.19,1.73,26.75,1.54,40.12-.12,8.99-2.6,16.42-14.86,9.73-11.04-6.02-23.61-3.44-35.56-3.19-78.66,1.65-157.03,13.14-235.68,10.42-65.2-2.26-130.25-1.62-195.3,.82-95.87,3.59-192,4.58-287.63,3.26-73.86-1.02-147.48,4.29-221.2,1.98-14.67-.46-29.5,.35-44.09,2.06-12.93,1.51-18.58-1.74-18.44-15.84,1.21-117.8,2.75-235.61,2.52-353.41-.15-73.13-4.31-146.25-4.66-219.39-.39-80.7,4.49-161.28,10.25-241.78,.13-1.77-.81-3.61-2.17-9.14Zm663.39,629.79c-3.76,57.7,5.79,107.91,3.71,158.43-.56,13.53,5.17,19.38,19.02,19.4,23.47,.03,46.94,1.65,70.41,1.92,84.8,1,168.88-14.43,253.78-11.5,11.5,.4,14.18-5.94,15.12-16.43,3.6-40.26,4.51-80.54,3.67-120.91-1.61-77.36,.37-154.99-5.49-232.02-8.02-105.44-9.63-211.05-12.54-316.54-1.23-44.7,1.05-90.02,.64-135.04-.3-33.29,1.2-68.1-34.28-88.14-2.17-1.22-3.26-4.24-5.06-6.24-42.78-47.37-83.39-96.69-128.76-141.76-30.06-29.86-53.17-66.03-82.25-96.57-56.2-59.04-107.77-121.91-160.15-184.19-27.19-32.33-55.08-64.6-91.02-87.91-33.37-21.65-60.27-21.15-82.61,.61-42.86,41.75-80.51,88.19-118.12,134.51-27.49,33.86-47.67,73.37-73.71,108-25.52,33.95-49.31,69.05-70.65,105.15-46.52,78.67-90.28,159-139.12,236.33-6.72,10.63-9.43,21.67-9.16,34.38,.7,33.66,.68,67.34,.15,101.01-.71,45.06-3.43,90.12-2.99,135.16,.49,50.97,2.98,101.94,5.58,152.86,3.09,60.34-4.25,120.66,.8,181.04,2.29,27.4,3.95,55.32,1.36,82.57-4.66,48.97-5.66,97.9-5.39,146.95,.14,25.82,.41,26.28,26.01,22.35,93.93-14.41,187.93-1.59,281.86-.36,18.68,.24,23.1-3.83,23.1-21.54,0-39.09-5.02-78.01-4.5-116.97,1.59-120.93,2.52-241.9,11.87-362.6,2.43-31.4-2.8-63.18,5.68-94.37,3.3-12.14,8.65-17.92,21.88-18.66,79.88-4.48,159.77-7.69,239.81-6.96,37.69,.34,40.35,2.58,41.14,39.72,2.85,135.16-6.38,270.31,.23,398.34ZM888.24,59.92c-12.78,2.67-25.4,2.97-37.05,9.79-46.26,27.06-75.19,70.42-104.55,112.68-23.73,34.16-46.32,69.16-71.94,101.92-30.22,38.64-63.59,74.69-90.01,116.44-21.5,33.98-49.08,64.44-67.92,99.7-19.3,36.11-41.15,70.65-60.37,106.61-41.59,77.82-96.14,147.59-137.35,225.54-3.59,6.8-8.86,13.06,.2,18.96,9.46,6.17,13.79-2,17.23-8.07,31.94-56.33,74.62-105.36,108.55-160.3,39.92-64.65,71.96-134.08,113.3-197.56,58.23-89.41,116.02-179.51,186.31-260.49,27.73-31.95,53.81-65.03,88.85-90.2,24.87-17.87,49.07-18.79,75.88-8.6,31.77,12.07,56.02,34.8,78.55,58.62,64.13,67.78,118.93,143.77,184.1,210.76,34.17,35.12,62.74,75.53,96.23,111.02,45.18,47.88,87.34,98.44,133.16,145.78,41.14,42.49,82.84,84.29,125.48,125.22,6.04,5.8,13.02,9.55,21.83,8.2,4.65-.72,10.1-.72,12.77-4.95,3.33-5.27-2.07-8.63-4.79-11.95-28.57-34.79-54.07-72.94-86.74-103.35-70.37-65.49-121.97-146.46-186.19-216.86-38.47-42.17-73.67-87.37-112.8-128.9-69.09-73.32-144.27-140.79-208.48-218.91-18.55-22.56-44.94-35.89-74.25-41.1Zm-31.58,1170.52c-1.06-8.92,.23-22.15-14.32-20.61-17.23,1.83-18.28,17.55-19.22,30.88-.71,10.07,3.23,20.68,14.97,19.52,16.25-1.6,17.67-15.73,18.57-29.8Z"/><path d="M1605,1460.81c9.92-104.39,34.67-201.25,82.9-291.49,10.47-19.59-4.64-39.21,1.36-59.5-42.55,9.39-64.48-.67-83.63-36.69-13.98-26.29-6.46-55.87,20.11-81.36,12.36-11.85,30.87-16.62,41.04-27.69,8.94-9.74-4.93-29.24-2.24-45.54,3.62-21.91,15.67-38.21,29.87-53.67,5-5.44,11.38-6.2,18.56-4.26,22.32,6.06,44.31,12.26,55.12,36.05,5.08,11.19,10.47,11.86,20.85,3.32,33.4-27.51,63.93-25.16,93.49,2.02,18.92,17.4,11.51,35.92,5.66,53.85-4.71,14.46-12.51,28.28-24.61,38.82-9.07,7.9-13,14.96,1.87,22.12,22.62,10.89,28.89,31.74,25.48,54.32-3.73,24.61-19.56,41.11-43.85,47.64-13.54,3.64-29.33-.97-41.05,2.33-10.88,3.06-9.49,25.11-19.62,35.5-19.95,20.46-39.39,41.93-72.91,27.27-12.06-5.28-15.69,6.47-18.21,13.72-13.88,39.98-29.42,79.68-39.1,120.73-9.53,40.43-22.34,80.45-25.29,122.29-1.49,21.05-5.12,42.36,4.17,63.7,9.12-23.71,24.47-43.03,37.31-63.92,21.38-34.78,54.69-53.05,89.48-69.12,19.74-9.12,31.84-1.2,28.96,16.4-9.5,58.04-71.21,151.93-140.05,170.34-27.6,7.38-51.94,1.38-74.25-18.63-34.79-31.19-61.77-66.94-76.48-111.51-1.87-5.68-4.48-11.4-4.88-17.23-1.87-27.19,9.92-35.43,35.83-27.03,28.26,9.16,43.8,32.01,60.3,53.91,4.8,6.37,8.22,13.77,13.81,23.32Zm160.32-64.85c-42.09,16.23-109.34,98.12-113.86,137.21,41.2-11.49,103.08-85.15,113.86-137.21Zm-235.55,30.25c5.53,25.84,11.41,52.6,36.42,69.81,9.87,6.79,19.88,13.58,27.03,23.67,2.67,3.77,6.57,8.15,11.48,4.92,3.74-2.46,1.4-7.34,.37-11.17-10.5-39.21-37.74-66.88-65.21-94.33-1.62-1.62-4.99-2.73-7.19-2.28-4.47,.91-3.33,4.92-2.91,9.38Z"/><path d="M252.96,1422.45c10.68-17.48,21.4-33.64,33.15-49.23,5.93-7.88,13.33-13.43,21.77-17.49,20.54-9.88,33.88-2.27,34.64,20.34,1.41,41.46-13.36,79.18-30.05,115.88-9.97,21.94-18.65,44.7-32.82,64.65-17.71,24.94-27.94,28.25-53.4,11.62-59.66-38.99-106.62-87.5-115.78-162.8-1.07-8.82-1.6-17.27,.81-25.93,6.17-22.18,17.15-24.79,36.93-14.37,35.37,18.63,52.59,52.3,75.76,86.2-1.23-27.95-.06-52.62-4.03-76.43-3.72-22.31-1.14-44.25-2.37-66.31-2.25-40.23-5.63-80.45-6.15-120.71-.3-23.44,2.56-46.82-1.89-70.26-2.69-14.14-7.93-21.02-24.18-23.63-44.56-7.17-81.11-31.04-110.57-64.57-15.09-17.17,5.23-61.06,29.71-62.9,17.93-1.35,23.4-6.26,20.19-23.96-2.83-15.59,.38-28.76,19.43-34.1,18.65-5.22,31.25,1.17,41.75,15.41,2.38,3.23,4.03,6.99,6.21,10.39,7.53,11.75,14.63,14.84,26.82,3.49,19.68-18.32,38.05-19.63,56.71-7.53,10.21,6.62,18.37,16.48,17.82,27.9-1.83,38.11-1.35,77.75-38.91,102.7-6.68,4.44-12.85,9.87-18.48,15.61-6.08,6.22-11.58,12.85-8.44,23.1,11.96,39.16,11.92,79.5,11.36,119.92-.95,67.92,11.39,134.97,14,203.01Zm-111.44-38.06c-7.96,14.15-6.55,26.16-4.11,39.04,9.15,48.29,41.28,79.93,76.97,109.26,3.6,2.96,8.07,7.93,12.11,4.68,5.8-4.66-.44-9.22-2.69-13.8-2.62-5.33-5.01-10.95-6.35-16.72-11.25-48.69-36.71-88.44-75.94-122.47Zm115.8,154.17c7.31-.65,8.6-3.84,10.2-6.64,23.13-40.5,38.8-83.92,49.86-129.07,1.5-6.12,4.64-14.91-2.85-18.23-8.54-3.79-13.07,5.13-17.11,10.7-30.91,42.62-32.33,93.01-40.1,143.24Z"/><path d="M821.72,748.14c-22.16,0-44.32,.12-66.47-.05-12.79-.1-19.39-6.24-20.43-19.65-4.87-62.4-6.06-124.73-1.18-187.22,3.55-45.54,6.56-91.19,7.28-136.83,.27-17.13,7.39-21.55,21.25-21.79,32.96-.57,66.6,3.35,98.74-1.99,51.85-8.61,104.24-2.28,155.73-10.54,16.07-2.58,14.15,7.75,14.98,16.78,3.91,42.31,1.59,84.72-1.69,126.78-5.24,67.23-2.71,134.4-3.09,201.59-.08,14.7-.98,24.95-20.11,27.43-61.51,7.97-123.36,5.24-185,5.49Z"/></svg>