<?xml version="1.0" encoding="UTF-8"?><svg id="a" xmlns="http://www.w3.org/2000/svg" viewBox="0 0 1014 831"><defs><style>.b{fill:#fff;}</style></defs><rect x="-276" y="-432" width="1494" height="1590" rx="12" ry="12"/><circle cx="489.5" cy="378" r="588"/><g><path d="M449.86,722.93c-37.8,.16-75.45-6.23-112.36-17.47-20.47-6.23-40.56-13.36-59.5-23.45-8.95-4.77-16.75-11.2-25.15-16.74-9.74-6.42-17.07-14.97-24.52-23.62-11.44-13.28-24.93-24.29-39.06-34.6-11.07-8.08-21.61-16.86-32.05-25.72-8.05-6.83-16.68-12.82-25.32-18.84-10.03-6.98-18.05-15.95-25.08-25.87-4.54-6.41-8.8-12.98-10.91-20.6-1.74-6.28-4.2-12.34-5.15-18.87-.84-5.77,.61-10.97,2.76-16.12,.64-1.52,.91-2.96,.15-4.44-5.81-11.31-5.2-22.69-.57-34.2,6.2-15.39,12.43-30.77,17.91-46.45,1.01-2.89,2.6-5.59,3.99-8.34,1.45-2.86,1.21-5.99,1.52-9.03,.99-9.78-2.19-18.8-5.25-27.82-3.18-9.38-5.56-18.95-7.47-28.67-2.51-12.75-4.16-25.59-4.15-38.6,.01-15.6,1.03-31.16,2.59-46.68,1.21-12,2.58-23.97,4.7-35.86,1.17-6.54-.15-13.23-.54-19.83-.48-8.11-.18-16.16,.57-24.2,1.19-12.79,4.31-25.16,8.67-37.24,6.23-17.24,14.36-33.37,27.47-46.51,7.66-7.68,16.23-14.25,26.06-19.01,2.8-1.35,5.71-2.34,8.9-2.21,1.46,.06,2.89-.13,4.29-.64,.75-.27,1.68-.57,2.39-.37,6.29,1.8,12.3-.66,18.43-.98,7.1-.37,14.25-.9,21.39,1,4.79,1.27,9.73,2.16,14.59,3.24,.88,.19,1.87,.33,2.57,.82,4.82,3.36,10.41,5,15.71,7.3,12.34,5.34,23.25,13.03,33.97,20.98,13.52,10.03,25.07,22.03,35.06,35.53,10.77,14.55,19.89,30.13,28.36,46.1,3.06,5.77,6.12,11.54,9.29,17.25,3.02,5.44,8.03,9.12,12.51,13.13,4.99,4.46,9.72,9.22,15.11,13.29,8.17,6.16,17.05,10.59,26.92,13.19,4.92,1.3,9.89,2.3,14.93,2.92,7.78,.94,14.85-1.56,21.87-4.42,8.39-3.42,16.82-6.86,25.74-8.6,7.11-1.38,14.24-2.08,21.63-.95,6.93,1.06,13.78,2.16,20.38,4.47,5.92,2.08,11.46,4.99,16.71,8.45,2.67,1.76,5.86,2.38,8.83,3.43,10.37,3.66,21.16,4.61,31.97,3.5,9.71-.99,18.46-4.15,25.94-11.41,9.16-8.89,17.04-18.86,25.78-28.08,15.23-16.05,31.55-30.81,49.83-43.33,4.19-2.87,8.29-6.05,12.87-8.13,6.49-2.95,12.9-6.07,19.34-9.11,5.32-2.51,10.71-4.85,16.35-6.59,2.86-.88,5.63-2.05,8.52-2.78,11.63-2.93,23.31-5.24,35.41-5.54,11.22-.28,22.32,.43,33.3,2.35,12.83,2.24,25.16,6.23,36.67,12.48,4.38,2.38,8.71,4.87,13.05,7.33,.62,.35,1.42,.71,1.71,1.29,2.68,5.18,7.61,8.57,10.43,13.79,3.91,7.24,8.83,13.93,12.33,21.44,3.84,8.23,6.01,16.77,6.75,25.88,.93,11.27,.46,22.5-.37,33.68-.67,9.11-2.7,18.1-4.63,27.05-1.34,6.19-2.74,12.38-4.21,18.54-2.42,10.1-5.81,19.91-10.59,29.09-5.1,9.81-8.43,20.17-11.59,30.7-4.98,16.54-11.93,32.33-19.79,47.72-8.54,16.71-18.42,32.57-30.5,46.95-9.48,11.28-20.34,21.19-31.48,30.83-7.49,6.48-15.32,12.53-22.84,18.94-6.34,5.4-9.96,12.84-13.65,20.17-2.04,4.06-2.71,8.32-2,12.69,1.05,6.44,2.49,12.81,4.71,18.97,3.42,9.48,6.96,18.94,9.25,28.77,2,8.57,3.42,17.26,2.67,26.1-.29,3.35-1.36,6.58-3.15,9.49-1.82,2.96-2.78,6.1-3.47,9.58-1.18,5.91-1.97,11.96-4.49,17.59-3.18,7.1-8.19,12.77-14.26,17.25-7.59,5.6-14.93,11.53-22.8,16.76-7.96,5.28-16.82,8.97-24.75,14.26-9.82,6.55-20.37,11.54-31.56,15.26-12.19,4.05-24.74,6.55-37.34,8.95-17.4,3.32-34.72,7.09-52.08,10.61-20.31,4.11-40.69,7.83-61.29,10.12-11.55,1.29-23.14,2.3-34.77,2.34-4.46,.02-8.87,.83-14.2,.35ZM116.65,249.83c-1.04,1.11-.61,2.25-.7,3.28-.61,6.59-.28,13.24-.74,19.81-1.08,15.19,.78,30.11,3.33,44.95,2.03,11.79,5.41,23.31,9.63,34.54,2.83,7.53,4.76,15.48,9.93,21.97,1.47,1.85,2.84,3.77,4.18,5.72,1.89,2.75,2.49,5.86,1.98,9.11-.45,2.89-1.68,5.41-4.52,6.71-2.43,1.11-4.64,.38-6.63-1.13-2.93-2.22-2.92-2.26-4.89,1.04-4.08,6.84-6.64,14.29-8.97,21.85-2.65,8.59-4.63,17.34-6.37,26.15-.45,2.27,.27,3.28,2.58,3.74,4.11,.82,8.21,1.55,12.4,1.3,5.93-.35,11.79,1.37,17.64,.96,8.68-.61,17.39-.47,26.07-1.43,8.84-.98,17.63-2.24,26.21-4.43,5.4-1.38,10.77-3.08,16.13-4.72,9.89-3.02,19.68-6.33,29.09-10.53,11.34-5.06,22.26-11,33.19-16.92,16.5-8.94,32.85-18.15,49.48-26.88,17.83-9.36,35.66-18.63,55.07-24.36,6.07-1.79,12.18-3.41,18.44-4.52,3.31-.59,6.69-.6,9.95-1.38,5.6-1.35,11.37-.89,17.01-1.29,5.34-.38,10.95,.07,16.48,.83,6.72,.92,13.45,1.6,20.12,3.02,8.2,1.74,16.14,4.29,23.64,7.88,12.56,6.02,24.08,13.68,34.46,23.09,9.99,9.06,19.17,18.85,27.68,29.25,11.44,13.99,22.75,28.09,34.73,41.62,12.59,14.2,25.77,27.84,39.21,41.24,14.48,14.43,29.18,28.61,45.2,41.33,8.1,6.43,16.54,12.42,25.29,17.96,9.13,5.78,18.39,11.2,28.68,14.71,4.31,1.47,8.6,2.08,13.08,1.15,1.29-.27,1.96-.8,1.58-2.24-1.13-4.19-2.15-8.41-3.58-12.52-4.01-11.46-8.55-22.77-10.77-34.78-1.25-6.73-1.76-13.43-.29-20.26,1.52-7.06,4.7-13.32,8.3-19.43,2.81-4.76,5.51-9.57,9.4-13.63,9.19-9.61,20.54-16.67,30.14-25.85,8.11-7.76,16.8-14.85,24.24-23.38,13.89-15.95,25.04-33.6,34.47-52.43,.32-.63,1.11-1.25,.39-2.37-1.1,.89-2.23,1.65-3.16,2.6-12.51,12.77-28.11,19.19-45.39,22.17-3.3,.57-6.65,1.23-10.01,.88-6.47-.69-12.98-.61-19.45-1.83-7.01-1.32-13.76-3.12-20.21-6.17-4.03-1.9-7.61-4.69-11.72-6.32-4.69-1.87-9.65-3.05-14.45-4.67-11.03-3.74-21.24-8.83-29.48-17.37-3.17-3.29-5.87-6.9-8.65-10.5-11.23-14.53-19.3-30.68-24.77-48.14-1.37-4.37-2.01-8.74,.76-13.1,5.69-8.97,10.99-18.18,16.63-27.18,6.55-10.46,13.26-20.81,19.97-31.18,4.44-6.86,9.72-13.21,13.85-20.19,5.95-10.04,12.6-19.46,19.83-28.58,12.16-15.35,27.15-27.13,44.36-36.23,3.84-2.03,7.79-3.86,11.69-5.78-13.12,.81-25.67,3.7-37.96,8.03-11.21,3.95-21.68,9.25-31.18,16.29-12.64,9.37-24.25,19.92-34.66,31.75-3.3,3.75-7.04,7.19-9.81,11.29-7.99,11.8-15.47,23.95-22.18,36.52-6.72,12.58-17.16,21-29.42,27.39-6.81,3.55-14.03,5.3-22.05,3.64-6.63-1.37-12.9-3.44-19.11-5.98-4.66-1.9-8.51-5.29-13.13-7.14-11.94-4.78-23.95-9.42-36.34-12.99-6.55-1.89-13.26-2.72-19.92-1.62-8.41,1.39-16.44,4.36-24.52,7.06-10.43,3.49-21.04,6.03-32.16,5.8-5.17-.11-10.34,.14-15.34-1.66-2.89-1.04-5.82-2.09-8.83-2.63-7.47-1.34-14.67-3.57-21.28-7.18-15.64-8.55-27.01-21.53-36.31-36.43-8.02-12.84-14.07-26.68-19.06-40.9-3.83-10.94-9.43-20.81-15.91-30.23-8.21-11.93-17.52-22.93-28.52-32.44-2.69-2.32-5.79-4.08-8.31-6.62,1.6,3.47,3.43,6.69,5.2,9.95,11.25,20.82,19.87,42.63,22.9,66.22,1.5,11.68,1.88,23.51,.94,35.33-.32,3.98-.37,8,.22,11.97,1.44,9.57,2.32,19.22,3.96,28.77,.88,5.08,1.35,10.24,2.05,15.35,.75,5.46,1.67,10.91,2.3,16.38,.81,7.01,1.73,14.01,2.01,21.08,.1,2.47-.52,4.44-2.11,6.2-3.27,3.63-7.33,6.16-11.61,8.39-5.23,2.72-10.69,4.8-16.3,6.64-5.51,1.81-11.14,3.01-16.74,4.38-3.66,.9-7.4,.64-11.02,1.33-7.79,1.48-15.56,.84-23.28-.09-6.25-.75-12.31-2.73-18.74-2.52-7.16,.24-14.29-.15-21.41-1.46-9.99-1.84-19.47-4.96-28.4-9.78-9.9-5.34-18.54-12.4-26.7-20.02-11.38-10.62-20.09-23.1-25.5-37.81-1.13-3.08-1.66-6.42-3.49-9.41Zm582.14,388.12c-5.92-1.67-11.38-2.46-16.75-3.51-7.21-1.41-14.21-3.51-21.24-5.47-10.7-2.98-21.19-6.66-31.47-10.96-13.62-5.69-26.49-12.71-38.69-20.93-16.2-10.92-31.57-22.94-46.36-35.69-10.65-9.18-21.44-18.2-31.98-27.5-8.78-7.75-17.69-15.35-27.14-22.26-12.05-8.8-24.8-16.25-39.47-20.1-7.92-2.07-15.96-2.99-24.02-3.9-3.44-.39-6.9,.87-10.23,.72-8.91-.4-17.51,1.54-26.14,2.88-6.73,1.04-13.49,2.37-20.1,4.31-5.8,1.7-11.73,2.93-17.58,4.45-4.73,1.22-9.38,2.77-14.14,3.8-7.34,1.59-14.45,4.02-21.75,5.75-5.28,1.25-10.47,2.82-15.73,4.14-5.51,1.39-11.09,2.5-16.57,4.01-6.11,1.68-12.3,3.06-18.53,4.09-5.33,.88-10.62,2.02-16.01,2.65-5.63,.66-11.21,1.88-16.92,1.93-.82,0-1.67-.08-2.44,.11-7.44,1.87-15.21,1.63-22.63,1.59-13.64-.08-27.36,.75-41.02-1.47-6.33-1.03-12.65-2.15-18.93-3.4-6.62-1.32-13.11-3.32-19.68-4.96-.81-.2-1.96-.73-2.5,.2-.48,.83,.59,1.38,1.07,2,5.15,6.57,12.49,10.09,19.55,13.97,6.6,3.63,13.7,6.18,20.55,9.27,8.12,3.67,15.57,8.62,23.46,12.7,13.36,6.92,25.3,15.66,36.39,25.72,14.06,12.76,25.75,27.62,37.53,42.4,9.08,11.39,18.87,22.12,30.25,31.29,4.66,3.76,9.16,7.91,14.76,10.19,15.33,6.25,31.1,11.16,47.2,15.11,23.57,5.79,47.52,7.27,71.64,7.54,11.44,.13,22.89,.15,34.34,.44,14.8,.38,29.61,.44,44.42-.24,17.66-.8,35.11-2.97,52.37-6.69,25.93-5.6,51.44-12.79,76.67-20.97,9.43-3.06,19.2-4.67,28.83-6.88,9.88-2.28,19.96-4.02,28.83-9.33,3.38-2.02,6.77-4.11,10.18-7.01ZM219.71,292.38c3.47-.1,8.4-.04,13.38-.98,9.8-1.86,18.59-5.64,25.9-12.39,6.29-5.8,11.56-12.45,15.99-19.86,6.15-10.28,10.34-21.22,12.1-33,1.63-10.96,2.1-22.04,1.15-33.1-.68-7.94-1.8-15.87-3.54-23.66-2.25-10.08-5.16-20-8.92-29.65-3.63-9.35-8.35-18.16-14.04-26.35-4.44-6.39-9.63-12.28-15.44-17.57-12.37-11.24-26.3-18.55-43.59-17.69-4.06,.2-8.18-.41-12.11,1.19-3.28,1.33-6.47,2.85-9.63,4.46-13.72,6.98-24.77,16.95-33.56,29.55-7.56,10.83-12.83,22.73-16.89,35.22-2.64,8.12-4.52,16.45-5.53,24.9-.72,6.01-.59,12.09-.47,18.19,.19,10.15,1.5,20.12,3.82,29.89,2.92,12.26,6.83,24.26,12.86,35.46,4.57,8.48,9.91,16.29,18,21.84,8.77,6.01,18.79,8.95,28.97,11.2,9.86,2.19,19.96,2.51,31.56,2.35Zm474.38-6.32c.26,6.78-.11,13.54,.89,20.36,1.28,8.73,4.06,16.72,8.88,23.98,7.28,10.95,17.62,18.14,29.65,22.99,14.69,5.92,29.66,10.54,45.83,9.37,6.18-.45,12.16-1.61,18-3.76,10.37-3.82,19.05-10.16,26.55-18.01,9.43-9.88,17.24-21.02,23.82-33.03,6.97-12.72,12.3-26.08,16.23-39.99,3.3-11.68,5.66-23.58,7.05-35.67,1.28-11.17-.12-22.13-2.81-32.9-2.88-11.5-7.99-22.14-13.79-32.44-.52-.93-1.17-1.68-2.15-1.95-1.99-.55-3.32-1.87-4.31-3.53-.71-1.19-1.74-1.91-2.94-2.28-2.42-.75-4.86-1.53-7.36-1.92-10.94-1.71-21.91-2.8-33.02-1.77-13.22,1.22-26.26,3.09-38.68,8.15-10.61,4.31-20.3,10.09-28.72,17.81-12.99,11.92-23.17,25.94-30.56,41.97-5.12,11.09-8.72,22.67-10.75,34.69-1.55,9.22-2.36,18.55-1.81,27.94ZM128.58,493.55c-1.82,0-3.64,.09-5.45-.02-2.45-.15-4.33,.73-6.07,2.46-1.84,1.83-3.48,3.91-2.78,6.43,.72,2.59,3.46,3.2,5.86,3.81,4.47,1.13,8.94,2.29,13.42,3.4,6.84,1.7,13.62,3.83,20.56,4.94,10.3,1.65,20.72,2.59,31.17,2.38,9.41-.19,18.8,.12,28.25-.65,9.2-.75,18.42-1.14,27.57-2.49,5-.74,10.04-1.36,14.98-2.4,4.24-.89,8.53-1.52,12.75-2.47,5.91-1.33,11.72-3.1,17.64-4.38,7.16-1.55,14.12-3.82,21.27-5.41,6.96-1.54,13.74-3.85,20.68-5.51,8.35-2,16.61-4.36,24.92-6.52,11.66-3.03,23.43-5.39,35.21-7.78,11.64-2.36,23.42-2.32,35.25-2.26,8.35,.05,16.44,1.47,24.34,3.72,12.53,3.58,24.18,9.23,34.94,16.61,7.56,5.19,14.84,10.73,21.91,16.61,11.58,9.63,22.68,19.81,34.23,29.48,8.35,6.99,16.5,14.22,25.03,20.97,10.03,7.94,20.1,15.83,30.82,22.87,11.1,7.29,22.59,13.81,34.78,19.05,8.73,3.75,17.62,7.13,26.75,9.81,8.42,2.47,16.76,5.29,25.27,7.4,8.51,2.11,17.23,3.34,25.93,4.51,1.51,.2,3.01,.24,4.27-1.12,2.4-2.6,5.03-4.97,7.2-7.8,2.41-3.13,1.67-5.3-2.29-6.07-2.58-.5-5.2-.85-7.79-1.29-13.39-2.29-26.31-6.04-38.43-12.3-11.95-6.17-23.14-13.58-34.4-20.89-11.8-7.66-23.51-15.45-34.79-23.82-14.73-10.93-28.53-23-41.85-35.61-6.39-6.05-12.91-11.97-19.27-18.06-8.31-7.96-16.76-15.79-25.17-23.67-8.73-8.19-17.28-16.56-26.65-24.07-15.1-12.11-32.77-17.04-51.48-19.23-11.15-1.3-22.22-.36-33.3,1.42-7.81,1.26-15.42,3.27-22.97,5.44-12.7,3.66-25.36,7.48-38.11,10.95-7.34,1.99-14.7,3.89-22.1,5.65-6.25,1.49-12.54,2.85-18.9,3.87-4.45,.71-8.86,1.71-13.29,2.56-9.6,1.84-19.21,3.67-28.82,5.47-4.88,.92-9.79,1.66-14.64,2.66-8.59,1.78-17.16,3.69-25.73,5.59-6.01,1.33-12.04,2.66-17.96,4.25-7.87,2.11-15.79,4.02-23.72,5.85-7.66,1.77-15.44,2.91-23.28,3.79-8.57,.97-17.17,1.25-25.75,1.86Zm-17.52-31.6c-.01,7.12,3.19,10.68,10.05,11.53,2.81,.35,5.62,.55,8.42,.41,9.79-.48,19.58-1.04,29.29-2.33,9.97-1.32,19.76-3.7,29.49-6.17,11.85-3.01,23.73-5.88,35.64-8.64,12.71-2.95,25.52-5.29,38.31-7.79,15.37-3.01,30.86-5.42,46.18-8.76,6.99-1.52,14.02-2.91,20.92-4.77,12.58-3.41,25.05-7.21,37.61-10.69,10.03-2.78,19.93-6,30.22-7.86,7.41-1.34,14.82-2.57,22.32-2.88,15.07-.62,29.79,1.43,44.27,5.77,10.9,3.27,20.94,8.16,30.15,14.72,9.11,6.49,17.12,14.3,25.27,21.93,15.23,14.26,30.28,28.72,45.62,42.87,9.07,8.36,18.17,16.68,27.65,24.61,6.13,5.13,12.35,10.11,18.74,14.89,12.51,9.35,25.65,17.79,38.76,26.25,10.45,6.74,20.86,13.56,32.04,19.04,4.71,2.31,9.66,4.11,14.74,5.56,7.42,2.12,14.99,3.5,22.53,5.05,.91,.19,1.8,.3,2.66-.15,3.07-1.62,5.88-3.6,8.43-5.96,.45-.42,1.05-.95,.84-1.61-.27-.91-1.19-.69-1.87-.68-4.79,.07-9.34-1.13-13.72-2.83-13.7-5.32-26.12-13.01-38.17-21.28-13.79-9.47-26.51-20.23-38.75-31.65-14.75-13.75-28.91-28.07-42.92-42.56-18.89-19.54-36-40.62-53.23-61.59-9.12-11.1-18.65-21.8-29.51-31.24-9.57-8.32-20.11-15.2-31.74-20.33-7.55-3.33-15.35-5.8-23.51-7.32-4.02-.75-8.12-.87-12.07-1.73-8.28-1.8-16.68-1.03-24.94-.88-5.16,.09-10.62,.17-15.86,1.62-5.21,1.44-10.75,1.69-15.94,3.19-5.89,1.7-11.73,3.61-17.51,5.75-10.4,3.85-20.32,8.67-30.16,13.69-10.9,5.56-21.66,11.41-32.44,17.22-9.74,5.26-19.44,10.58-29.1,15.97-13.23,7.39-26.7,14.29-40.73,20.01-9.38,3.82-19.1,6.71-28.81,9.59-6.39,1.9-12.79,3.88-19.39,4.98-6.33,1.05-12.66,2.19-19.08,2.68-8.6,.65-17.19,1.61-25.82,1.17-6.09-.31-12.17-.29-18.25-.49-4.89-.16-9.71-1.01-14.47-2.08-1.76-.4-2.15,.13-2.18,1.6-.02,.73,0,1.45,0,2.18Z"/><path class="b" d="M116.65,249.83c1.83,2.99,2.35,6.33,3.49,9.41,5.41,14.71,14.12,27.19,25.5,37.81,8.16,7.62,16.8,14.69,26.7,20.02,8.93,4.82,18.41,7.94,28.4,9.78,7.12,1.31,14.25,1.7,21.41,1.46,6.43-.21,12.49,1.77,18.74,2.52,7.73,.93,15.49,1.57,23.28,.09,3.62-.69,7.36-.43,11.02-1.33,5.61-1.37,11.23-2.58,16.74-4.38,5.61-1.84,11.07-3.92,16.3-6.64,4.28-2.23,8.35-4.76,11.61-8.39,1.58-1.76,2.21-3.73,2.11-6.2-.28-7.07-1.2-14.07-2.01-21.08-.63-5.48-1.55-10.92-2.3-16.38-.7-5.11-1.18-10.27-2.05-15.35-1.64-9.55-2.52-19.2-3.96-28.77-.6-3.97-.54-7.99-.22-11.97,.94-11.82,.56-23.66-.94-35.33-3.03-23.59-11.65-45.39-22.9-66.22-1.76-3.26-3.59-6.48-5.2-9.95,2.53,2.54,5.63,4.3,8.31,6.62,11,9.51,20.31,20.51,28.52,32.44,6.49,9.43,12.08,19.3,15.91,30.23,4.98,14.22,11.04,28.06,19.06,40.9,9.3,14.91,20.67,27.88,36.31,36.43,6.61,3.61,13.81,5.85,21.28,7.18,3.01,.54,5.94,1.59,8.83,2.63,5,1.8,10.17,1.55,15.34,1.66,11.12,.23,21.72-2.31,32.16-5.8,8.08-2.7,16.11-5.67,24.52-7.06,6.67-1.1,13.38-.27,19.92,1.62,12.39,3.57,24.39,8.21,36.34,12.99,4.61,1.85,8.47,5.24,13.13,7.14,6.21,2.53,12.48,4.61,19.11,5.98,8.02,1.65,15.24-.09,22.05-3.64,12.26-6.39,22.7-14.81,29.42-27.39,6.71-12.57,14.19-24.72,22.18-36.52,2.77-4.1,6.52-7.54,9.81-11.29,10.41-11.83,22.02-22.38,34.66-31.75,9.5-7.04,19.97-12.34,31.18-16.29,12.29-4.33,24.83-7.23,37.96-8.03-3.9,1.92-7.85,3.75-11.69,5.78-17.21,9.1-32.2,20.89-44.36,36.23-7.23,9.12-13.88,18.55-19.83,28.58-4.14,6.98-9.42,13.33-13.85,20.19-6.7,10.36-13.41,20.72-19.97,31.18-5.64,9-10.94,18.21-16.63,27.18-2.77,4.37-2.13,8.73-.76,13.1,5.47,17.47,13.55,33.61,24.77,48.14,2.78,3.59,5.48,7.21,8.65,10.5,8.24,8.54,18.45,13.63,29.48,17.37,4.8,1.62,9.76,2.8,14.45,4.67,4.11,1.63,7.69,4.42,11.72,6.32,6.45,3.05,13.2,4.84,20.21,6.17,6.47,1.22,12.98,1.14,19.45,1.83,3.36,.36,6.71-.31,10.01-.88,17.27-2.98,32.88-9.41,45.39-22.17,.93-.95,2.06-1.7,3.16-2.6,.72,1.13-.07,1.74-.39,2.37-9.43,18.83-20.57,36.48-34.47,52.43-7.44,8.54-16.13,15.63-24.24,23.38-9.59,9.17-20.94,16.24-30.14,25.85-3.89,4.07-6.6,8.87-9.4,13.63-3.6,6.11-6.79,12.37-8.3,19.43-1.47,6.83-.96,13.52,.29,20.26,2.22,12.02,6.77,23.32,10.77,34.78,1.44,4.11,2.45,8.33,3.58,12.52,.39,1.44-.29,1.97-1.58,2.24-4.48,.94-8.77,.33-13.08-1.15-10.29-3.51-19.55-8.94-28.68-14.71-8.76-5.54-17.19-11.52-25.29-17.96-16.02-12.73-30.73-26.9-45.2-41.33-13.44-13.4-26.63-27.04-39.21-41.24-11.99-13.53-23.29-27.63-34.73-41.62-8.51-10.4-17.69-20.2-27.68-29.25-10.38-9.41-21.89-17.07-34.46-23.09-7.5-3.59-15.45-6.14-23.64-7.88-6.66-1.41-13.4-2.1-20.12-3.02-5.53-.75-11.13-1.21-16.48-.83-5.64,.4-11.41-.07-17.01,1.29-3.25,.79-6.63,.79-9.95,1.38-6.26,1.11-12.37,2.73-18.44,4.52-19.41,5.73-37.24,15.01-55.07,24.36-16.62,8.72-32.97,17.94-49.48,26.88-10.93,5.92-21.85,11.86-33.19,16.92-9.42,4.2-19.2,7.5-29.09,10.53-5.36,1.64-10.73,3.34-16.13,4.72-8.57,2.19-17.37,3.45-26.21,4.43-8.68,.96-17.39,.82-26.07,1.43-5.85,.41-11.71-1.31-17.64-.96-4.19,.25-8.29-.48-12.4-1.3-2.31-.46-3.03-1.48-2.58-3.74,1.75-8.81,3.73-17.55,6.37-26.15,2.33-7.56,4.88-15.02,8.97-21.85,1.97-3.3,1.96-3.26,4.89-1.04,1.99,1.51,4.2,2.24,6.63,1.13,2.84-1.3,4.08-3.82,4.52-6.71,.5-3.25-.09-6.35-1.98-9.11-1.34-1.94-2.71-3.87-4.18-5.72-5.17-6.49-7.1-14.44-9.93-21.97-4.22-11.23-7.6-22.75-9.63-34.54-2.55-14.84-4.42-29.75-3.33-44.95,.47-6.56,.14-13.21,.74-19.81,.09-1.03-.34-2.17,.7-3.28Z"/><path class="b" d="M698.79,637.95c-3.41,2.9-6.8,4.98-10.18,7.01-8.87,5.31-18.95,7.06-28.83,9.33-9.63,2.22-19.4,3.83-28.83,6.88-25.23,8.18-50.74,15.37-76.67,20.97-17.26,3.72-34.71,5.89-52.37,6.69-14.81,.67-29.62,.61-44.42,.24-11.45-.29-22.89-.31-34.34-.44-24.12-.27-48.07-1.75-71.64-7.54-16.1-3.96-31.86-8.87-47.2-15.11-5.6-2.28-10.09-6.43-14.76-10.19-11.38-9.17-21.17-19.9-30.25-31.29-11.78-14.78-23.47-29.63-37.53-42.4-11.08-10.06-23.03-18.81-36.39-25.72-7.89-4.08-15.34-9.03-23.46-12.7-6.85-3.09-13.95-5.64-20.55-9.27-7.06-3.88-14.4-7.41-19.55-13.97-.48-.61-1.56-1.17-1.07-2,.54-.93,1.7-.4,2.5-.2,6.56,1.64,13.05,3.64,19.68,4.96,6.28,1.25,12.6,2.37,18.93,3.4,13.66,2.23,27.38,1.39,41.02,1.47,7.42,.04,15.19,.28,22.63-1.59,.78-.19,1.63-.11,2.44-.11,5.71-.06,11.28-1.28,16.92-1.93,5.39-.63,10.68-1.77,16.01-2.65,6.23-1.03,12.42-2.41,18.53-4.09,5.48-1.51,11.06-2.62,16.57-4.01,5.26-1.32,10.46-2.89,15.73-4.14,7.3-1.73,14.41-4.16,21.75-5.75,4.76-1.03,9.42-2.58,14.14-3.8,5.85-1.52,11.79-2.75,17.58-4.45,6.6-1.93,13.37-3.27,20.1-4.31,8.63-1.33,17.23-3.28,26.14-2.88,3.32,.15,6.78-1.11,10.23-.72,8.07,.91,16.1,1.82,24.02,3.9,14.67,3.84,27.43,11.3,39.47,20.1,9.45,6.9,18.36,14.5,27.14,22.26,10.54,9.31,21.33,18.32,31.98,27.5,14.79,12.76,30.16,24.77,46.36,35.69,12.21,8.23,25.07,15.25,38.69,20.93,10.28,4.3,20.77,7.98,31.47,10.96,7.03,1.96,14.03,4.06,21.24,5.47,5.38,1.05,10.83,1.84,16.75,3.51Z"/><path class="b" d="M219.71,292.38c-11.6,.16-21.7-.17-31.56-2.35-10.17-2.26-20.2-5.19-28.97-11.2-8.09-5.55-13.43-13.36-18-21.84-6.03-11.2-9.94-23.2-12.86-35.46-2.33-9.77-3.63-19.74-3.82-29.89-.12-6.09-.25-12.18,.47-18.19,1.01-8.45,2.89-16.79,5.53-24.9,4.07-12.48,9.34-24.39,16.89-35.22,8.79-12.6,19.84-22.57,33.56-29.55,3.16-1.61,6.34-3.12,9.63-4.46,3.93-1.6,8.05-.99,12.11-1.19,17.29-.86,31.22,6.45,43.59,17.69,5.81,5.28,11,11.17,15.44,17.57,5.69,8.19,10.41,17,14.04,26.35,3.75,9.65,6.67,19.56,8.92,29.65,1.74,7.78,2.85,15.71,3.54,23.66,.95,11.06,.49,22.15-1.15,33.1-1.75,11.78-5.95,22.72-12.1,33-4.43,7.41-9.7,14.06-15.99,19.86-7.31,6.74-16.1,10.53-25.9,12.39-4.98,.95-9.91,.88-13.38,.98Zm-7.16-120.33c-.02-8.5-1.78-19.6-4.04-30.62-2.34-11.38-5.91-22.42-9.73-33.38-1.35-3.87-4.02-6.43-7.61-8.07-3.44-1.57-7.81,.55-8.52,4.3-.63,3.32-1.71,6.48-2.7,9.68-2.08,6.68-3.34,13.54-4.64,20.39-2.1,11.04-4.12,22.12-4.16,33.38-.03,7.15,.46,14.31,.86,21.47,.71,12.48,2.74,24.64,7.12,36.37,1.97,5.28,4.15,10.45,7.54,15.02,3.91,5.27,9.51,5.25,13.62,.23,2.82-3.45,3.27-7.51,4.14-11.6,1.53-7.26,3.76-14.37,5.15-21.65,2.06-10.78,2.86-21.73,2.97-35.52Z"/><path class="b" d="M694.1,286.06c-.56-9.39,.25-18.72,1.81-27.94,2.02-12.02,5.63-23.6,10.75-34.69,7.39-16.03,17.57-30.05,30.56-41.97,8.42-7.73,18.11-13.5,28.72-17.81,12.42-5.05,25.46-6.92,38.68-8.15,11.11-1.03,22.08,.06,33.02,1.77,2.49,.39,4.94,1.18,7.36,1.92,1.21,.37,2.23,1.09,2.94,2.28,.99,1.67,2.32,2.99,4.31,3.53,.98,.27,1.63,1.02,2.15,1.95,5.81,10.3,10.92,20.94,13.79,32.44,2.69,10.77,4.09,21.73,2.81,32.9-1.38,12.08-3.75,23.98-7.05,35.67-3.93,13.91-9.26,27.27-16.23,39.99-6.58,12.01-14.39,23.15-23.82,33.03-7.5,7.85-16.18,14.19-26.55,18.01-5.84,2.15-11.82,3.32-18,3.76-16.16,1.17-31.14-3.45-45.83-9.37-12.04-4.85-22.37-12.04-29.65-22.99-4.83-7.26-7.61-15.25-8.88-23.98-1-6.82-.63-13.58-.89-20.36Zm142.52-84.47l-.74-.02c0-6.35,.19-12.7-.06-19.04-.18-4.61-.92-9.21-2.8-13.52-1.78-4.09-5.19-5.57-9.02-3.38-3.52,2.01-6.71,4.75-8.77,8.26-10.37,17.62-19.17,36-26.46,55.11-4.66,12.21-8.67,24.63-11.93,37.28-1.69,6.56-3.19,13.19-4.36,19.89-1.19,6.79-2.18,13.58-2.92,20.43-.63,5.79-1.14,11.53-.74,17.33,.3,4.43,.87,8.85,2.96,12.88,3.19,6.15,9.56,7.89,14.75,3.93,2.22-1.7,4.23-3.66,6.03-5.87,4.02-4.96,7.06-10.52,10.32-15.97,6.25-10.49,11.38-21.48,15.63-32.88,5.35-14.37,9.55-29.06,12.88-44.05,2.97-13.34,4.53-26.78,5.23-40.37Z"/><path class="b" d="M128.58,493.55c8.58-.61,17.18-.9,25.75-1.86,7.84-.88,15.62-2.02,23.28-3.79,7.93-1.83,15.85-3.74,23.72-5.85,5.93-1.59,11.95-2.92,17.96-4.25,8.57-1.9,17.14-3.81,25.73-5.59,4.86-1.01,9.77-1.75,14.64-2.66,9.61-1.8,19.22-3.64,28.82-5.47,4.43-.85,8.84-1.85,13.29-2.56,6.36-1.01,12.64-2.38,18.9-3.87,7.4-1.76,14.76-3.65,22.1-5.65,12.76-3.47,25.41-7.28,38.11-10.95,7.54-2.17,15.15-4.18,22.97-5.44,11.08-1.79,22.15-2.73,33.3-1.42,18.71,2.18,36.38,7.12,51.48,19.23,9.37,7.51,17.92,15.89,26.65,24.07,8.4,7.88,16.85,15.71,25.17,23.67,6.36,6.09,12.88,12.01,19.27,18.06,13.32,12.6,27.12,24.68,41.85,35.61,11.29,8.38,23,16.17,34.79,23.82,11.26,7.31,22.45,14.72,34.4,20.89,12.13,6.26,25.04,10.02,38.43,12.3,2.6,.44,5.21,.79,7.79,1.29,3.96,.77,4.7,2.93,2.29,6.07-2.17,2.83-4.8,5.2-7.2,7.8-1.26,1.36-2.75,1.33-4.27,1.12-8.7-1.17-17.42-2.4-25.93-4.51-8.51-2.11-16.85-4.93-25.27-7.4-9.13-2.68-18.02-6.05-26.75-9.81-12.2-5.24-23.68-11.76-34.78-19.05-10.72-7.04-20.79-14.93-30.82-22.87-8.53-6.75-16.68-13.98-25.03-20.97-11.55-9.66-22.64-19.85-34.23-29.48-7.07-5.87-14.35-11.42-21.91-16.61-10.76-7.38-22.41-13.03-34.94-16.61-7.9-2.26-15.99-3.68-24.34-3.72-11.82-.07-23.61-.1-35.25,2.26-11.78,2.39-23.55,4.74-35.21,7.78-8.3,2.16-16.56,4.52-24.92,6.52-6.94,1.66-13.72,3.97-20.68,5.51-7.15,1.58-14.12,3.86-21.27,5.41-5.92,1.28-11.73,3.05-17.64,4.38-4.22,.95-8.51,1.58-12.75,2.47-4.94,1.04-9.98,1.66-14.98,2.4-9.15,1.35-18.38,1.74-27.57,2.49-9.45,.77-18.84,.47-28.25,.65-10.45,.21-20.88-.74-31.17-2.38-6.94-1.11-13.72-3.24-20.56-4.94-4.48-1.11-8.94-2.27-13.42-3.4-2.41-.61-5.14-1.22-5.86-3.81-.7-2.52,.93-4.59,2.78-6.43,1.74-1.73,3.62-2.61,6.07-2.46,1.81,.11,3.63,.02,5.45,.02Z"/><path class="b" d="M111.05,461.94c0-.73-.01-1.45,0-2.18,.04-1.47,.42-2,2.18-1.6,4.75,1.08,9.58,1.92,14.47,2.08,6.08,.2,12.17,.17,18.25,.49,8.62,.44,17.22-.51,25.82-1.17,6.42-.49,12.75-1.62,19.08-2.68,6.6-1.1,12.99-3.09,19.39-4.98,9.7-2.88,19.43-5.77,28.81-9.59,14.04-5.72,27.5-12.62,40.73-20.01,9.66-5.4,19.36-10.72,29.1-15.97,10.77-5.81,21.53-11.66,32.44-17.22,9.84-5.02,19.76-9.84,30.16-13.69,5.78-2.14,11.62-4.05,17.51-5.75,5.19-1.5,10.73-1.75,15.94-3.19,5.24-1.45,10.7-1.53,15.86-1.62,8.25-.15,16.65-.92,24.94,.88,3.95,.86,8.04,.99,12.07,1.73,8.16,1.51,15.95,3.99,23.51,7.32,11.63,5.13,22.16,12.01,31.74,20.33,10.86,9.44,20.39,20.14,29.51,31.24,17.23,20.97,34.34,42.05,53.23,61.59,14.01,14.49,28.16,28.81,42.92,42.56,12.24,11.41,24.97,22.18,38.75,31.65,12.05,8.27,24.46,15.96,38.17,21.28,4.39,1.7,8.94,2.9,13.72,2.83,.68-.01,1.6-.23,1.87,.68,.2,.67-.39,1.19-.84,1.61-2.55,2.35-5.36,4.34-8.43,5.96-.86,.45-1.75,.34-2.66,.15-7.54-1.56-15.11-2.93-22.53-5.05-5.08-1.45-10.03-3.25-14.74-5.56-11.18-5.48-21.59-12.3-32.04-19.04-13.12-8.46-26.26-16.9-38.76-26.25-6.39-4.78-12.61-9.76-18.74-14.89-9.48-7.93-18.58-16.25-27.65-24.61-15.34-14.14-30.39-28.61-45.62-42.87-8.15-7.62-16.16-15.44-25.27-21.93-9.21-6.56-19.24-11.45-30.15-14.72-14.48-4.34-29.2-6.39-44.27-5.77-7.51,.31-14.91,1.54-22.32,2.88-10.29,1.86-20.19,5.08-30.22,7.86-12.56,3.48-25.03,7.29-37.61,10.69-6.9,1.87-13.93,3.25-20.92,4.77-15.31,3.34-30.8,5.74-46.18,8.76-12.79,2.51-25.6,4.85-38.31,7.79-11.91,2.76-23.79,5.64-35.64,8.64-9.73,2.47-19.52,4.84-29.49,6.17-9.71,1.29-19.5,1.85-29.29,2.33-2.81,.14-5.61-.06-8.42-.41-6.86-.85-10.07-4.42-10.05-11.53Z"/><path d="M212.55,172.04c-.12,13.79-.91,24.74-2.97,35.52-1.39,7.28-3.62,14.39-5.15,21.65-.86,4.09-1.31,8.15-4.14,11.6-4.11,5.02-9.72,5.05-13.62-.23-3.39-4.57-5.57-9.74-7.54-15.02-4.38-11.74-6.41-23.89-7.12-36.37-.41-7.16-.89-14.32-.86-21.47,.04-11.27,2.06-22.34,4.16-33.38,1.3-6.85,2.56-13.71,4.64-20.39,1-3.2,2.08-6.36,2.7-9.68,.71-3.75,5.08-5.87,8.52-4.3,3.59,1.64,6.27,4.2,7.61,8.07,3.82,10.96,7.39,22,9.73,33.38,2.26,11.02,4.02,22.12,4.04,30.62Z"/><path d="M836.62,201.59c-.7,13.59-2.27,27.03-5.23,40.37-3.33,14.99-7.54,29.68-12.88,44.05-4.24,11.4-9.38,22.39-15.63,32.88-3.25,5.46-6.29,11.01-10.32,15.97-1.8,2.21-3.81,4.18-6.03,5.87-5.19,3.97-11.57,2.22-14.75-3.93-2.09-4.03-2.66-8.45-2.96-12.88-.4-5.79,.11-11.54,.74-17.33,.74-6.86,1.73-13.65,2.92-20.43,1.17-6.7,2.66-13.32,4.36-19.89,3.26-12.65,7.27-25.07,11.93-37.28,7.29-19.11,16.09-37.49,26.46-55.11,2.06-3.5,5.25-6.25,8.77-8.26,3.83-2.19,7.24-.71,9.02,3.38,1.88,4.31,2.62,8.9,2.8,13.52,.25,6.34,.06,12.69,.06,19.04l.74,.02Z"/></g></svg>