<?xml version="1.0" encoding="UTF-8"?><svg xmlns="http://www.w3.org/2000/svg" viewBox="0 0 1223.23 2244.06"><g id="a"/><g id="b"><g id="c"><g><path d="M1080.58,1119.52c6.97,18.82,13.52,36.18,16.59,54.79,3.28,19.88,4.22,39.7,1.39,59.96-1.94,13.83-1.36,28.09-3.2,42.07-4.51,34.15-13.18,67.16-21.81,100.2-3.52,13.46-8.8,26.54-8.43,41.02-6.43,10.87-5.15,23.53-6.22,35.52-.81,9.01-2.08,18.26,.94,27.29,1.27,3.79-1.46,5.81-4,7.51-10.83,7.28-22.89,11.12-34.87,15.09-18.49,6.12-37.41,10.28-56.29,14.49-5.26,1.18-7.37,3.77-8.8,9.43-5.17,20.5-9.27,41.17-11.59,62.33-1.46,13.32-6.33,25.72-9.99,38.42-8.47,29.38-15.82,59.09-21.53,89.28-4.97,26.31-9.61,52.69-16.02,78.64-5.66,22.92-4.34,46.19-1.65,69.43,3,25.93,5.01,51.95,4.6,78.12-.19,12.36,1.63,24.18,4.63,36.09,2.84,11.25,9.97,16.8,18.64,20.47,11.03,4.67,22.47,8.03,33.8,11.75,14.92,4.91,30.18,6.59,45.52,7.69,24.8,1.78,49.65,2.46,74.5,2.22,12.32-.12,24.64-1.67,36.96-1.67,16.17-.01,32.06,2.56,46.88,10.41,7.98,4.22,14.72,10.35,18.36,19.42,5.25,13.08,2.7,23.97-8.2,35.44-12.45,13.11-28.13,18.43-44.73,20.4-22.18,2.63-43.05-3.12-62.71-14.21-22.94-12.94-46.75-22.87-72.33-26.68-13.45-2-27-1.46-40.45,.7-4.86,.78-5.29,1.88-2.61,6.4,7.03,11.86,16.8,20.58,27.35,28.14,23.37,16.74,49.28,26.29,76.33,32.35,8.8,1.97,17.54,4.19,25.85,8.02,10.01,4.62,16.26,12.84,19.3,24.48,2.88,11.02,4.07,21.64-1.6,32.09-7.11,13.12-17.38,21.95-30.06,27.3-32.49,13.7-61.69,6.49-88.17-17.57-23.16-21.04-41.59-46.66-57.97-74.2-11.04-18.56-22.49-36.63-38.15-50.9-3.44-3.14-6.7-4.67-11.41-4.27-13.6,1.14-26.68,4.51-39.67,8.88-23.62,7.96-47.3,15.67-70.99,23.38-12.71,4.14-24.93,9.51-36.25,17.23-14.06,9.59-28.77,16.9-45.84,15.01-14.39-1.6-27.93-6.27-36.81-19.71-10.69-16.18-11.46-34.32-2.52-51.55,9.2-17.73,23.89-25.98,42.57-24.56,6.66,.51,13.1,2.26,19.05,5.44,22.72,12.13,46.25,12.44,70.38,6.9,13.11-3.01,25.95-6.93,38.65-11.58,8.17-2.99,15.35-7.84,21.86-13.94,4.93-4.62,4.93-7.01,.32-11.64-4.05-4.08-7.33-8.9-10.17-14.01-11.8-21.24-25.87-40.89-35.62-63.61-3.72-8.67-7.7-17.25-10.24-26.37-7.22-25.88-14.06-52.06-15.12-79.24-1.06-27.3,1.21-54.49,8.91-80.75,1.52-5.18,3.18-10.34,5.25-15.27,8.07-19.28,10.77-39.73,11.94-60.73,1.35-24.22,2.37-48.45,1.65-72.69-.47-15.75-1.39-31.52-3.49-47.16-.47-3.53-1.83-5.18-4.9-6.01-5.07-1.38-10.17-2.84-14.98-5.02-4.32-1.95-5.95-6.81-7.77-11.29-8.24-20.32-12.37-42.11-18.5-63.19-4.39-15.12-10.3-29.41-18.05-42.75-.71-1.22-1.06-2.82-3.2-3.45-1.7,4.74-3.5,9.52-5.13,14.38-5.55,16.48-13.55,31.51-22.03,46.27-11.2,19.51-22.08,39.23-28.53,61.47-.67,2.32-1.66,4.75-1.55,7.07,.36,7.65-3.56,12.12-8.63,16.05-24.81,19.22-51.01,35.49-79.71,46.43-3.77,1.44-6.28,3.83-8.28,7.65-12.21,23.3-22.84,47.52-30.56,73.02-7.55,24.94-12.82,50.54-12.15,77.33,.69,27.56-5.6,54.04-12.07,80.37-7,28.47-19.7,53.85-34.51,78.1-15.15,24.79-32.89,47.23-50.38,69.93-7.01,9.1-14.25,18.03-20.17,28.18-3.05,5.22-2.92,9.67-.52,14.69,7.08,14.79,15.53,28.65,23.47,42.87,6.75,12.09,14.69,22.9,24.4,32.19,10.15,9.73,22.7,13.91,34.82,19.06,3.95,1.68,7.98,3.09,11.67,5.44,9.63,6.14,16.13,19.42,13.73,31.46-4.35,21.73-13.56,40.63-30.59,53.38-19.65,14.72-46.31,11.79-63.81-5.98-7.59-7.71-13.21-16.48-15.3-27.88-.84-4.61-2.32-9.15-4.78-13-13.81-21.61-25.07-45.14-39.84-66-5.44-7.69-11.41-14.93-20.95-16.61-3.18-.56-5.96-.17-8.84,1.23-8.27,4.03-15.63,9.74-23.03,15.35-25.55,19.38-51.2,38.57-77.64,56.45-10.54,7.13-20.89,14.65-30.59,23.12-23.25,20.31-48.68,22.4-75.66,11.72-7.47-2.95-14.7-6.55-21.54-11.21-26.02-17.72-23.79-62.09-3.22-79.92,16.74-14.52,35.73-17.61,55.12-10.37,30.32,11.31,58.63,5.41,86.65-8.41,11.15-5.5,21.82-11.98,32.12-19.22,1.1-.77,2.92-1.48,2.6-3.1-.43-2.17-2.51-1.42-3.89-1.42-19.41-.06-38.26,4.56-57.17,8.64-14.94,3.22-29.85,6.59-44.78,9.83-3.65,.79-7.17,2.1-10.75,3.09-25.23,7.02-49.6,4.92-71.31-12.04-12.72-9.93-20.92-30.8-4.97-51.09,14.19-18.06,32.38-20.31,51.16-16.44,27.08,5.57,54.24,7.95,81.67,8.41,11.65,.2,23.31,1.8,34.94,1.49,18.28-.49,36.43-2.66,53.16-12.04,2.61-1.46,4.73-3.6,6.55-6.12,22.74-31.48,41.78-65.62,59.01-101.1,11.17-23.01,22.4-45.97,31.1-70.31,11.29-31.59,20.64-63.53,19.68-98.32-.78-28-.33-56.04-.08-84.06,.11-12.75-2.34-24.99-4.49-37.35-.87-5.01-4.58-4.49-7.54-4.83-11.29-1.31-22.42-3.48-33.39-6.74-14.21-4.23-28.31-8.8-41.53-16.22-4.5-2.53-5.24-5.15-2.31-9.57,2.79-4.22,3.22-9.43,4.5-14.24,5.69-21.26,11.35-42.52,16.59-63.92,4.53-18.53,6.28-37.67,8.96-56.59,5.49-38.83,8.46-77.93,9.56-117.24,.9-31.98-1.35-63.39-10.25-94.01-2.23-7.68-6.72-13.87-10.03-20.82-9.89-20.74-18.48-42.33-32.12-60.61-2.48-3.33-4.9-6.72-7.44-9.99-9.11-11.68-20.09-19.06-34.06-22.51-25.21-6.23-50.37-12.89-74.57-23.45-48.23-21.06-90.47-52.03-127.53-92.24-21.29-23.1-40.83-47.57-56.09-76.09-7.04-13.16-11.32-27.27-12.9-42.41-.74-7.1,2.64-12.43,6.27-17.83,16.62-24.75,39.12-41.86,61.71-58.77,41.11-30.77,82.74-60.66,126.4-86.81,35.89-21.49,72.81-40.67,110.43-58.15,24.7-11.48,47.96-26.1,71.27-40.61,20.53-12.78,41.35-25.04,64.32-31.54,16.31-4.61,32.43-11.01,49.75-9.35,1.77,.17,3.72-.44,5.42-1.17,12.32-5.3,23.95-12.16,35.66-18.94,12.71-7.37,17.87-19.23,19.02-34.13,.66-8.53,2.46-16.69,5.71-24.42,1.09-2.59,.89-4.56-.71-6.69-2.75-3.65-5.88-6.68-9.76-8.81-7.9-4.33-15.58-9.09-22.47-15.26-6.44-5.77-11.89-12.58-14.34-21.42-1.62-5.84-4.93-7.97-9.73-9.09-7.79-1.82-15.35-4.49-22.55-8.38-22.47-12.12-33.37-32.79-36.51-59.66-2.25-19.26-1.06-38.15,5.65-55.98,5.61-14.9,12.91-29.16,22.51-41.35,5.89-7.48,6.31-15.17,4.34-23.51-2.58-10.89-6.37-21.38-8.77-32.37-5.07-23.2-3.78-46.24,.39-69.33,2.4-13.27,4.9-26.51,8.78-39.38,1.09-3.63,.77-7.46,.68-11.21-.76-32.7,10.48-59.74,31.78-81.67,12.97-13.36,28.69-21.11,46.11-24.19,4.42-.78,9.22-.57,13.6,.48,4.52,1.09,9.02,1.44,13.52,1.48,18.29,.18,35.09,5.94,51.54,14.61,17.26,9.1,33.04,20.41,47.73,33.85,17.78,16.27,30.75,36.82,42.52,58.46,2.62,4.83,5.13,9.74,7.56,14.69,13.47,27.44,34.38,44.57,60.55,54.73,12.56,4.87,25,3.51,37.48,.48,25.26-6.14,47.96,.51,69.61,15.39,15.53,10.67,32.97,14.66,51.13,11.93,7.95-1.2,14.51-6.99,20.86-12.33,15.3-12.85,31.3-24.4,49.15-32.4,40.77-18.28,81.34-17.58,121.66,1.9,15,7.25,28.85,16.72,41.08,28.67,6.68,6.52,10.77,15.72,15.77,23.95,14.55,23.98,14.31,49.7,8.01,76.37-3.87,16.37-9.92,31.33-19.11,45.03-5.5,8.2-7.52,18.77-12.34,27.7-14.42,26.76-33.26,48.22-58.55,62.22-8.47,4.69-17.03,9.19-25.55,13.77-1.52,.82-3.17,1.43-4.55,2.48-10.25,7.8-15.5,12.59-12.45,27.35,4.4,21.3,5.3,42.79-.22,64.17-5.59,21.65-15.29,40.19-32.74,52.56-12.85,9.11-26.58,14.04-41.88,7.97-1.64-.65-3.32-.58-5-.15-13.02,3.3-26.04,6.59-39.05,9.9-1.28,.32-2.99,.38-2.95,2.37,.02,1.26,1.37,1.46,2.34,1.74,20.6,5.94,35.35,20.81,47.48,39.23,15.67,23.8,29.7,48.89,45.5,72.61,28.21,42.33,54.35,86.21,78.33,131.65,21.47,40.7,38.29,83.78,51.3,128.67,10.03,34.62,24.07,67.43,36.24,101.08,6.33,17.49,11.02,35.48,12.97,54.34,2.05,19.86-8.28,33.6-26.27,33.55-13.58-.04-26.3-4.95-38.84-10.03-25.33-10.25-49.35-23.66-72.71-38.56-1.16-.74-2.32-1.46-4.58-2.87Zm-284.47-291.73c-1.03,3.26-.45,5.63-.22,7.98,2.38,24.09,5.32,48.11,5.65,72.4,.2,14.65,.5,29.39,2.96,43.79,4.1,23.93,.77,45.92-11.65,66.15-8.22,13.39-17.38,25.91-27.45,37.63-18.17,21.12-38.9,39.03-58.79,57.99-7.31,6.97-15.44,12.75-24.74,16.28-7.86,2.99-15.19,1.33-20.79-5.48-1.6-1.94-3.14-3.95-4.59-6.03-23.76-33.99-41.62-71.56-55.28-111.75-4.29-12.63-3.51-24.75,1.98-36.52,20.73-44.45,38.75-90.25,54.57-137.1,6.19-18.32,16.26-34.71,20.9-53.78,2.74-11.24,6.01-22.33,9.28-33.4,4.84-16.43,10.41-32.59,14.1-49.43,.57-2.6,1.55-5.52-1.63-6.67-10.67-3.87-19.94-11.43-30.56-15.03-11.05-3.75-20-10.59-28.63-18.55-11.86-10.96-24.83-18.85-40.96-17.9-12.17,.72-23.02,5.62-33.29,12.47-15.64,10.44-30.69,21.93-47.12,30.96-11.11,6.11-20.58,15-29.2,24.99-18.26,21.17-35.41,43.34-51.88,66.29-26.27,36.61-48.96,75.62-67.78,117.48-19.29,42.92-31.24,88.46-38.9,135.47-1.56,9.57-1.62,19.44-2.47,29.16-.46,5.21,1.71,7.07,6.18,7.07,4.62,0,9.07-.78,13.5-2.12,21.08-6.38,39.34-18.74,56.82-32.85,12.44-10.05,24.7-20.45,38.88-27.48,21.48-10.64,47.92-2.51,61.53,18.89,1.78,2.79,3.06,5.83,3.92,9.11,4.88,18.66-5.91,43.88-21.9,51.56-8.89,4.27-18.13,4.49-27.41,2.9-16.26-2.78-32.47-5.86-48.49,1.25-2.75,1.22-7.26,1.31-7.45,4.67-.2,3.61,4.11,4.97,6.93,6.5,16.75,9.13,34.72,9.29,52.62,7.62,20.62-1.92,40.4-8.93,60.39-14.5,14.14-3.94,28.33-7.38,43.05-6.34,15.02,1.05,28.45,6.34,39.19,18.54,16.49,18.74,15.54,56.47-10.8,70.15-11.62,6.03-23.46,9.44-36.25,9.12,34.01,.44,68.02,2.06,101.93-.87,32.53-2.81,64.89-7.38,96.72-15.7,49.07-12.83,96.03-31.26,137.39-64.38,16.3-13.05,33.6-24.7,47.53-41.18,3.46-4.09,5.84-8.64,7.68-13.77,1.52-4.24,.89-6.99-2.59-10.04-35.5-31.13-67.01-66.63-93.96-107.08-18.94-28.44-35.6-58.56-52.85-88.25-1.89-3.25-3.83-6.46-6.07-10.23Zm287.48,393.26c.76-14.51-2.68-34.95-7.72-55.16-1.11-4.43-2.51-6.74-6.94-4.1-2.2,1.31-4.78,1.84-7.21,2.64-21.31,7.05-43.07,7.02-64.85,4.3-31.21-3.9-60.86-13.64-86.15-34.94-9.29-7.82-15.77-8.56-26.4-2.84-54.98,29.65-113.98,44.37-173.96,54.86-10.35,1.81-20.76,3.1-31.12,4.84-2.38,.4-5.71-.11-5.25,4.85,2.63,27.85,2.09,55.89,4.43,83.79,2.49,29.6,7.9,58.3,17.33,86.07,5.29,15.59,13.4,29.01,24.89,39.89,2.69,2.54,5.1,3.5,8.68,2.59,10.59-2.68,20.8-6.58,30.87-10.99,15.28-6.71,30.79-12.65,47.03-15.67,6.64-1.24,12.67-3.83,18.53-7.27,17.11-10.06,32.85-22.33,47.84-35.91,12.55-11.36,23.16-24.7,33.38-38.5,1.67-2.26,3.48-4.65,6.34-2.63,2.77,1.96,1.78,4.98,.84,7.62-1.69,4.72-3.71,9.29-6.33,13.47-16.02,25.55-36.09,46-60.61,61.32-18.27,11.41-37.95,18.85-57.4,26.92-15.11,6.26-23.51,18.62-28.91,34.66-9.43,28.04-1.22,53.54,8.71,78.88,.89,2.28,2.11,2.76,3.89,1.11,2.21-2.04,4.44-4.07,6.66-6.08,18.12-16.42,39.76-25.38,60.82-35.6,52.59-25.53,107.59-30.66,163.99-24.42,11.94,1.32,23.88,2.54,35.82,3.86,3.84,.42,5.65-.82,6.18-5.67,4.29-39.66,12.54-78.45,22.22-116.84,8.95-35.51,13.85-71.59,14.42-115.05Zm107.28-141.06c1.47-9.86-2.04-20.07-6.22-30.34-5.08-12.5-9.6-25.29-13.96-38.12-8.67-25.5-15.63-51.68-25.08-76.87-23.22-61.9-54.63-118.2-92.73-170.09-24.48-33.34-48.77-66.89-72.29-101.06-8.42-12.23-17.89-17.5-31.49-16.31-13.18,1.15-26.39,12.35-29.47,26.65-2.26,10.5,1.3,22.79,8.61,28.27,19.23,14.42,37.78,29.75,54.49,47.74,16.1,17.33,31.05,35.69,41.91,57.66,13.12,26.55,21.82,55.06,28.23,84.35,3.15,14.4,8.46,27.28,16.17,39.12,7.24,11.12,14.7,22.06,21.94,33.17,4.59,7.04,8.57,14.49,10.27,23.11,.96,4.88,1.2,9.89-2.79,13.5-3.9,3.52-8.01,1.91-11.96-.02-4.04-1.98-7.66-4.77-11.2-7.69-13.88-11.45-26.24-24.89-39.42-37.26-24.05-22.57-47.21-46.14-65.56-74.96-10.26-16.11-20.64-32.15-31.51-47.75-26.11-37.45-52.18-74.94-79.01-111.75-12.68-17.41-21.74-37.32-33.54-55.24-8.31-12.62-16.04-25.59-23.26-38.99-5.65-10.49-7.5-21.46-4.53-33.26,5.37-21.37,11.34-42.52,20.13-62.52,5.64-12.84,14.47-19.48,27.75-17.49,14.21,2.13,23.43-6.04,30.33-18.63,5.27-9.6,2.04-17.77-7.82-20.33-12.71-3.29-23.71,1.24-33.82,9.31-11.45,9.14-19.62,21.64-27.75,34.18-6.62,10.21-13.11,20.58-22.47,28.12-9.59,7.73-19.41,7.8-29.41,1.12-7.39-4.94-13.21-11.81-17.91-19.69-5.75-9.64-12.85-17.85-20.08-26.05-13.98-15.86-27.27-32.4-38.62-50.75-6.79-10.98-8.98-22.58-5.33-35.82,4.12-14.94-3.29-29.22-16.69-34.19-8.38-3.11-15.42,1.74-16.49,11.55-.53,4.88-.37,9.75,1.05,14.5,4.27,14.29,13,25.39,21.34,36.71,13.18,17.88,27.24,35.02,36.96,55.72,3.46,7.37,6.4,14.98,6.43,23.51,.04,9.81-4.15,15.96-12.69,18.47-7.1,2.09-14.29,2.24-21.63,1.59-21.38-1.91-39.8-12.79-58.11-23.72-12.07-7.2-19.18-17.96-16.55-34.54,1.65-10.4-3.27-17.65-11.07-22.7-9.31-6.02-18.17-1.32-19.73,10.55-1.6,12.14,2.19,21.44,11.5,28.5,17.02,12.91,34.9,24.39,50.76,39.24,16.27,15.24,34.44,27.78,50.34,43.68,20.19,20.18,39.46,41.14,54.24,66.69,5.67,9.8,11.07,19.83,17.21,29.26,13.96,21.48,28.56,42.45,42.43,64,25.78,40.07,50.95,80.62,76.87,120.58,28.19,43.48,57.14,86.33,92.54,123.13,18.65,19.39,37.38,38.67,56.34,57.69,12.17,12.21,23.31,25.78,36.53,36.6,22.78,18.64,47.28,34.24,71.87,49.74,16.15,10.19,31.3,8.39,46.62-.92,8.16-4.96,12.9-13.08,15.16-22.99,1.97-8.63,2.45-17.44,2.17-27.96Zm-843.05,476.45c.22-.03,.59,.03,.87-.13,.76-.41,1.5-.87,2.21-1.39,41.08-30.22,87.71-40.64,135.52-45.16,31.41-2.97,62.32,3.36,92.56,13.19,14.26,4.64,28.41,9.67,42.85,13.7,11.71,3.27,20.14-2.33,25.78-11.68,11.86-19.65,24.5-38.75,35.01-59.41,8.23-16.18,14.15-33.76,24.3-48.78,1.94-2.86,1.47-6.04-.61-9.32-13.3-20.96-22.16-44.16-28.11-68.91-11.08-46.09-13.13-93.41-15.84-140.64-.24-4.18-1.47-4.88-4.92-4.51-12.43,1.36-24.88,2.77-37.35,3.41-18.55,.96-37.09,1.49-55.7,.6-20.76-.99-41.58-.5-62.38-.44-4.47,.01-8.88-1.64-14.25-.59,6.69,3.43,12.77,6.13,18.5,9.56,17.35,10.39,31.26,24.43,34.5,47.21,3.24,22.79-5.26,36.09-21.66,41.85-4.21,1.48-8.56,1.99-12.93,2.61-16.77,2.37-30.45-7.15-44.49-14.55-13.54-7.14-24.54-18.59-35.73-29.49-2.82-2.75-4.43-2.78-6.93,.38-8.98,11.35-19.05,21.66-30.86,29.01-9.05,5.63-12.41,11.66-11.3,23.75,1.81,19.76,.69,39.78-.29,59.7-1.38,28-3.99,55.81-8.94,83.3-6.39,35.52-15.32,70.45-19.78,106.72ZM480.99,162.14c-.67,.65-.87,.75-.9,.88-7.1,40.31-2.19,78.05,19.43,112.21,.68,1.07,1.35,2.17,1.9,3.33,1.56,3.31,1.58,6.65-.82,9.4-2.37,2.72-5.83,3.54-8.37,1.4-4.93-4.16-7.7-1.13-10.24,2.9-8.89,14.15-16.07,29.14-17.56,46.74-.44,5.24-.93,10.47-1.39,15.7-1.46,16.59,1.45,32.11,8.93,46.63,2.72,5.29,6.73,8.18,11.75,9.94,8.14,2.86,14.47-1.47,20.63-6.33,13.68-10.79,26-23.41,38.79-35.42,20.72-19.47,43.11-36.07,69.76-43.43,30.18-8.34,60.04-17.87,89.86-27.63,32.16-10.53,64.68-14.16,98.06-7.21,29.11,6.06,54.43,19.71,75.8,42.42,6.59,7.01,12.91,14.33,19.43,21.42,11.47,12.48,23.57,24.31,34.36,37.47,16.75,20.43,33.17,41.19,51.71,59.63,12.47,12.4,20.67,27.65,26.71,44.6,7.47,20.99,6.21,42.32,1.63,63.73-.37,1.75-1.62,4.07-.06,5.27,1.76,1.36,3.47-.72,4.93-1.82,9.81-7.42,16.47-17.71,21.18-29.62,7.22-18.28,8.47-37.85,9.35-57.38,1.22-27.29,9.61-39.99,32.54-49.82,24.01-10.28,46.35-23.8,64.05-45.22,3.34-4.05,6.76-8.15,9.48-14.27-6.65,3.12-12.23,6.26-18.35,7.5-22.12,4.46-43.25,.14-63.07-10.74-12.83-7.04-25.18-15.21-38.19-21.98-3.48-1.81-6.79-4.28-9.79-6.98-16.57-14.98-27.25-34.55-35.45-56.15-3.17-8.36-1.97-14.73,3.54-21.43,17.23-20.94,34.89-41.42,53.19-61.19,6.64-7.18,14.22-13.16,22.74-17.69,10.23-5.45,21.05-8.43,32.46-10.72-.7-.54-.95-.79-1.24-.93-.3-.15-.64-.25-.97-.3-40.56-6.85-74.5,7.91-103.17,39.39-5.16,5.66-9.7,12.03-14.38,18.2-13.38,17.66-35.13,23.36-54.23,14.31-14.77-7-28.1-17.11-42.99-23.98-14.53-6.71-29.01-11.21-44.81-7.8-24.77,5.34-48.76,2.88-71.82-8.91-3.55-1.81-7.28-3.49-9.96-6.61-14.78-17.18-29.63-34.19-39.25-56.03-9.24-20.97-20.59-40.63-34.56-58.2-5.85-7.36-12.61-13.69-19.86-19.36,3.45,8.71,7.27,17.03,10.98,25.42,9.39,21.24,11.79,43.79,9.6,67.05-.87,9.23-.73,18.37,.11,27.55,1.6,17.56,4.45,34.97,4.58,52.71,.05,6.51-2.18,10.07-7.58,12.15-21.01,8.09-42.54,9.61-64.43,6.62-12.07-1.65-23.7-5.81-35.84-7.45-35.32-4.79-63.41-24.32-85.93-54.33-5.56-7.41-8.37-16.64-12.22-25.64Zm-24.65,959.22c-6.58,.44-16.52-.85-26.35-2.61-12.09-2.16-23.9-5.6-33.2-15.36-3.55-3.73-6.34-8.24-5.7-13.86,1.32-11.63,6.08-21.12,15.74-26.7,17.84-10.3,36.17-15.54,56.04-6.98,6.27,2.7,12.86,4.65,19.8,4.15,8.84-.63,14.6-6.4,15.26-15.51,.67-9.25-3.98-15.81-12.78-18.01-10.8-2.7-21.18,.05-31.48,3.17-19.47,5.9-37.93,14.84-56.44,23.62-16.79,7.97-33.38,16.6-51.38,20.8-6.43,1.5-13.07,3.02-19.34-.77-6.53-3.95-13.35-7.52-19.3-12.38-21.66-17.7-43.9-34.47-66.02-51.44-24.21-18.57-48.79-36.59-71.71-57.17-7.12-6.39-13.65-13.5-18.31-22.43-7.98-15.27-5.6-28.96,6.84-39.82,7.48-6.54,15.56-11.98,24.09-16.63,15.18-8.27,30.54-16.17,45.04-25.89,34.05-22.81,68.5-44.78,104.2-64.26,1.83-1,3.38-2.38,4.93-3.88,20.59-19.94,41.93-38.56,67.92-49.41,13.76-5.74,27.38-11.94,40.89-18.4,13.86-6.63,26.76-14.58,37.16-27.59,8.24-10.3,17.78-19.62,28.63-26.72,16.83-11.01,31.26-25.59,46.85-38.44,1.51-1.24,2.75-2.6,3.03-4.94,.97-8.03-2.82-16.58-9.39-20.32-7.39-4.21-15.27-4.39-23.27-3.08-7.37,1.21-14.5,3.59-21.68,5.74-6.5,1.94-12.76,5.39-19.71,4.77-14.7-1.3-27.96,3.94-41.02,10.53-27.63,13.95-53.62,31.18-79.22,49.15-55.79,39.15-113,75.57-170.89,110.67-26.56,16.1-53.96,30.46-78.81,49.9-8.42,6.58-18.24,8.85-28.41,8.78-10.85-.07-20.88,2.84-29.44,10.26-14.39,12.49-28.4,25.52-41.95,39.13-6.13,6.16-6.26,11.24-1.59,18.91,4.45,7.31,10.51,12.75,16.89,17.7,16.81,13.06,31.09,28.84,42.95,47.46,14.78,23.22,33.05,42.24,55.86,55.44,12.74,7.38,25.77,14.15,38.61,21.32,23.42,13.08,46.75,26.43,71.53,36.13,31.44,12.32,59.75,30.58,85.53,53.95,11.5,10.42,24.11,19.24,34.38,31.45,5.25,6.24,11.64,11.38,18.62,15.46,13.62,7.96,27.08,16.24,40.64,24.32,13.88,8.27,25.38,18.79,31.69,35.7,8.39,22.49,24.11,35.17,45.68,38.91,6.8,1.18,13.47,1.22,19.68-2.86,4.57-3,5.52-5.95,3.29-11.2-3.26-7.7-8.7-13.34-14.42-18.68-13.43-12.55-28.76-21.75-44.13-30.88-12.97-7.71-26.11-15.14-37.72-25.34-5.87-5.15-11.31-10.81-14.29-18.72-3.12-8.28-1.57-16.49,4.28-21.39,5.17-4.33,10.82-7.51,17.31-8.94,24.52-5.4,49.28-6.86,74.17-5.62,13.13,.65,25.25,4.54,35.16,15.07,4.39,4.67,9.59,8.31,15.31,10.88,16.2,7.3,31.68,1.86,40.26-13.67,3.07-5.56,2.63-10.19-.89-14.9-5.45-7.28-12.75-11.03-20.83-13.01-18.45-4.52-37-2.69-55.52-.69-19.84,2.15-39.64,4.8-63.05,5.1Zm640.01,949.18c-7.7,.46-15.14-1.3-22.41-3.9-16.89-6.05-33.6-12.79-50.63-18.26-15.58-5-31.5-8.67-47.26-12.99-25.27-6.92-50.11-15.63-75.48-22.15-10.49-2.69-18.65-9.58-24.19-19.95-4.7-8.79-7.75-18.32-10.16-28.18-3.03-12.37-4.85-24.97-6.74-37.59-3.27-21.88-7-43.76-7.03-66-.03-21.82,1.6-43.66,6.2-64.91,6.92-31.94,14.51-63.71,22.1-95.47,5.26-22,8.73-44.46,14.07-66.42,6.31-25.98,15.11-51.07,22.61-76.62,6.88-23.42,14.09-46.7,22-69.72,.68-1.98,3.52-6-1.95-5.41-11.6,1.24-23.24,2.22-34.65,4.96-25.52,6.12-50.03,15.87-74.3,26.38-10.55,4.57-20.84,9.85-30.48,16.58-2.57,1.79-3.91,3.7-3.18,7.34,2.66,13.22,4.1,26.64,5.3,40.13,1.74,19.68,2.16,39.42,1.87,59.12-.25,16.88-1.35,33.77-2.3,50.64-1.06,18.84-4.07,36.97-10.94,54.14-10.14,25.36-13.88,52.02-14.82,79.51-.97,28.31,5.6,55.12,11.87,82.05,2.56,10.97,6.75,21.19,11.12,31.42,10.3,24.1,25.1,45.01,37.71,67.47,1.74,3.09,4.07,5.08,7.45,6.2,7.56,2.5,11.6,10.5,9.77,19.04-1.39,6.5-4.12,12.4-8.95,16.66-6.23,5.5-12.77,10.52-19.81,14.68-22.3,13.16-45.88,23.06-69.16,33.75-10.36,4.76-20.92,8.71-32.02,10.54-9.95,1.64-18.45-5.29-19.11-15.94-1.13-17.97-14-25.17-26.79-26.98-13.14-1.85-25.57,9.23-28.2,24.47-2.97,17.21,.45,29.58,13.94,36.66,15.01,7.87,29.82,6.62,44.28-2.17,10.67-6.48,20.98-13.7,32.57-18.23,24.1-9.41,48.83-16.54,73.26-24.74,16.8-5.64,33.41-12.36,51.18-13.51,.8-.05,1.65-.44,2.36-.9,6.94-4.43,11.2-4.36,17.29,1.01,13.96,12.31,26.78,25.86,36.94,42.3,11.19,18.12,21.64,36.84,34.55,53.59,14.67,19.03,29.89,37.3,50.06,49.54,21.66,13.14,54.6,9.04,72.76-9.41,7.13-7.25,9.9-17.75,6.98-26.55-3.09-9.33-11.55-15.22-21.38-15.68-12.5-.58-24.56,1.94-36.59,5.18-17.51,4.72-33.5,1.15-47.99-10.86-16.43-13.6-31.87-27.97-38.1-51.07-3.29-12.21-10.53-22.69-12.89-35.39-1-5.36,.55-8.37,5.37-9.2,2.16-.37,4.43-.33,6.48-1.06,11.89-4.24,24.2-5.68,36.53-5.67,31.3,.01,60.31,10.57,87.9,26.03,20.86,11.69,42.27,19.05,65.86,15.4,12.84-1.99,24.61-6.68,33.74-17.59,4.51-5.4,5.77-11.62,2.91-18.19-2.55-5.86-6.64-9.06-13.18-9.4-11.37-.58-20.34,3.79-28.13,12.62-7.67,8.7-16.89,13.68-28.19,12.68ZM506.78,1544.5c-24.78-.47-49.23,2.67-73.5,8.08-4.79,1.07-6.15,3.5-6.11,8.84,.13,16.75,1.69,33.38,2.92,50.03,2.03,27.46,6.2,54.44,14.76,80.42,5.58,16.94,12.12,33.59,14.11,51.69,3.28,29.81,3.51,59.27-8.62,87.3-4.49,10.37-9.65,20.32-15.23,29.91-19.3,33.18-36.22,67.9-53.89,102.13-11.63,22.53-24.32,44.31-40.33,63.41-7.43,8.86-15.34,17.03-26.82,19.05-7.02,1.24-13.99,2.52-21.13,2.76-6.06,.2-12.21,.53-18.14,1.79-22.91,4.86-45.68,10.63-68.66,15.07-22.89,4.43-45.24,3.62-66.49-9.6-12.29-7.65-26.08-11.42-40.48-11.03-3.68,.1-6.9,1-9.54,4.24-5.82,7.13-6.06,16.79-.26,24.65,3.61,4.9,8.04,8.8,13.54,10.53,14.66,4.6,29.18,8.23,44.57,2.07,7.98-3.19,16.94-3.27,25.4-5.1,24.38-5.26,48.52-12.09,73.33-14.56,10.73-1.07,21.57-2.97,32.23,.65,13.28,4.51,16.31,14.43,7.73,26.32-15.46,21.44-34.14,39.01-54.58,54.26-20.16,15.04-31.01,14.9-50.98-.63-9.24-7.18-19.06-12.94-29.67-16.95-8.79-3.33-17.95-7.39-27.17-5.77-20.78,3.64-29.59,17.44-29.3,39.41,.18,14.14,6.39,23.55,17.61,29.7,7.81,4.27,15.84,7.67,24.39,9.25,15.85,2.93,30.96,1.57,44.37-9.87,6.97-5.95,14.19-11.57,21.59-16.83,24.07-17.11,48.19-34.12,72.02-51.64,13.24-9.73,26.1-20.06,39.9-28.95,14.87-9.58,27.56-4.9,40.06,4.52,8.21,6.19,14.53,14.62,20.07,23.69,9.4,15.4,18.49,31.04,27.99,46.36,5.91,9.52,10.85,19.38,13.64,30.64,4.64,18.72,23.26,31.54,40.54,28.36,18.3-3.37,38.92-31.85,38.14-52.6-.11-2.83-1.07-4.74-3.11-6.62-5.38-4.99-11.5-7.57-18.29-9.05-11.4-2.48-22.93-1.22-34.38-2-25.81-1.77-51.48-16.54-56.76-51.42-.92-6.1-2.24-12.11-4.46-17.89-11.36-29.6-8.17-57.24,9.64-82.62,11.33-16.14,25.65-28.86,39.98-41.41,10.38-9.09,20.48-19.03,28.25-30.26,33.19-48.01,47.62-103.47,48.25-163.66,.06-5.26-.27-10.59,.33-15.78,4.77-41,17.56-79.08,34.82-115.39,13.7-28.81,29.93-55.85,48.08-81.45,3.51-4.95,3.37-5.37-2.21-6.38-25.88-4.67-51.86-8.16-78.15-7.68ZM182.52,927.96c.3,5.49,2.51,9.93,4.98,14.21,6.7,11.64,16.15,20.17,26.16,27.93,19.69,15.25,39.48,30.34,59.28,45.4,7.1,5.4,13.58,11.89,21.47,15.93,5.76,2.95,7.22,1.95,8.88-4.79,5.06-20.47,9.56-41.14,16.39-60.99,9.24-26.84,19.44-53.23,30.88-79.03,10.7-24.11,22.45-47.56,34.88-70.6,6.17-11.45,12.43-22.84,19.87-33.33,2.69-3.78,2.62-7.77,.89-11.63-1.82-4.06-5.52-3.03-8.6-2.55-3.66,.57-7.33,1.44-10.86,2.68-23.16,8.09-44.64,20.48-66.14,32.7-26.93,15.31-53.18,32.03-79.15,49.28-20.27,13.47-38.24,29.6-51.15,51.96-4.07,7.05-6.69,14.72-7.79,22.83ZM492.59,114.44c-.16,19.04,4.63,36.6,12.23,53.17,6.32,13.77,15.91,23.94,28.92,30.28,18.54,9.04,38.03,13.17,57.99,14.75,29.29,2.32,50.34-12,62.66-41.26,5.75-13.64,6.39-28.61,4.9-43.64-3.44-34.64-15.88-63.94-41.32-85.24-15.93-13.34-34.15-18.77-53.92-15.6-12.45,2-24.19,6.98-34.63,15.06-22.73,17.6-35.69,41.37-36.84,72.48Zm610.78,74.35c-21.1,.34-38.22,10.2-51.98,27.44-14.41,18.05-18.48,40.05-18.44,63.4,.03,15.41,4.78,28.88,14.86,39.45,15.52,16.28,34.64,25.22,54.88,31.36,12,3.64,24.12,3.36,35.94-1.31,11.26-4.45,20.6-12.22,28.31-22.15,17.04-21.93,27.01-46.74,22.76-76.45-1.82-12.76-6.7-24.52-13.08-35.2-2.96-4.95-7.01-9.26-12.39-11.95-19.4-9.72-39.58-14.88-60.87-14.57Zm-232.18,271.9c-8.21-7.42-16.45-14.79-24.62-22.26-23.92-21.86-50.35-36.61-82.07-37.9-21.86-.89-43.51,1.07-65.16,3.76-4.12,.51-4.15,2.3-2.28,5.82,3.87,7.28,6.97,15.01,9.88,22.84,7.5,20.14,14.89,40.34,24.43,59.43,6.89,13.8,13.75,27.66,24.05,38.85,9.72,10.56,18.61,10.45,28.07-.48,5.16-5.96,9.63-12.6,13.93-19.34,7.54-11.82,15.24-23.51,25.27-32.93,13.82-12.97,29.21-20.81,48.51-17.8Zm121.5,96.71c4.32-5.88,7.1-12.38,7.44-19.82,1.14-25.12-5.21-47.61-20.1-66.71-17.3-22.19-37.58-41.1-56.16-61.9-13.03-14.58-25.69-29.35-36.02-46.37-10.7-17.63-24.55-31.33-40.67-42.47-16.98-11.72-35.65-17.68-55.25-20.79-34.33-5.45-67.49,.04-99.31,14.46-16.5,7.48-33.05,14.27-50.57,17.91-23.1,4.81-45.26,12.35-65.33,26.47-23.76,16.72-43.73,38.37-63.82,59.89-1.34,1.43-2.6,2.96-3.77,4.56-1.71,2.34-.8,3.3,1.59,3.37,3.44,.1,6.13-1.45,8.5-4.2,5.97-6.92,12.26-13.47,18.92-19.59,26.8-24.63,55.35-45.8,89.5-55.77,54.86-16,110.69-22.54,167.27-19.31,16.73,.95,33.16,5.98,46.91,17.72,8.43,7.2,16.69,14.78,24.32,23,32.87,35.44,65.41,71.26,96.07,109.11,13.94,17.21,25.6,35.99,28.77,59.79,.91,6.81,1.11,13.66,1.72,20.63Zm-100.4-75.55c.58,13.06-6.12,22.15-13.15,30.84-7.57,9.36-15.55,18.29-23.38,27.38-13.68,15.85-28.13,30.95-39,49.53-3.79,6.49-6.88,13.35-8.67,20.9-.89,3.78,.23,5.44,3.73,4.95,1.34-.19,2.65-.56,3.98-.85,18.48-4.1,35.86-11.96,53.45-19.16,19.04-7.79,38.36-14.62,58.42-18.36,8.44-1.57,9.35-1.97,9.29-11.66-.17-27.35-11.21-49-29.01-66.93-5.25-5.29-10.52-10.55-15.67-16.64Zm-15.75,239.11c51.37,65.37,107.89,124.96,161.86,189.04-8.16-51.88-29.12-94.79-61.58-130.7-27.91-30.89-61.63-50.02-100.28-58.34Zm149.56,418.02c6.54-.56,16.83-1.21,27.07-2.36,13.28-1.5,13.49-1.81,6.86-14.68-6.95-13.49-15.06-25.73-28.46-32.56-13.52-6.89-26.83-14.29-39.66-22.7-2.32-1.52-3.96-.96-5.97,.57-17.59,13.4-36.03,25.26-54.52,37.03-2.44,1.55-6.8,2.45-6.65,5.2,.19,3.32,4.34,4.73,7.1,6.45,28.13,17.52,58.87,22.33,94.22,23.05Zm-232.88-222.57c-.73-9.43-1.21-17.11-1.94-24.76-.6-6.22-.75-6.24-6-3.21-20.42,11.77-41.4,22.18-62.58,32.12-31.6,14.84-64.23,26.77-95.61,42.28-6.91,3.41-11.37,7.87-13.67,15.83-1.94,6.72-3.77,13.28-2.19,20.36,.73,3.3,1.97,4.67,5.36,2.65,10.44-6.21,21.28-11.54,32.37-16.11,45.95-18.92,90.73-41.21,137.05-59.06,5.45-2.1,8.56-5.05,7.2-10.1Zm-136.46-549.37c13.59,6.15,19.78,11.1,29.14,24.39,2.46,3.49,5.15,4.28,8.79,3.76,20.77-2.95,41.6-5.21,62.56-4.65,22.39,.59,43.81,5.61,63.8,17.53,20.76,12.38,37.96,29.95,56.04,46.26,9.84,8.88,19.23,18.45,29.61,26.46,24.56,18.95,42.22,43.53,51.84,75.02,1.45,4.73,3.76,7.81,7.61,9.8,4.24,2.19,5.51,1.35,5.69-3.76,.36-10.41-2.05-20.21-6.23-29.33-16.96-37.08-42.49-65.83-72.79-89.27-19.7-15.24-41.05-27.64-62.9-38.77-10.89-5.55-21.49-12.21-33.12-15.48-21.28-5.98-42.73-11.32-64.22-16.29-25.1-5.8-50.34-10.64-75.81-5.66Zm-89.93,168.04c-1.46,14.44,4.26,23.85,15.54,30.68,10.71,6.49,19.94,15.51,28.63,25.01,16.99,18.58,33.97,37.17,50.6,56.15,11.85,13.52,27.09,20.06,42.18,27.08,1.15,.53,3.42,1.44,3.51-.3,.27-5.49,2.75-11.36,.08-16.44-3.13-5.96-6.68-12.03-11.21-16.64-12.83-13.05-25.91-25.86-39.52-37.88-29.09-25.69-60.13-48.79-84.97-80.05-2.19-2.75-3.52-1.83-3.95,1.2-.52,3.69-.61,7.46-.89,11.2Zm228.33,438.01c-5.28,3.1-10.27,6.14-15.35,8.99-34.67,19.54-70.57,36.1-106.04,53.68-9.25,4.59-18.5,9.21-27.63,14.08-5.36,2.86-5.45,3.9-2.61,9.4,2.52,4.88,5.07,9.76,7.4,14.76,1.44,3.09,2.98,4.03,5.99,2.28,4.03-2.35,8.29-4.21,12.46-6.26,29.03-14.28,58.59-27.24,87.05-42.96,2.72-1.5,5.46-2.95,7.66-5.41,7.99-8.92,15.96-17.85,24.06-26.65,5.43-5.9,7.82-12.9,7.02-21.92Zm-144.55-81.61c20.32-11.75,41.22-20.9,61.8-30.81,23.08-11.12,46.27-21.98,68.68-34.74,1.75-.99,4.4-1.55,4.44-4.13,.13-8.91-.89-17.57-6.29-24.82-1.31-1.76-2.58-1.12-4.04-.35-35.03,18.56-71.23,34.48-104.7,56.61-1.94,1.28-4.55,1.04-5.75,4.04-4.59,11.45-9.41,22.8-14.14,34.19Zm-32.55,654.01c-11.29-3.62-21.66-6.67-31.87-10.26-30-10.55-60.65-17.13-92.15-16.28-28.84,.78-56.97,7.3-84.64,16.21-22.8,7.34-43.61,19.16-62.83,34.59-3.82,3.07-5.65,6.91-5.63,12.69,2.46-1.38,4.43-2.42,6.34-3.57,27.81-16.74,57.12-28.92,88.14-35.96,34.86-7.91,70.05-9.45,105.4-6.22,19,1.74,38.03,3.83,56.48,9.77,6.64,2.14,13.22,1.63,20.77-.96Zm-35.3-1101.98c26.92,11.67,27.28,11.98,47.86,36.68,7.12,8.54,14.18,17.17,21.59,25.39,7.82,8.67,16.51,16.14,26.89,20.76,5.08,2.26,5.91,1.48,5.33-4.69-.45-4.71-1.78-9.16-3.63-13.43-4.86-11.17-11.76-20.7-19.95-28.91-15.85-15.87-27.35-34.68-33.03-57.65-1.04-4.22-2.99-4.23-5.98-2.62-11.87,6.38-23.73,12.77-34.9,20.61-1.51,1.06-3.35,1.81-4.19,3.87Zm198.76,1082.76c17.39-11.61,35.38-21.31,54.82-28.33,39.86-14.38,79.9-26.45,122.28-25.93,27.86,.34,55.77-1.3,83.53,2.7,1.97,.28,3.35,.11,3.47-2.57,.12-2.72-.76-4.14-3.4-4.38-24.56-2.3-49.04-5.57-73.75-5.67-24.88-.1-49.62,.92-73.95,7.65-29.18,8.06-56.88,20.41-83.89,34.84-10.62,5.67-20.45,12.74-29.11,21.7ZM644.27,367.75c-6.77-.61-12.08-.14-17.3,1.83-13.96,5.28-27.45,11.68-40.11,20.16-16.99,11.38-32.9,24.38-47.7,39.05-1.04,1.03-3.09,1.94-2.26,3.87,.76,1.76,2.78,1.05,4.18,.84,4.01-.6,8.04-1.14,11.64-3.53,20.65-13.69,43.01-22.63,66.22-29.14,3.62-1.01,5.55-3.02,6.83-7.15,3.25-10.43,7.89-19.98,18.49-25.96Zm378.19,793.04c15.4,.61,30.33-1.96,44.81-7.72,2.12-.84,4.23-1.73,3.04-5.19-1.03-2.99-1.86-5.24-5.68-4.43-21.15,4.48-42.48,5.89-63.97,3.86-22.73-2.14-44.72-7.43-65.34-18.66-6.23-3.39-12.32-7-17.55-12.2-2.24-2.22-8.03-1.04-9.27,2.02-1.36,3.35,2.01,3.78,3.45,5.09,3.01,2.71,6.29,5.06,9.59,7.35,30.89,21.48,65.04,29.36,100.93,29.88Zm-677.99,10.46c-.5,.44-.99,.88-1.49,1.32,2.16,7.37,4.99,14.46,8.06,21.44,9.48,21.59,18.9,43.21,22.13,67.33,.37,2.79,1.05,3.76,3.48,1.96,9.99-7.4,19.68-15.18,28.18-24.69,2.37-2.65,2.33-4.53-.2-6.84-3.65-3.33-6.94-7.19-10.76-10.22-16.28-12.9-31.07-27.65-44.68-43.88-1.69-2.01-3.14-4.26-4.7-6.41Zm345.37-384.26c3.29-1.73,5.4-2.83,7.5-3.96,17.93-9.59,35.82-19.28,53.83-28.69,4.06-2.13,4.79-4.37,2.44-8.61-2.65-4.78-5.03-9.78-7.15-14.87-1.52-3.65-3.29-3.81-6.35-2.31-12.5,6.14-24.76,12.82-36.84,19.91-1.41,.83-2.49,1.88-3.01,3.6-3.33,11.18-6.67,22.36-10.42,34.94Zm-141.62,391.13c-3.15-.65-6.3-1.27-9.44-1.96-17.94-3.93-35.08-11.24-52.93-15.57-17.9-4.35-35.97-6.84-54.3-5.98-2.87,.14-7.41-.53-8.22,2.68-.81,3.23,3.85,4.42,5.79,6.84,5.74,7.17,12.98,9.74,21.51,10.49,11.29,.98,22.57,1.74,33.88,2.19,21.26,.86,42.51,1.97,63.71,1.31Zm366.92-559.22c-8.85,2.8-29.4,16.69-37.61,25.75-10.33,11.4-20.91,22.41-33.64,30.52-1.17,.74-2.38,1.34-1.55,3.43,2.1,5.31,6.34,7.87,11.71,6.69,2.65-.58,5.27-1.3,7.88-2.07,8.65-2.54,15.11-7.68,18.41-17.49,3.25-9.68,9.46-17.17,15.97-24.4,6.39-7.09,12.35-14.67,18.83-22.42ZM622.46,240.79c17.5,1.23,33.39,.25,48.98-4.59,3-.93,5.98-2.12,6.09-6.39,.34-13.47-.92-26.79-3.17-40.33-4.96,11.9-11.11,22.68-19.72,31.59-8.84,9.16-19.54,14.54-32.19,19.72Zm392.6,1.68c-6.3,8.02-12.48,16.16-18.97,23.99-2.52,3.05-2.99,5.77-1.67,9.6,4.72,13.61,11.49,25.85,19.53,37.28,3.29,4.67,6.57,9.35,11.65,12.44-16.84-25.67-21.52-52.99-10.55-83.3ZM376.29,1280.4c.9-.54,1.98-1.07,2.95-1.78,4.22-3.09,8.51-6.08,12.58-9.4,7.89-6.45,15.2-13.66,21.92-21.59,1.16-1.37,2.53-2.86,.9-4.82-1.39-1.67-2.39-.31-3.32,.82-9.52,11.59-20.93,20.55-32.65,29.09-1.53,1.11-3.41,1.97-3.94,4.14-.32,1.35-.67,3.09,1.56,3.55Z"/><path d="M700.1,1244.56c-11.35-.07-18.81-8.36-18.76-20.86,.05-15.01,10.74-27.46,23.73-27.62,11.49-.14,19.44,8.53,19.27,21.02-.22,15.65-10.71,27.54-24.23,27.46Z"/><path d="M585.35,101.48c.02,19.51-3.54,33.55-8.82,47.11-1.34,3.45-2.75,6.82-3.74,10.45-2.52,9.29-11.53,11.6-17.52,4.45-5.82-6.95-8.82-15.65-10.5-24.71-4.19-22.58-2.94-44.77,4.19-66.59,2.72-8.33,5.88-16.36,9.32-24.32,2.04-4.71,4.98-6.42,9.35-4.62,3.47,1.43,6.21,3.98,7.51,7.89,5.89,17.72,10.4,35.78,10.2,50.35Z"/><path d="M1160.89,233.24c-2.33,36.55-13.29,69.02-36.92,95.47-4.58,5.12-9.58,9.35-16.57,6.25-5.46-2.42-8.69-10.25-8.27-19.15,.83-17.46,4.98-34.04,10.95-50.12,7.14-19.26,17.01-36.66,28.97-52.64,.65-.87,1.18-1.89,1.95-2.58,3.44-3.04,6.94-6.41,11.74-5.09,4.93,1.35,5.8,6.31,6.79,10.92,1.18,5.53,1.22,11.17,1.35,16.94Z"/></g></g></g></svg>